M48
; DRILL file {KiCad (6.0.9-0)} date Sunday, 29 January 2023 at 21:40:43
; FORMAT={-:-/ absolute / metric / decimal}
; #@! TF.CreationDate,2023-01-29T21:40:43+00:00
; #@! TF.GenerationSoftware,Kicad,Pcbnew,(6.0.9-0)
; #@! TF.FileFunction,MixedPlating,1,4
FMAT,2
METRIC
; #@! TA.AperFunction,Plated,PTH,ViaDrill
T1C0.300
; #@! TA.AperFunction,Plated,PTH,ViaDrill
T2C0.800
; #@! TA.AperFunction,Plated,PTH,ComponentDrill
T3C0.800
; #@! TA.AperFunction,Plated,PTH,ComponentDrill
T4C0.950
; #@! TA.AperFunction,Plated,PTH,ComponentDrill
T5C1.000
; #@! TA.AperFunction,Plated,PTH,ComponentDrill
T6C1.200
; #@! TA.AperFunction,NonPlated,NPTH,ComponentDrill
T7C2.700
%
G90
G05
T1
X37.75Y-63.75
X37.75Y-75.5
X38.0Y-51.5
X38.65Y-66.3
X38.65Y-79.3
X39.75Y-60.65
X39.75Y-73.7
X40.0Y-51.5
X42.0Y-51.5
X43.75Y-72.55
X44.249Y-93.8
X44.375Y-94.975
X44.75Y-71.575
X45.68Y-74.56
X47.3Y-67.945
X47.3Y-80.0
X47.371Y-64.4
X47.371Y-66.294
X47.39Y-86.0
X49.55Y-89.25
X49.55Y-90.75
X50.6Y-94.2
X50.673Y-71.882
X50.673Y-73.533
X50.8Y-80.6
X50.925Y-76.25
X51.0Y-67.8
X51.7Y-76.9
X51.7Y-79.8
X51.8Y-61.1
X52.5Y-77.9
X55.25Y-91.5
X55.5Y-88.9
X56.4Y-95.8
X57.0Y-33.9
X57.1Y-83.45
X57.3Y-94.75
X57.5Y-89.0
X58.3Y-75.6
X58.6Y-98.6
X59.7Y-75.6
X60.6Y-100.6
X63.25Y-41.25
X63.25Y-42.75
X63.25Y-44.25
X63.25Y-45.75
X63.25Y-47.25
X63.25Y-48.75
X63.75Y-89.25
X64.7Y-67.325
X64.75Y-41.25
X64.75Y-42.75
X64.75Y-44.25
X64.75Y-45.75
X64.75Y-47.25
X64.75Y-48.75
X65.85Y-98.5
X66.25Y-41.25
X66.25Y-42.75
X66.25Y-44.25
X66.25Y-45.75
X66.25Y-47.25
X66.25Y-48.75
X67.75Y-41.25
X67.75Y-42.75
X67.75Y-44.25
X67.75Y-45.75
X67.75Y-47.25
X67.75Y-48.75
X68.5Y-68.7
X68.82Y-71.9
X69.25Y-41.25
X69.25Y-42.75
X69.25Y-44.25
X69.25Y-45.75
X69.25Y-47.25
X69.25Y-48.75
X69.85Y-73.0
X70.75Y-41.25
X70.75Y-42.75
X70.75Y-44.25
X70.75Y-45.75
X70.75Y-47.25
X70.75Y-48.75
X72.25Y-41.25
X72.25Y-42.75
X72.25Y-44.25
X72.25Y-45.75
X72.25Y-47.25
X72.25Y-48.75
X72.75Y-72.0
X72.75Y-80.0
X72.75Y-88.0
X72.75Y-96.0
X72.8Y-64.6
X73.5Y-60.3
T2
X55.675Y-27.425
X55.675Y-29.425
X55.75Y-100.75
T3
X56.5Y-41.0
X56.5Y-44.5
T4
X30.5Y-63.975
X30.5Y-72.0
X30.5Y-80.0
X30.5Y-87.975
X30.5Y-96.0
X33.0Y-63.975
X33.0Y-72.0
X33.0Y-80.0
X33.0Y-87.975
X33.0Y-96.0
X35.5Y-63.975
X35.5Y-72.0
X35.5Y-80.0
X35.5Y-87.975
X35.5Y-96.0
X69.25Y-104.025
X71.75Y-104.025
X74.25Y-104.025
X76.0Y-64.025
X76.0Y-72.05
X76.0Y-80.025
X76.0Y-88.025
X76.0Y-96.025
X76.75Y-104.025
X78.5Y-64.025
X78.5Y-72.05
X78.5Y-80.025
X78.5Y-88.025
X78.5Y-96.025
X81.0Y-64.025
X81.0Y-72.05
X81.0Y-80.025
X81.0Y-88.025
X81.0Y-96.025
X83.5Y-64.025
X83.5Y-72.05
X83.5Y-80.025
X83.5Y-88.025
X83.5Y-96.025
T5
X32.9Y-54.75
X32.9Y-57.29
X34.065Y-104.0
X35.44Y-54.75
X35.44Y-57.29
X36.605Y-104.0
X37.98Y-54.75
X37.98Y-57.29
X39.145Y-104.0
X40.52Y-54.75
X40.52Y-57.29
X41.685Y-104.0
X43.06Y-54.75
X43.06Y-57.29
X44.225Y-104.0
X45.6Y-54.75
X45.6Y-57.29
X46.765Y-104.0
X48.14Y-54.75
X48.14Y-57.29
X49.305Y-104.0
X50.68Y-54.75
X50.68Y-57.29
X51.845Y-104.0
X53.22Y-54.75
X53.22Y-57.29
X54.385Y-104.0
X55.76Y-54.75
X55.76Y-57.29
X56.925Y-104.0
X58.3Y-54.75
X58.3Y-57.29
X60.84Y-54.75
X60.84Y-57.29
X63.38Y-54.75
X63.38Y-57.29
X65.92Y-54.75
X65.92Y-57.29
X68.46Y-54.75
X68.46Y-57.29
X71.0Y-54.75
X71.0Y-57.29
X73.54Y-54.75
X73.54Y-57.29
X76.08Y-54.75
X76.08Y-57.29
X78.62Y-54.75
X78.62Y-57.29
X79.871Y-28.096
X81.16Y-54.75
X81.16Y-57.29
X82.371Y-28.096
T6
X81.5Y-40.176
X81.5Y-45.176
T7
X28.0Y-56.0
X28.0Y-105.0
X86.0Y-56.0
X86.0Y-105.0
T0
M30
