%TF.GenerationSoftware,KiCad,Pcbnew,(6.0.9-0)*%
%TF.CreationDate,2023-01-29T21:41:42+00:00*%
%TF.ProjectId,FiringPi,46697269-6e67-4506-992e-6b696361645f,rev?*%
%TF.SameCoordinates,Original*%
%TF.FileFunction,Soldermask,Top*%
%TF.FilePolarity,Negative*%
%FSLAX46Y46*%
G04 Gerber Fmt 4.6, Leading zero omitted, Abs format (unit mm)*
G04 Created by KiCad (PCBNEW (6.0.9-0)) date 2023-01-29 21:41:42*
%MOMM*%
%LPD*%
G01*
G04 APERTURE LIST*
G04 Aperture macros list*
%AMRoundRect*
0 Rectangle with rounded corners*
0 $1 Rounding radius*
0 $2 $3 $4 $5 $6 $7 $8 $9 X,Y pos of 4 corners*
0 Add a 4 corners polygon primitive as box body*
4,1,4,$2,$3,$4,$5,$6,$7,$8,$9,$2,$3,0*
0 Add four circle primitives for the rounded corners*
1,1,$1+$1,$2,$3*
1,1,$1+$1,$4,$5*
1,1,$1+$1,$6,$7*
1,1,$1+$1,$8,$9*
0 Add four rect primitives between the rounded corners*
20,1,$1+$1,$2,$3,$4,$5,0*
20,1,$1+$1,$4,$5,$6,$7,0*
20,1,$1+$1,$6,$7,$8,$9,0*
20,1,$1+$1,$8,$9,$2,$3,0*%
%AMFreePoly0*
4,1,37,0.585355,0.785355,0.600000,0.750000,0.600000,-0.750000,0.585355,-0.785355,0.550000,-0.800000,0.000000,-0.800000,-0.012524,-0.794812,-0.080857,-0.793560,-0.094851,-0.791293,-0.230166,-0.749018,-0.242962,-0.742915,-0.360972,-0.664360,-0.371540,-0.654911,-0.462760,-0.546392,-0.470252,-0.534356,-0.527347,-0.404597,-0.531159,-0.390943,-0.548742,-0.256483,-0.547388,-0.256306,-0.550000,-0.250000,
-0.550000,0.250000,-0.549522,0.251153,-0.549368,0.263802,-0.527557,0.403879,-0.523412,0.417435,-0.463164,0.545760,-0.455381,0.557609,-0.361537,0.663867,-0.350741,0.673055,-0.230846,0.748703,-0.217905,0.754492,-0.081598,0.793449,-0.067552,0.795373,-0.011991,0.795033,0.000000,0.800000,0.550000,0.800000,0.585355,0.785355,0.585355,0.785355,$1*%
%AMFreePoly1*
4,1,37,0.012350,0.794884,0.074210,0.794507,0.088231,0.792412,0.224052,0.751793,0.236921,0.745846,0.355883,0.668739,0.366566,0.659420,0.459104,0.552023,0.466742,0.540080,0.525419,0.411028,0.529398,0.397421,0.549495,0.257088,0.550000,0.250000,0.550000,-0.250000,0.549996,-0.250610,0.549847,-0.262826,0.549158,-0.270511,0.525638,-0.410312,0.521328,-0.423818,0.459516,-0.551397,
0.451589,-0.563150,0.356454,-0.668254,0.345546,-0.677309,0.224736,-0.751486,0.211726,-0.757116,0.074953,-0.794405,0.060885,-0.796158,0.011462,-0.795252,0.000000,-0.800000,-0.550000,-0.800000,-0.585355,-0.785355,-0.600000,-0.750000,-0.600000,0.750000,-0.585355,0.785355,-0.550000,0.800000,0.000000,0.800000,0.012350,0.794884,0.012350,0.794884,$1*%
G04 Aperture macros list end*
%ADD10RoundRect,0.275000X-0.225000X-0.250000X0.225000X-0.250000X0.225000X0.250000X-0.225000X0.250000X0*%
%ADD11RoundRect,0.050000X-1.200000X1.200000X-1.200000X-1.200000X1.200000X-1.200000X1.200000X1.200000X0*%
%ADD12C,2.500000*%
%ADD13RoundRect,0.250000X-0.275000X0.200000X-0.275000X-0.200000X0.275000X-0.200000X0.275000X0.200000X0*%
%ADD14FreePoly0,270.000000*%
%ADD15RoundRect,0.050000X-0.750000X0.500000X-0.750000X-0.500000X0.750000X-0.500000X0.750000X0.500000X0*%
%ADD16FreePoly1,270.000000*%
%ADD17RoundRect,0.300000X0.600000X0.725000X-0.600000X0.725000X-0.600000X-0.725000X0.600000X-0.725000X0*%
%ADD18O,1.800000X2.050000*%
%ADD19RoundRect,0.268750X0.218750X0.381250X-0.218750X0.381250X-0.218750X-0.381250X0.218750X-0.381250X0*%
%ADD20RoundRect,0.275000X0.250000X-0.225000X0.250000X0.225000X-0.250000X0.225000X-0.250000X-0.225000X0*%
%ADD21RoundRect,0.250000X0.275000X-0.200000X0.275000X0.200000X-0.275000X0.200000X-0.275000X-0.200000X0*%
%ADD22RoundRect,0.275000X-0.250000X0.225000X-0.250000X-0.225000X0.250000X-0.225000X0.250000X0.225000X0*%
%ADD23RoundRect,0.250000X-0.200000X-0.275000X0.200000X-0.275000X0.200000X0.275000X-0.200000X0.275000X0*%
%ADD24RoundRect,0.293750X0.243750X0.456250X-0.243750X0.456250X-0.243750X-0.456250X0.243750X-0.456250X0*%
%ADD25RoundRect,0.268750X0.381250X-0.218750X0.381250X0.218750X-0.381250X0.218750X-0.381250X-0.218750X0*%
%ADD26C,2.800000*%
%ADD27RoundRect,0.175000X-0.825000X-0.125000X0.825000X-0.125000X0.825000X0.125000X-0.825000X0.125000X0*%
%ADD28RoundRect,0.050000X-0.700000X0.500000X-0.700000X-0.500000X0.700000X-0.500000X0.700000X0.500000X0*%
%ADD29RoundRect,0.050000X-1.250000X1.650000X-1.250000X-1.650000X1.250000X-1.650000X1.250000X1.650000X0*%
%ADD30O,18.007000X2.259000*%
%ADD31RoundRect,0.050000X-0.762500X0.350000X-0.762500X-0.350000X0.762500X-0.350000X0.762500X0.350000X0*%
%ADD32RoundRect,0.300000X-0.600000X-0.750000X0.600000X-0.750000X0.600000X0.750000X-0.600000X0.750000X0*%
%ADD33O,1.800000X2.100000*%
%ADD34RoundRect,0.268750X-0.218750X-0.381250X0.218750X-0.381250X0.218750X0.381250X-0.218750X0.381250X0*%
%ADD35RoundRect,0.250000X0.200000X0.275000X-0.200000X0.275000X-0.200000X-0.275000X0.200000X-0.275000X0*%
%ADD36RoundRect,0.050000X-0.125000X0.550000X-0.125000X-0.550000X0.125000X-0.550000X0.125000X0.550000X0*%
%ADD37RoundRect,0.050000X-0.850000X0.850000X-0.850000X-0.850000X0.850000X-0.850000X0.850000X0.850000X0*%
%ADD38O,1.800000X1.800000*%
%ADD39RoundRect,0.050000X-0.550000X2.300000X-0.550000X-2.300000X0.550000X-2.300000X0.550000X2.300000X0*%
%ADD40RoundRect,0.050000X-5.400000X4.700000X-5.400000X-4.700000X5.400000X-4.700000X5.400000X4.700000X0*%
%ADD41RoundRect,0.268750X-0.218750X-0.256250X0.218750X-0.256250X0.218750X0.256250X-0.218750X0.256250X0*%
%ADD42C,1.700000*%
%ADD43RoundRect,0.050000X0.800000X-0.800000X0.800000X0.800000X-0.800000X0.800000X-0.800000X-0.800000X0*%
G04 APERTURE END LIST*
D10*
%TO.C,C4*%
X63175000Y-98500000D03*
X64725000Y-98500000D03*
%TD*%
D11*
%TO.C,C1*%
X81500000Y-40176041D03*
D12*
X81500000Y-45176041D03*
%TD*%
D13*
%TO.C,R22*%
X71750000Y-80925000D03*
X71750000Y-82575000D03*
%TD*%
D14*
%TO.C,JP2*%
X40500000Y-94200000D03*
D15*
X40500000Y-95500000D03*
D16*
X40500000Y-96800000D03*
%TD*%
D10*
%TO.C,C16*%
X41975000Y-70750000D03*
X43525000Y-70750000D03*
%TD*%
D17*
%TO.C,J12*%
X35500000Y-63975000D03*
D18*
X33000000Y-63975000D03*
X30500000Y-63975000D03*
%TD*%
D19*
%TO.C,FB2*%
X48662500Y-92400000D03*
X46537500Y-92400000D03*
%TD*%
D13*
%TO.C,R20*%
X71750000Y-72925000D03*
X71750000Y-74575000D03*
%TD*%
D17*
%TO.C,PT0*%
X83500000Y-64025000D03*
D18*
X81000000Y-64025000D03*
X78500000Y-64025000D03*
X76000000Y-64025000D03*
%TD*%
D17*
%TO.C,PT6*%
X35500000Y-96000000D03*
D18*
X33000000Y-96000000D03*
X30500000Y-96000000D03*
%TD*%
D20*
%TO.C,C10*%
X46600000Y-90775000D03*
X46600000Y-89225000D03*
%TD*%
D21*
%TO.C,R17*%
X71750000Y-63075000D03*
X71750000Y-61425000D03*
%TD*%
D22*
%TO.C,C9*%
X57900000Y-95850000D03*
X57900000Y-97400000D03*
%TD*%
D21*
%TO.C,R9*%
X43000000Y-101075000D03*
X43000000Y-99425000D03*
%TD*%
D20*
%TO.C,C5*%
X61400000Y-86375000D03*
X61400000Y-84825000D03*
%TD*%
D23*
%TO.C,R10*%
X63075000Y-86350000D03*
X64725000Y-86350000D03*
%TD*%
D24*
%TO.C,D2*%
X55837500Y-33900000D03*
X53962500Y-33900000D03*
%TD*%
D25*
%TO.C,FB1*%
X53621320Y-48187500D03*
X53621320Y-50312500D03*
%TD*%
D26*
%TO.C,H2*%
X86000000Y-56000000D03*
%TD*%
D27*
%TO.C,U6*%
X42250000Y-63075000D03*
X42250000Y-63725000D03*
X42250000Y-64375000D03*
X42250000Y-65025000D03*
X42250000Y-65675000D03*
X42250000Y-66325000D03*
X42250000Y-66975000D03*
X42250000Y-67625000D03*
X42250000Y-68275000D03*
X42250000Y-68925000D03*
X49250000Y-68925000D03*
X49250000Y-68275000D03*
X49250000Y-67625000D03*
X49250000Y-66975000D03*
X49250000Y-66325000D03*
X49250000Y-65675000D03*
X49250000Y-65025000D03*
X49250000Y-64375000D03*
X49250000Y-63725000D03*
X49250000Y-63075000D03*
%TD*%
D13*
%TO.C,R16*%
X39750000Y-82325000D03*
X39750000Y-80675000D03*
%TD*%
D28*
%TO.C,Q1*%
X61300000Y-93650000D03*
X63500000Y-94600000D03*
X61300000Y-95550000D03*
%TD*%
D26*
%TO.C,H3*%
X86000000Y-105000000D03*
%TD*%
D17*
%TO.C,PT2*%
X83500000Y-80025000D03*
D18*
X81000000Y-80025000D03*
X78500000Y-80025000D03*
X76000000Y-80025000D03*
%TD*%
D22*
%TO.C,C13*%
X39750000Y-64725000D03*
X39750000Y-66275000D03*
%TD*%
D13*
%TO.C,R24*%
X71750000Y-88925000D03*
X71750000Y-90575000D03*
%TD*%
D23*
%TO.C,R13*%
X61075000Y-90100000D03*
X62725000Y-90100000D03*
%TD*%
D14*
%TO.C,JP1*%
X40500000Y-86200000D03*
D15*
X40500000Y-87500000D03*
D16*
X40500000Y-88800000D03*
%TD*%
D13*
%TO.C,R18*%
X71750000Y-64925000D03*
X71750000Y-66575000D03*
%TD*%
D21*
%TO.C,R23*%
X71750000Y-87075000D03*
X71750000Y-85425000D03*
%TD*%
D10*
%TO.C,C6*%
X61125000Y-88600000D03*
X62675000Y-88600000D03*
%TD*%
D20*
%TO.C,C14*%
X39750000Y-76275000D03*
X39750000Y-74725000D03*
%TD*%
D17*
%TO.C,LC0*%
X76750000Y-104025000D03*
D18*
X74250000Y-104025000D03*
X71750000Y-104025000D03*
X69250000Y-104025000D03*
%TD*%
D29*
%TO.C,D1*%
X65075000Y-28425000D03*
X58275000Y-28425000D03*
%TD*%
D10*
%TO.C,C3*%
X63175000Y-100100000D03*
X64725000Y-100100000D03*
%TD*%
D13*
%TO.C,R26*%
X71750000Y-96925000D03*
X71750000Y-98575000D03*
%TD*%
D21*
%TO.C,R5*%
X51000000Y-101075000D03*
X51000000Y-99425000D03*
%TD*%
D26*
%TO.C,H4*%
X28000000Y-105000000D03*
%TD*%
D22*
%TO.C,C8*%
X59400000Y-95850000D03*
X59400000Y-97400000D03*
%TD*%
D30*
%TO.C,L7*%
X38621320Y-47662320D03*
X38621320Y-26580320D03*
%TD*%
D20*
%TO.C,C12*%
X39750000Y-63275000D03*
X39750000Y-61725000D03*
%TD*%
D31*
%TO.C,IC1*%
X59112000Y-94045000D03*
X59112000Y-92775000D03*
X59112000Y-91505000D03*
X59112000Y-90235000D03*
X59112000Y-88965000D03*
X59112000Y-87695000D03*
X59112000Y-86425000D03*
X59112000Y-85155000D03*
X53688000Y-85155000D03*
X53688000Y-86425000D03*
X53688000Y-87695000D03*
X53688000Y-88965000D03*
X53688000Y-90235000D03*
X53688000Y-91505000D03*
X53688000Y-92775000D03*
X53688000Y-94045000D03*
%TD*%
D26*
%TO.C,H1*%
X28000000Y-56000000D03*
%TD*%
D10*
%TO.C,C7*%
X53625000Y-95850000D03*
X55175000Y-95850000D03*
%TD*%
D23*
%TO.C,R11*%
X63075000Y-84850000D03*
X64725000Y-84850000D03*
%TD*%
%TO.C,R12*%
X62725000Y-91600000D03*
X61075000Y-91600000D03*
%TD*%
D32*
%TO.C,24V1*%
X79871320Y-28096320D03*
D33*
X82371320Y-28096320D03*
%TD*%
D34*
%TO.C,FB3*%
X46537500Y-87600000D03*
X48662500Y-87600000D03*
%TD*%
D21*
%TO.C,R21*%
X71750000Y-79075000D03*
X71750000Y-77425000D03*
%TD*%
D17*
%TO.C,RTD0*%
X35500000Y-72000000D03*
D18*
X33000000Y-72000000D03*
X30500000Y-72000000D03*
%TD*%
D35*
%TO.C,R1*%
X54075000Y-35800000D03*
X55725000Y-35800000D03*
%TD*%
D22*
%TO.C,C15*%
X39750000Y-77725000D03*
X39750000Y-79275000D03*
%TD*%
D20*
%TO.C,C11*%
X48400000Y-90775000D03*
X48400000Y-89225000D03*
%TD*%
D21*
%TO.C,R19*%
X71750000Y-71075000D03*
X71750000Y-69425000D03*
%TD*%
%TO.C,R8*%
X45000000Y-101075000D03*
X45000000Y-99425000D03*
%TD*%
%TO.C,R7*%
X47000000Y-101075000D03*
X47000000Y-99425000D03*
%TD*%
D36*
%TO.C,U5*%
X45000000Y-87850000D03*
X44500000Y-87850000D03*
X44000000Y-87850000D03*
X43500000Y-87850000D03*
X43000000Y-87850000D03*
X43000000Y-92150000D03*
X43500000Y-92150000D03*
X44000000Y-92150000D03*
X44500000Y-92150000D03*
X45000000Y-92150000D03*
%TD*%
D17*
%TO.C,RTD1*%
X35500000Y-80000000D03*
D18*
X33000000Y-80000000D03*
X30500000Y-80000000D03*
%TD*%
D10*
%TO.C,C17*%
X42000000Y-83750000D03*
X43550000Y-83750000D03*
%TD*%
D17*
%TO.C,PT5*%
X35500000Y-87975000D03*
D18*
X33000000Y-87975000D03*
X30500000Y-87975000D03*
%TD*%
D37*
%TO.C,RELAY1*%
X56925000Y-104000000D03*
D38*
X54385000Y-104000000D03*
X51845000Y-104000000D03*
X49305000Y-104000000D03*
X46765000Y-104000000D03*
X44225000Y-104000000D03*
X41685000Y-104000000D03*
X39145000Y-104000000D03*
X36605000Y-104000000D03*
X34065000Y-104000000D03*
%TD*%
D21*
%TO.C,R25*%
X71750000Y-95075000D03*
X71750000Y-93425000D03*
%TD*%
D17*
%TO.C,PT3*%
X83500000Y-88025000D03*
D18*
X81000000Y-88025000D03*
X78500000Y-88025000D03*
X76000000Y-88025000D03*
%TD*%
D21*
%TO.C,R4*%
X53000000Y-101075000D03*
X53000000Y-99425000D03*
%TD*%
D13*
%TO.C,R15*%
X39750000Y-69325000D03*
X39750000Y-67675000D03*
%TD*%
D21*
%TO.C,R14*%
X51800000Y-94225000D03*
X51800000Y-92575000D03*
%TD*%
D17*
%TO.C,PT1*%
X83500000Y-72050000D03*
D18*
X81000000Y-72050000D03*
X78500000Y-72050000D03*
X76000000Y-72050000D03*
%TD*%
D21*
%TO.C,R6*%
X49000000Y-101075000D03*
X49000000Y-99425000D03*
%TD*%
D18*
%TO.C,PT4*%
X76000000Y-96025000D03*
X78500000Y-96025000D03*
X81000000Y-96025000D03*
D17*
X83500000Y-96025000D03*
%TD*%
D27*
%TO.C,U7*%
X42250000Y-76075000D03*
X42250000Y-76725000D03*
X42250000Y-77375000D03*
X42250000Y-78025000D03*
X42250000Y-78675000D03*
X42250000Y-79325000D03*
X42250000Y-79975000D03*
X42250000Y-80625000D03*
X42250000Y-81275000D03*
X42250000Y-81925000D03*
X49250000Y-81925000D03*
X49250000Y-81275000D03*
X49250000Y-80625000D03*
X49250000Y-79975000D03*
X49250000Y-79325000D03*
X49250000Y-78675000D03*
X49250000Y-78025000D03*
X49250000Y-77375000D03*
X49250000Y-76725000D03*
X49250000Y-76075000D03*
%TD*%
D39*
%TO.C,U4*%
X64325000Y-35875000D03*
X66025000Y-35875000D03*
D40*
X67725000Y-45025000D03*
D39*
X67725000Y-35875000D03*
X69425000Y-35875000D03*
X71125000Y-35875000D03*
%TD*%
D41*
%TO.C,L6*%
X63162500Y-96900000D03*
X64737500Y-96900000D03*
%TD*%
D42*
%TO.C,C2*%
X56500000Y-41000000D03*
D43*
X56500000Y-44500000D03*
%TD*%
D37*
%TO.C,P1*%
X32900000Y-57290000D03*
D38*
X32900000Y-54750000D03*
X35440000Y-57290000D03*
X35440000Y-54750000D03*
X37980000Y-57290000D03*
X37980000Y-54750000D03*
X40520000Y-57290000D03*
X40520000Y-54750000D03*
X43060000Y-57290000D03*
X43060000Y-54750000D03*
X45600000Y-57290000D03*
X45600000Y-54750000D03*
X48140000Y-57290000D03*
X48140000Y-54750000D03*
X50680000Y-57290000D03*
X50680000Y-54750000D03*
X53220000Y-57290000D03*
X53220000Y-54750000D03*
X55760000Y-57290000D03*
X55760000Y-54750000D03*
X58300000Y-57290000D03*
X58300000Y-54750000D03*
X60840000Y-57290000D03*
X60840000Y-54750000D03*
X63380000Y-57290000D03*
X63380000Y-54750000D03*
X65920000Y-57290000D03*
X65920000Y-54750000D03*
X68460000Y-57290000D03*
X68460000Y-54750000D03*
X71000000Y-57290000D03*
X71000000Y-54750000D03*
X73540000Y-57290000D03*
X73540000Y-54750000D03*
X76080000Y-57290000D03*
X76080000Y-54750000D03*
X78620000Y-57290000D03*
X78620000Y-54750000D03*
X81160000Y-57290000D03*
X81160000Y-54750000D03*
%TD*%
M02*
