%TF.GenerationSoftware,KiCad,Pcbnew,(6.0.9-0)*%
%TF.CreationDate,2023-01-29T21:41:42+00:00*%
%TF.ProjectId,FiringPi,46697269-6e67-4506-992e-6b696361645f,rev?*%
%TF.SameCoordinates,Original*%
%TF.FileFunction,Legend,Top*%
%TF.FilePolarity,Positive*%
%FSLAX46Y46*%
G04 Gerber Fmt 4.6, Leading zero omitted, Abs format (unit mm)*
G04 Created by KiCad (PCBNEW (6.0.9-0)) date 2023-01-29 21:41:42*
%MOMM*%
%LPD*%
G01*
G04 APERTURE LIST*
%ADD10C,0.000000*%
%ADD11C,0.150000*%
%ADD12C,0.300000*%
%ADD13C,0.200000*%
%ADD14C,0.120000*%
G04 APERTURE END LIST*
D10*
G36*
X69788167Y-63094134D02*
G01*
X68920334Y-63094134D01*
X68920334Y-63644467D01*
X69339433Y-63648700D01*
X69756417Y-63655050D01*
X69756417Y-63803217D01*
X69339433Y-63809567D01*
X68920334Y-63813800D01*
X68920334Y-64427633D01*
X69788167Y-64427633D01*
X69788167Y-64596967D01*
X69263233Y-64596967D01*
X69057453Y-64595842D01*
X68886996Y-64592734D01*
X68769719Y-64588037D01*
X68736605Y-64585218D01*
X68727405Y-64583712D01*
X68723483Y-64582150D01*
X68721921Y-64576691D01*
X68720416Y-64562980D01*
X68717596Y-64512532D01*
X68715074Y-64434252D01*
X68712900Y-64331590D01*
X68709791Y-64066907D01*
X68708666Y-63746067D01*
X68708666Y-62924800D01*
X69788167Y-62924800D01*
X69788167Y-63094134D01*
G37*
G36*
X60336444Y-67045789D02*
G01*
X60419536Y-67050977D01*
X60458627Y-67054881D01*
X60495781Y-67059638D01*
X60530771Y-67065232D01*
X60563370Y-67071648D01*
X60593352Y-67078870D01*
X60620491Y-67086882D01*
X60644560Y-67095670D01*
X60665334Y-67105217D01*
X60673208Y-67109631D01*
X60680954Y-67114532D01*
X60688566Y-67119911D01*
X60696038Y-67125759D01*
X60703366Y-67132068D01*
X60710545Y-67138829D01*
X60717570Y-67146032D01*
X60724435Y-67153669D01*
X60731136Y-67161730D01*
X60737668Y-67170208D01*
X60744025Y-67179092D01*
X60750203Y-67188374D01*
X60756196Y-67198046D01*
X60762000Y-67208098D01*
X60773019Y-67229306D01*
X60783220Y-67251929D01*
X60792561Y-67275894D01*
X60801003Y-67301130D01*
X60808506Y-67327566D01*
X60815030Y-67355131D01*
X60820533Y-67383753D01*
X60824975Y-67413361D01*
X60828317Y-67443883D01*
X60841017Y-67581467D01*
X60743650Y-67581467D01*
X60724643Y-67581444D01*
X60707977Y-67581186D01*
X60693463Y-67580407D01*
X60686954Y-67579732D01*
X60680911Y-67578821D01*
X60675312Y-67577637D01*
X60670133Y-67576144D01*
X60665350Y-67574307D01*
X60660939Y-67572091D01*
X60656877Y-67569458D01*
X60653141Y-67566375D01*
X60649706Y-67562805D01*
X60646548Y-67558713D01*
X60643645Y-67554062D01*
X60640973Y-67548818D01*
X60638508Y-67542944D01*
X60636226Y-67536405D01*
X60634103Y-67529165D01*
X60632117Y-67521189D01*
X60630243Y-67512441D01*
X60628457Y-67502885D01*
X60625059Y-67481208D01*
X60621731Y-67455872D01*
X60614534Y-67393083D01*
X60613570Y-67383519D01*
X60612285Y-67373918D01*
X60610701Y-67364341D01*
X60608845Y-67354851D01*
X60606741Y-67345510D01*
X60604413Y-67336380D01*
X60601887Y-67327523D01*
X60599188Y-67319000D01*
X60596339Y-67310874D01*
X60593367Y-67303208D01*
X60590295Y-67296062D01*
X60587149Y-67289499D01*
X60583954Y-67283581D01*
X60580733Y-67278370D01*
X60577513Y-67273928D01*
X60574317Y-67270316D01*
X60566100Y-67263787D01*
X60555062Y-67257690D01*
X60525249Y-67246793D01*
X60486327Y-67237621D01*
X60439743Y-67230166D01*
X60386946Y-67224423D01*
X60329383Y-67220385D01*
X60268503Y-67218046D01*
X60205752Y-67217400D01*
X60142581Y-67218441D01*
X60080435Y-67221162D01*
X60020764Y-67225558D01*
X59965015Y-67231621D01*
X59914636Y-67239347D01*
X59871075Y-67248728D01*
X59835781Y-67259759D01*
X59821686Y-67265891D01*
X59810200Y-67272433D01*
X59802268Y-67277956D01*
X59794737Y-67283846D01*
X59787601Y-67290164D01*
X59780852Y-67296965D01*
X59774483Y-67304309D01*
X59768487Y-67312254D01*
X59762855Y-67320858D01*
X59757581Y-67330179D01*
X59752658Y-67340275D01*
X59748078Y-67351204D01*
X59743833Y-67363024D01*
X59739916Y-67375794D01*
X59736321Y-67389572D01*
X59733039Y-67404416D01*
X59730063Y-67420384D01*
X59727386Y-67437533D01*
X59725000Y-67455923D01*
X59722899Y-67475612D01*
X59721074Y-67496656D01*
X59719519Y-67519116D01*
X59717186Y-67568511D01*
X59715843Y-67624263D01*
X59715431Y-67686836D01*
X59715889Y-67756695D01*
X59717160Y-67834306D01*
X59719184Y-67920133D01*
X59723591Y-68080797D01*
X59729436Y-68208496D01*
X59733162Y-68261340D01*
X59737564Y-68307570D01*
X59742747Y-68347730D01*
X59748817Y-68382360D01*
X59755879Y-68412006D01*
X59764039Y-68437208D01*
X59773402Y-68458509D01*
X59784073Y-68476453D01*
X59796158Y-68491581D01*
X59809762Y-68504437D01*
X59824991Y-68515562D01*
X59841951Y-68525500D01*
X59859238Y-68533137D01*
X59879248Y-68540164D01*
X59901826Y-68546564D01*
X59926815Y-68552322D01*
X59954062Y-68557423D01*
X59983411Y-68561851D01*
X60014708Y-68565591D01*
X60047796Y-68568627D01*
X60082522Y-68570944D01*
X60118729Y-68572526D01*
X60156264Y-68573357D01*
X60194971Y-68573423D01*
X60234694Y-68572707D01*
X60275280Y-68571194D01*
X60316573Y-68568870D01*
X60358417Y-68565717D01*
X60401650Y-68561979D01*
X60440260Y-68557738D01*
X60474536Y-68552741D01*
X60504765Y-68546733D01*
X60518452Y-68543270D01*
X60531236Y-68539460D01*
X60543152Y-68535270D01*
X60554238Y-68530668D01*
X60564527Y-68525622D01*
X60574058Y-68520102D01*
X60582866Y-68514074D01*
X60590986Y-68507508D01*
X60598455Y-68500372D01*
X60605309Y-68492633D01*
X60611584Y-68484260D01*
X60617316Y-68475221D01*
X60622541Y-68465484D01*
X60627295Y-68455018D01*
X60631615Y-68443791D01*
X60635535Y-68431771D01*
X60642324Y-68405225D01*
X60647950Y-68375126D01*
X60652701Y-68341219D01*
X60656867Y-68303250D01*
X60671684Y-68150850D01*
X60845250Y-68163550D01*
X60841017Y-68326534D01*
X60839655Y-68360757D01*
X60837168Y-68393552D01*
X60833571Y-68424876D01*
X60828879Y-68454691D01*
X60823109Y-68482955D01*
X60816274Y-68509629D01*
X60808392Y-68534672D01*
X60799478Y-68558044D01*
X60789546Y-68579704D01*
X60778613Y-68599612D01*
X60766693Y-68617729D01*
X60753804Y-68634012D01*
X60739959Y-68648423D01*
X60725175Y-68660921D01*
X60709467Y-68671466D01*
X60692850Y-68680017D01*
X60661737Y-68691768D01*
X60623038Y-68702391D01*
X60577746Y-68711847D01*
X60526857Y-68720101D01*
X60471368Y-68727115D01*
X60412272Y-68732851D01*
X60350566Y-68737272D01*
X60287244Y-68740342D01*
X60223302Y-68742022D01*
X60159736Y-68742277D01*
X60097540Y-68741067D01*
X60037709Y-68738357D01*
X59981240Y-68734110D01*
X59929127Y-68728287D01*
X59882365Y-68720851D01*
X59841951Y-68711767D01*
X59802130Y-68700257D01*
X59765874Y-68687752D01*
X59749020Y-68681032D01*
X59732980Y-68673950D01*
X59717730Y-68666470D01*
X59703243Y-68658552D01*
X59689493Y-68650160D01*
X59676457Y-68641257D01*
X59664107Y-68631803D01*
X59652418Y-68621763D01*
X59641365Y-68611097D01*
X59630921Y-68599770D01*
X59621063Y-68587742D01*
X59611763Y-68574977D01*
X59602996Y-68561437D01*
X59594738Y-68547084D01*
X59586961Y-68531880D01*
X59579641Y-68515789D01*
X59572752Y-68498772D01*
X59566268Y-68480792D01*
X59560164Y-68461812D01*
X59554415Y-68441793D01*
X59543876Y-68398489D01*
X59534447Y-68350582D01*
X59525923Y-68297769D01*
X59518100Y-68239750D01*
X59512736Y-68187499D01*
X59508526Y-68128431D01*
X59503416Y-67994911D01*
X59502474Y-67849337D01*
X59505400Y-67701852D01*
X59511899Y-67562603D01*
X59521672Y-67441734D01*
X59527694Y-67391362D01*
X59534422Y-67349390D01*
X59541820Y-67317086D01*
X59549850Y-67295717D01*
X59557531Y-67281316D01*
X59565510Y-67267473D01*
X59573810Y-67254177D01*
X59582456Y-67241415D01*
X59591473Y-67229176D01*
X59600884Y-67217447D01*
X59610715Y-67206217D01*
X59620990Y-67195473D01*
X59631733Y-67185203D01*
X59642969Y-67175396D01*
X59654721Y-67166039D01*
X59667015Y-67157121D01*
X59679875Y-67148628D01*
X59693325Y-67140551D01*
X59707390Y-67132875D01*
X59722094Y-67125590D01*
X59737462Y-67118683D01*
X59753517Y-67112142D01*
X59770285Y-67105955D01*
X59787789Y-67100111D01*
X59806055Y-67094597D01*
X59825106Y-67089401D01*
X59844968Y-67084511D01*
X59865664Y-67079916D01*
X59909656Y-67071559D01*
X59957280Y-67064235D01*
X60008729Y-67057848D01*
X60064200Y-67052300D01*
X60156966Y-67046326D01*
X60248317Y-67044197D01*
X60336444Y-67045789D01*
G37*
G36*
X51789573Y-72599948D02*
G01*
X51795201Y-72600919D01*
X51807084Y-72604316D01*
X52213252Y-72878259D01*
X53053007Y-73462360D01*
X53891571Y-74052414D01*
X54294167Y-74344216D01*
X54300380Y-74351466D01*
X54306314Y-74359679D01*
X54311963Y-74368787D01*
X54317322Y-74378723D01*
X54327147Y-74400813D01*
X54335740Y-74425410D01*
X54343056Y-74451979D01*
X54349048Y-74479984D01*
X54353669Y-74508889D01*
X54356873Y-74538156D01*
X54358614Y-74567249D01*
X54358845Y-74595632D01*
X54357520Y-74622769D01*
X54354591Y-74648123D01*
X54350013Y-74671158D01*
X54347091Y-74681638D01*
X54343739Y-74691338D01*
X54339952Y-74700189D01*
X54335723Y-74708125D01*
X54331047Y-74715079D01*
X54325917Y-74720984D01*
X54317597Y-74729510D01*
X54313705Y-74733314D01*
X54309955Y-74736805D01*
X54306322Y-74739978D01*
X54302779Y-74742829D01*
X54299298Y-74745351D01*
X54295854Y-74747541D01*
X54292419Y-74749393D01*
X54288966Y-74750901D01*
X54285469Y-74752062D01*
X54281901Y-74752870D01*
X54278236Y-74753319D01*
X54274446Y-74753406D01*
X54270505Y-74753124D01*
X54266386Y-74752469D01*
X54262062Y-74751435D01*
X54257507Y-74750019D01*
X54252694Y-74748214D01*
X54247596Y-74746015D01*
X54242187Y-74743418D01*
X54236439Y-74740418D01*
X54230326Y-74737009D01*
X54223821Y-74733187D01*
X54216898Y-74728946D01*
X54209529Y-74724282D01*
X54193349Y-74713662D01*
X54175066Y-74701287D01*
X54154467Y-74687116D01*
X52928917Y-73837540D01*
X51817667Y-73059400D01*
X51803224Y-73047078D01*
X51790027Y-73034645D01*
X51778033Y-73021988D01*
X51772473Y-73015541D01*
X51767198Y-73008997D01*
X51762202Y-73002340D01*
X51757480Y-72995559D01*
X51753026Y-72988637D01*
X51748834Y-72981563D01*
X51744900Y-72974320D01*
X51741218Y-72966897D01*
X51737783Y-72959278D01*
X51734588Y-72951450D01*
X51731629Y-72943398D01*
X51728901Y-72935110D01*
X51726397Y-72926570D01*
X51724112Y-72917765D01*
X51722042Y-72908681D01*
X51720180Y-72899304D01*
X51717060Y-72879615D01*
X51714708Y-72858587D01*
X51713082Y-72836108D01*
X51712139Y-72812066D01*
X51711834Y-72786350D01*
X51712183Y-72759981D01*
X51713235Y-72735641D01*
X51715001Y-72713322D01*
X51717489Y-72693018D01*
X51720709Y-72674724D01*
X51724670Y-72658432D01*
X51729382Y-72644138D01*
X51734853Y-72631833D01*
X51737876Y-72626426D01*
X51741093Y-72621514D01*
X51744504Y-72617096D01*
X51748111Y-72613172D01*
X51751915Y-72609741D01*
X51755917Y-72606802D01*
X51760118Y-72604355D01*
X51764519Y-72602398D01*
X51769122Y-72600932D01*
X51773928Y-72599954D01*
X51778937Y-72599465D01*
X51784152Y-72599463D01*
X51789573Y-72599948D01*
G37*
G36*
X67489599Y-62907371D02*
G01*
X67577011Y-62910988D01*
X67658271Y-62917656D01*
X67732189Y-62927202D01*
X67766023Y-62933000D01*
X67797574Y-62939451D01*
X67826695Y-62946536D01*
X67853236Y-62954231D01*
X67877049Y-62962515D01*
X67897984Y-62971367D01*
X67905876Y-62975456D01*
X67913672Y-62980167D01*
X67921360Y-62985479D01*
X67928932Y-62991368D01*
X67936376Y-62997812D01*
X67943683Y-63004788D01*
X67950843Y-63012275D01*
X67957846Y-63020249D01*
X67964681Y-63028688D01*
X67971339Y-63037570D01*
X67977809Y-63046871D01*
X67984081Y-63056571D01*
X67995992Y-63077073D01*
X68006992Y-63098896D01*
X68017000Y-63121860D01*
X68025935Y-63145785D01*
X68033716Y-63170492D01*
X68040264Y-63195800D01*
X68045496Y-63221529D01*
X68049334Y-63247501D01*
X68051695Y-63273534D01*
X68052298Y-63286518D01*
X68052501Y-63299450D01*
X68052501Y-63411634D01*
X67957250Y-63411634D01*
X67925810Y-63411489D01*
X67913090Y-63411145D01*
X67902184Y-63410476D01*
X67892952Y-63409373D01*
X67888920Y-63408624D01*
X67885254Y-63407727D01*
X67881938Y-63406667D01*
X67878953Y-63405430D01*
X67876281Y-63404003D01*
X67873906Y-63402373D01*
X67871810Y-63400526D01*
X67869976Y-63398448D01*
X67868386Y-63396126D01*
X67867023Y-63393547D01*
X67865869Y-63390696D01*
X67864907Y-63387560D01*
X67864119Y-63384126D01*
X67863488Y-63380380D01*
X67862628Y-63371897D01*
X67862186Y-63362003D01*
X67862000Y-63337550D01*
X67861853Y-63329352D01*
X67861421Y-63320683D01*
X67860716Y-63311617D01*
X67859751Y-63302228D01*
X67857089Y-63282781D01*
X67853533Y-63262938D01*
X67849184Y-63243292D01*
X67846743Y-63233730D01*
X67844140Y-63224441D01*
X67841389Y-63215499D01*
X67838501Y-63206978D01*
X67835490Y-63198954D01*
X67832366Y-63191500D01*
X67827329Y-63179849D01*
X67822432Y-63169432D01*
X67817516Y-63160144D01*
X67815002Y-63155890D01*
X67812424Y-63151879D01*
X67809762Y-63148097D01*
X67806996Y-63144532D01*
X67804107Y-63141169D01*
X67801076Y-63137997D01*
X67797881Y-63135001D01*
X67794504Y-63132168D01*
X67790925Y-63129487D01*
X67787123Y-63126942D01*
X67783080Y-63124521D01*
X67778775Y-63122211D01*
X67774188Y-63119999D01*
X67769301Y-63117872D01*
X67764092Y-63115815D01*
X67758543Y-63113817D01*
X67746344Y-63109942D01*
X67732545Y-63106142D01*
X67716987Y-63102311D01*
X67699514Y-63098343D01*
X67679966Y-63094134D01*
X67646827Y-63088349D01*
X67608326Y-63083674D01*
X67565355Y-63080079D01*
X67518802Y-63077531D01*
X67418513Y-63075456D01*
X67314577Y-63077200D01*
X67214114Y-63082517D01*
X67124243Y-63091157D01*
X67085503Y-63096646D01*
X67052082Y-63102873D01*
X67024867Y-63109807D01*
X67004750Y-63117417D01*
X66994143Y-63122765D01*
X66984139Y-63128156D01*
X66974720Y-63133681D01*
X66965869Y-63139431D01*
X66957568Y-63145500D01*
X66949800Y-63151978D01*
X66942547Y-63158957D01*
X66935793Y-63166530D01*
X66929519Y-63174788D01*
X66923708Y-63183824D01*
X66918343Y-63193728D01*
X66913407Y-63204593D01*
X66908881Y-63216511D01*
X66904748Y-63229573D01*
X66900991Y-63243871D01*
X66897593Y-63259498D01*
X66894536Y-63276545D01*
X66891803Y-63295104D01*
X66889376Y-63315266D01*
X66887237Y-63337124D01*
X66885370Y-63360770D01*
X66883757Y-63386295D01*
X66882380Y-63413791D01*
X66881222Y-63443350D01*
X66879494Y-63509026D01*
X66878432Y-63584055D01*
X66877897Y-63669174D01*
X66877750Y-63765117D01*
X66878742Y-64038630D01*
X66880652Y-64127885D01*
X66884100Y-64192683D01*
X66886540Y-64217601D01*
X66889532Y-64238432D01*
X66893132Y-64255852D01*
X66897395Y-64270537D01*
X66902378Y-64283164D01*
X66908136Y-64294408D01*
X66922200Y-64315450D01*
X66926951Y-64321494D01*
X66932428Y-64327687D01*
X66938562Y-64333979D01*
X66945285Y-64340321D01*
X66952529Y-64346663D01*
X66960226Y-64352955D01*
X66968307Y-64359148D01*
X66976704Y-64365192D01*
X66985350Y-64371037D01*
X66994175Y-64376635D01*
X67003112Y-64381935D01*
X67012092Y-64386888D01*
X67021048Y-64391443D01*
X67029910Y-64395553D01*
X67038611Y-64399166D01*
X67047083Y-64402234D01*
X67070364Y-64408210D01*
X67101372Y-64413437D01*
X67139003Y-64417907D01*
X67182153Y-64421614D01*
X67280595Y-64426716D01*
X67387867Y-64428692D01*
X67495139Y-64427493D01*
X67593580Y-64423070D01*
X67636730Y-64419633D01*
X67674361Y-64415372D01*
X67705369Y-64410280D01*
X67728650Y-64404350D01*
X67737599Y-64401210D01*
X67746193Y-64397736D01*
X67754437Y-64393915D01*
X67762335Y-64389736D01*
X67769892Y-64385186D01*
X67777112Y-64380254D01*
X67784001Y-64374927D01*
X67790562Y-64369194D01*
X67796802Y-64363042D01*
X67802723Y-64356459D01*
X67808331Y-64349434D01*
X67813631Y-64341954D01*
X67818627Y-64334008D01*
X67823323Y-64325582D01*
X67827725Y-64316667D01*
X67831837Y-64307248D01*
X67835664Y-64297315D01*
X67839211Y-64286855D01*
X67842481Y-64275856D01*
X67845480Y-64264307D01*
X67848212Y-64252195D01*
X67850683Y-64239508D01*
X67852896Y-64226234D01*
X67854856Y-64212362D01*
X67856569Y-64197879D01*
X67858037Y-64182773D01*
X67859268Y-64167032D01*
X67860264Y-64150644D01*
X67861572Y-64115879D01*
X67862000Y-64078384D01*
X67862000Y-63919633D01*
X67332834Y-63919633D01*
X67332834Y-63750300D01*
X68052501Y-63750300D01*
X68052501Y-63968317D01*
X68051745Y-64039807D01*
X68049433Y-64105958D01*
X68045496Y-64166937D01*
X68039867Y-64222912D01*
X68032476Y-64274050D01*
X68023256Y-64320519D01*
X68012138Y-64362485D01*
X67999054Y-64400117D01*
X67983937Y-64433581D01*
X67966717Y-64463046D01*
X67947327Y-64488679D01*
X67925699Y-64510646D01*
X67901763Y-64529117D01*
X67875453Y-64544257D01*
X67846699Y-64556234D01*
X67815434Y-64565217D01*
X67789791Y-64570223D01*
X67760012Y-64574907D01*
X67689955Y-64583208D01*
X67609083Y-64589922D01*
X67521217Y-64594850D01*
X67430175Y-64597794D01*
X67339779Y-64598554D01*
X67253847Y-64596934D01*
X67176200Y-64592733D01*
X67097921Y-64585062D01*
X67061907Y-64580087D01*
X67027905Y-64574221D01*
X66995865Y-64567366D01*
X66965734Y-64559424D01*
X66937459Y-64550296D01*
X66910988Y-64539883D01*
X66886270Y-64528087D01*
X66863250Y-64514811D01*
X66841878Y-64499954D01*
X66822101Y-64483419D01*
X66803866Y-64465108D01*
X66787121Y-64444921D01*
X66771815Y-64422761D01*
X66757894Y-64398529D01*
X66745306Y-64372127D01*
X66733999Y-64343456D01*
X66723921Y-64312417D01*
X66715019Y-64278913D01*
X66707241Y-64242844D01*
X66700534Y-64204113D01*
X66694847Y-64162621D01*
X66690127Y-64118270D01*
X66686322Y-64070960D01*
X66683379Y-64020594D01*
X66679871Y-63910299D01*
X66679184Y-63786597D01*
X66680900Y-63648700D01*
X66683343Y-63531316D01*
X66686159Y-63437100D01*
X66689718Y-63362429D01*
X66694394Y-63303683D01*
X66700558Y-63257241D01*
X66704314Y-63237502D01*
X66708582Y-63219480D01*
X66713408Y-63202723D01*
X66718839Y-63186779D01*
X66731700Y-63155517D01*
X66739377Y-63139404D01*
X66747349Y-63123994D01*
X66755654Y-63109272D01*
X66764326Y-63095221D01*
X66773401Y-63081826D01*
X66782915Y-63069071D01*
X66792904Y-63056940D01*
X66803402Y-63045417D01*
X66814446Y-63034487D01*
X66826071Y-63024132D01*
X66838314Y-63014338D01*
X66851209Y-63005089D01*
X66864792Y-62996368D01*
X66879100Y-62988160D01*
X66894167Y-62980449D01*
X66910029Y-62973219D01*
X66926723Y-62966454D01*
X66944282Y-62960138D01*
X66962745Y-62954256D01*
X66982145Y-62948791D01*
X67002518Y-62943727D01*
X67023901Y-62939049D01*
X67046329Y-62934741D01*
X67069838Y-62930786D01*
X67094462Y-62927170D01*
X67120239Y-62923876D01*
X67175390Y-62918190D01*
X67235576Y-62913601D01*
X67301083Y-62909984D01*
X67397226Y-62906978D01*
X67489599Y-62907371D01*
G37*
G36*
X65137850Y-62929034D02*
G01*
X65423467Y-62933730D01*
X65517808Y-62936847D01*
X65587642Y-62941204D01*
X65638822Y-62947348D01*
X65659247Y-62951260D01*
X65677203Y-62955823D01*
X65693424Y-62961105D01*
X65708639Y-62967175D01*
X65738984Y-62981950D01*
X65757757Y-62992737D01*
X65775963Y-63004444D01*
X65793580Y-63017050D01*
X65810587Y-63030534D01*
X65826960Y-63044874D01*
X65842680Y-63060048D01*
X65857723Y-63076034D01*
X65872069Y-63092811D01*
X65885696Y-63110356D01*
X65898581Y-63128649D01*
X65910704Y-63147668D01*
X65922042Y-63167390D01*
X65932574Y-63187795D01*
X65942279Y-63208859D01*
X65951133Y-63230563D01*
X65959117Y-63252884D01*
X65967579Y-63284659D01*
X65974723Y-63327401D01*
X65980571Y-63379625D01*
X65985145Y-63439845D01*
X65990557Y-63578333D01*
X65991131Y-63730986D01*
X65987043Y-63885920D01*
X65978464Y-64031255D01*
X65972546Y-64096609D01*
X65965570Y-64155109D01*
X65957559Y-64205267D01*
X65948533Y-64245600D01*
X65939331Y-64276209D01*
X65929186Y-64305330D01*
X65918098Y-64332962D01*
X65906068Y-64359106D01*
X65893095Y-64383762D01*
X65879180Y-64406930D01*
X65864322Y-64428609D01*
X65848521Y-64448800D01*
X65831778Y-64467503D01*
X65814092Y-64484717D01*
X65795464Y-64500444D01*
X65775893Y-64514681D01*
X65755379Y-64527431D01*
X65733923Y-64538692D01*
X65711524Y-64548465D01*
X65688183Y-64556750D01*
X65676905Y-64559526D01*
X65661456Y-64562286D01*
X65618829Y-64567697D01*
X65561865Y-64572861D01*
X65492127Y-64577652D01*
X65411177Y-64581948D01*
X65320578Y-64585623D01*
X65221893Y-64588554D01*
X65116684Y-64590617D01*
X64623500Y-64601200D01*
X64623500Y-64433983D01*
X64814001Y-64433983D01*
X65180184Y-64423400D01*
X65273420Y-64420101D01*
X65353784Y-64416455D01*
X65422290Y-64412313D01*
X65479957Y-64407525D01*
X65527801Y-64401944D01*
X65566839Y-64395421D01*
X65598088Y-64387806D01*
X65611110Y-64383542D01*
X65622566Y-64378950D01*
X65640117Y-64370817D01*
X65648379Y-64366578D01*
X65656313Y-64362203D01*
X65663929Y-64357674D01*
X65671238Y-64352975D01*
X65678250Y-64348089D01*
X65684975Y-64343000D01*
X65691425Y-64337691D01*
X65697609Y-64332144D01*
X65703538Y-64326345D01*
X65709222Y-64320275D01*
X65714672Y-64313918D01*
X65719899Y-64307258D01*
X65724912Y-64300278D01*
X65729723Y-64292961D01*
X65734342Y-64285290D01*
X65738778Y-64277249D01*
X65743044Y-64268822D01*
X65747148Y-64259991D01*
X65751103Y-64250740D01*
X65754917Y-64241052D01*
X65758602Y-64230911D01*
X65762168Y-64220299D01*
X65768984Y-64197599D01*
X65775450Y-64172819D01*
X65781650Y-64145825D01*
X65787667Y-64116483D01*
X65793800Y-64077649D01*
X65798730Y-64031031D01*
X65805129Y-63919435D01*
X65807163Y-63791666D01*
X65805129Y-63657696D01*
X65799325Y-63527496D01*
X65790048Y-63411038D01*
X65784201Y-63361078D01*
X65777596Y-63318293D01*
X65770273Y-63283930D01*
X65762267Y-63259233D01*
X65750552Y-63234126D01*
X65744718Y-63222651D01*
X65738794Y-63211865D01*
X65732698Y-63201745D01*
X65726353Y-63192270D01*
X65719677Y-63183417D01*
X65712591Y-63175162D01*
X65705016Y-63167484D01*
X65696870Y-63160361D01*
X65688075Y-63153769D01*
X65678551Y-63147687D01*
X65668217Y-63142091D01*
X65656995Y-63136960D01*
X65644803Y-63132270D01*
X65631563Y-63128000D01*
X65617194Y-63124127D01*
X65601616Y-63120628D01*
X65584750Y-63117481D01*
X65566516Y-63114664D01*
X65546834Y-63112153D01*
X65525625Y-63109927D01*
X65502807Y-63107963D01*
X65478303Y-63106238D01*
X65423911Y-63103418D01*
X65361811Y-63101286D01*
X65291365Y-63099662D01*
X65211933Y-63098367D01*
X64814001Y-63089900D01*
X64814001Y-64433983D01*
X64623500Y-64433983D01*
X64623500Y-62920567D01*
X65137850Y-62929034D01*
G37*
G36*
X62909001Y-67221634D02*
G01*
X62041168Y-67221634D01*
X62041168Y-67771967D01*
X62460267Y-67776200D01*
X62877250Y-67782550D01*
X62883600Y-67862983D01*
X62889950Y-67941300D01*
X62041168Y-67941300D01*
X62041168Y-68555133D01*
X62909001Y-68555133D01*
X62909001Y-68724467D01*
X61850667Y-68724467D01*
X61850667Y-67052300D01*
X62909001Y-67052300D01*
X62909001Y-67221634D01*
G37*
G36*
X65815184Y-64982200D02*
G01*
X65904084Y-64988550D01*
X65910434Y-65820400D01*
X65914667Y-66650133D01*
X65724167Y-66650133D01*
X65724167Y-64975850D01*
X65815184Y-64982200D01*
G37*
G36*
X58718000Y-64596967D02*
G01*
X58527501Y-64596967D01*
X58523267Y-63845550D01*
X58516917Y-63092017D01*
X58210001Y-63839200D01*
X57903084Y-64586383D01*
X57805717Y-64592733D01*
X57710467Y-64599084D01*
X57403550Y-63866717D01*
X57098751Y-63134350D01*
X57092400Y-63864600D01*
X57088167Y-64596967D01*
X56997150Y-64596967D01*
X56978278Y-64596677D01*
X56960076Y-64595842D01*
X56943014Y-64594511D01*
X56927565Y-64592734D01*
X56914199Y-64590559D01*
X56908445Y-64589338D01*
X56903389Y-64588037D01*
X56899089Y-64586662D01*
X56895604Y-64585218D01*
X56892994Y-64583712D01*
X56891317Y-64582150D01*
X56889755Y-64576691D01*
X56888249Y-64562980D01*
X56885430Y-64512532D01*
X56882908Y-64434252D01*
X56880734Y-64331590D01*
X56877625Y-64066907D01*
X56876501Y-63746067D01*
X56876501Y-62924800D01*
X57225751Y-62924800D01*
X57511501Y-63623300D01*
X57622659Y-63893010D01*
X57714965Y-64112515D01*
X57779093Y-64259392D01*
X57797676Y-64298587D01*
X57803087Y-64308398D01*
X57805717Y-64311217D01*
X57831051Y-64253075D01*
X57894088Y-64103254D01*
X57984906Y-63884378D01*
X58093584Y-63619067D01*
X58372984Y-62935384D01*
X58546550Y-62929034D01*
X58718000Y-62922683D01*
X58718000Y-64596967D01*
G37*
G36*
X61042100Y-65066867D02*
G01*
X61048450Y-65147300D01*
X60608183Y-65151534D01*
X60167917Y-65157884D01*
X60161567Y-65439400D01*
X60155217Y-65718800D01*
X61004000Y-65718800D01*
X61004000Y-65888133D01*
X60157334Y-65888133D01*
X60157334Y-66480800D01*
X60597601Y-66485033D01*
X61035750Y-66491383D01*
X61042100Y-66571817D01*
X61048450Y-66650133D01*
X59966833Y-66650133D01*
X59971067Y-65820400D01*
X59977417Y-64988550D01*
X61035750Y-64988550D01*
X61042100Y-65066867D01*
G37*
G36*
X59818667Y-69867467D02*
G01*
X60301267Y-69863233D01*
X60781750Y-69856883D01*
X60788100Y-69492816D01*
X60792334Y-69126633D01*
X60982834Y-69126633D01*
X60982834Y-70798800D01*
X60792334Y-70798800D01*
X60792334Y-70036800D01*
X59818667Y-70036800D01*
X59818667Y-70798800D01*
X59628167Y-70798800D01*
X59628167Y-69126633D01*
X59818667Y-69126633D01*
X59818667Y-69867467D01*
G37*
G36*
X63798000Y-64596967D02*
G01*
X63607501Y-64596967D01*
X63607501Y-62924800D01*
X63798000Y-62924800D01*
X63798000Y-64596967D01*
G37*
G36*
X57299834Y-66650133D02*
G01*
X57109334Y-66650133D01*
X57109334Y-64977967D01*
X57299834Y-64977967D01*
X57299834Y-66650133D01*
G37*
G36*
X51791231Y-71572160D02*
G01*
X51798089Y-71574124D01*
X51816716Y-71581805D01*
X51842351Y-71594800D01*
X51875545Y-71613485D01*
X51916850Y-71638234D01*
X51966818Y-71669424D01*
X52026001Y-71707428D01*
X52094951Y-71752623D01*
X52264358Y-71866084D01*
X52479456Y-72012808D01*
X52744660Y-72195796D01*
X53064384Y-72418050D01*
X53589119Y-72785887D01*
X53977726Y-73063633D01*
X54223457Y-73246130D01*
X54290637Y-73300047D01*
X54319567Y-73328216D01*
X54324530Y-73337108D01*
X54329105Y-73346369D01*
X54333301Y-73356071D01*
X54337129Y-73366284D01*
X54340597Y-73377079D01*
X54343715Y-73388529D01*
X54346491Y-73400705D01*
X54348936Y-73413677D01*
X54351058Y-73427518D01*
X54352867Y-73442297D01*
X54354373Y-73458088D01*
X54355584Y-73474961D01*
X54356509Y-73492987D01*
X54357159Y-73512238D01*
X54357542Y-73532785D01*
X54357667Y-73554699D01*
X54357092Y-73619824D01*
X54356286Y-73647322D01*
X54355054Y-73671679D01*
X54353339Y-73693071D01*
X54351082Y-73711676D01*
X54348222Y-73727670D01*
X54344703Y-73741231D01*
X54340464Y-73752534D01*
X54335446Y-73761757D01*
X54329592Y-73769075D01*
X54326332Y-73772076D01*
X54322841Y-73774667D01*
X54315136Y-73778709D01*
X54306417Y-73781377D01*
X54296624Y-73782848D01*
X54285701Y-73783299D01*
X54278899Y-73781218D01*
X54267407Y-73775879D01*
X54251493Y-73767444D01*
X54231428Y-73756080D01*
X54179921Y-73725219D01*
X54115044Y-73684610D01*
X54038956Y-73635567D01*
X53953814Y-73579405D01*
X53861776Y-73517439D01*
X53765001Y-73450984D01*
X52870147Y-72829113D01*
X52267194Y-72405085D01*
X51916258Y-72150523D01*
X51822831Y-72077924D01*
X51777451Y-72037049D01*
X51765878Y-72023542D01*
X51755713Y-72011343D01*
X51746876Y-72000075D01*
X51742929Y-71994671D01*
X51739285Y-71989358D01*
X51735931Y-71984089D01*
X51732859Y-71978815D01*
X51730058Y-71973491D01*
X51727519Y-71968068D01*
X51725230Y-71962499D01*
X51723183Y-71956737D01*
X51721367Y-71950735D01*
X51719771Y-71944446D01*
X51718387Y-71937821D01*
X51717203Y-71930815D01*
X51716210Y-71923378D01*
X51715398Y-71915466D01*
X51714756Y-71907029D01*
X51714274Y-71898021D01*
X51713752Y-71878102D01*
X51713751Y-71855330D01*
X51714190Y-71829327D01*
X51716067Y-71766117D01*
X51722417Y-71571383D01*
X51785917Y-71571383D01*
X51791231Y-71572160D01*
G37*
G36*
X62909001Y-69317133D02*
G01*
X62379833Y-69317133D01*
X62379833Y-70798800D01*
X62168167Y-70798800D01*
X62168167Y-69317133D01*
X61639000Y-69317133D01*
X61639000Y-69126633D01*
X62909001Y-69126633D01*
X62909001Y-69317133D01*
G37*
G36*
X62545629Y-64990568D02*
G01*
X62636376Y-64992829D01*
X62702890Y-64996752D01*
X62729082Y-64999531D01*
X62751644Y-65002958D01*
X62771384Y-65007110D01*
X62789111Y-65012065D01*
X62805636Y-65017901D01*
X62821766Y-65024695D01*
X62856083Y-65041467D01*
X62883686Y-65056645D01*
X62896484Y-65064361D01*
X62908632Y-65072208D01*
X62920146Y-65080223D01*
X62931041Y-65088441D01*
X62941333Y-65096897D01*
X62951036Y-65105628D01*
X62960165Y-65114669D01*
X62968735Y-65124056D01*
X62976763Y-65133824D01*
X62984262Y-65144010D01*
X62991247Y-65154647D01*
X62997735Y-65165774D01*
X63003740Y-65177424D01*
X63009277Y-65189634D01*
X63014362Y-65202439D01*
X63019008Y-65215875D01*
X63023233Y-65229978D01*
X63027050Y-65244783D01*
X63030475Y-65260326D01*
X63033522Y-65276642D01*
X63036208Y-65293768D01*
X63038547Y-65311739D01*
X63040554Y-65330590D01*
X63042244Y-65350358D01*
X63044736Y-65392784D01*
X63046142Y-65439303D01*
X63046584Y-65490200D01*
X63046266Y-65535244D01*
X63045236Y-65576111D01*
X63043375Y-65613090D01*
X63040564Y-65646470D01*
X63036688Y-65676537D01*
X63031626Y-65703582D01*
X63025263Y-65727892D01*
X63017479Y-65749756D01*
X63008158Y-65769462D01*
X62997181Y-65787298D01*
X62984430Y-65803553D01*
X62969788Y-65818515D01*
X62953137Y-65832472D01*
X62934359Y-65845713D01*
X62913336Y-65858527D01*
X62889950Y-65871200D01*
X62822217Y-65905067D01*
X62879367Y-65934700D01*
X62890774Y-65940270D01*
X62901589Y-65945898D01*
X62911829Y-65951629D01*
X62921510Y-65957508D01*
X62930649Y-65963581D01*
X62939261Y-65969893D01*
X62947363Y-65976490D01*
X62954971Y-65983417D01*
X62962102Y-65990718D01*
X62968772Y-65998440D01*
X62974997Y-66006629D01*
X62980793Y-66015328D01*
X62986177Y-66024584D01*
X62991165Y-66034441D01*
X62995772Y-66044946D01*
X63000017Y-66056144D01*
X63003914Y-66068079D01*
X63007480Y-66080798D01*
X63010731Y-66094346D01*
X63013684Y-66108767D01*
X63016355Y-66124108D01*
X63018760Y-66140413D01*
X63020915Y-66157729D01*
X63022837Y-66176099D01*
X63026046Y-66216188D01*
X63028517Y-66261043D01*
X63030381Y-66311026D01*
X63031767Y-66366500D01*
X63040234Y-66650133D01*
X62845500Y-66650133D01*
X62845500Y-66455400D01*
X62843664Y-66368993D01*
X62841909Y-66330426D01*
X62839547Y-66294765D01*
X62836539Y-66261869D01*
X62832850Y-66231600D01*
X62828441Y-66203817D01*
X62823275Y-66178381D01*
X62817316Y-66155153D01*
X62810526Y-66133993D01*
X62802867Y-66114762D01*
X62794304Y-66097320D01*
X62784797Y-66081527D01*
X62774311Y-66067244D01*
X62762808Y-66054331D01*
X62750251Y-66042650D01*
X62740638Y-66034429D01*
X62735966Y-66030690D01*
X62731296Y-66027188D01*
X62726562Y-66023916D01*
X62721699Y-66020865D01*
X62716641Y-66018029D01*
X62711323Y-66015398D01*
X62705680Y-66012966D01*
X62699646Y-66010724D01*
X62693155Y-66008666D01*
X62686142Y-66006783D01*
X62678542Y-66005067D01*
X62670288Y-66003511D01*
X62661316Y-66002106D01*
X62651560Y-66000846D01*
X62640955Y-65999722D01*
X62629434Y-65998727D01*
X62616933Y-65997853D01*
X62603386Y-65997092D01*
X62588727Y-65996437D01*
X62572891Y-65995879D01*
X62537426Y-65995025D01*
X62496467Y-65994469D01*
X62449489Y-65994149D01*
X62335384Y-65993967D01*
X61977667Y-65993967D01*
X61977667Y-66650133D01*
X61766000Y-66650133D01*
X61770180Y-65830984D01*
X61977667Y-65830984D01*
X62333267Y-65820400D01*
X62426983Y-65817101D01*
X62505940Y-65813455D01*
X62571652Y-65809312D01*
X62625631Y-65804525D01*
X62669391Y-65798944D01*
X62704444Y-65792420D01*
X62732304Y-65784805D01*
X62744010Y-65780542D01*
X62754484Y-65775950D01*
X62762459Y-65771434D01*
X62770114Y-65766611D01*
X62777451Y-65761470D01*
X62784473Y-65756003D01*
X62791181Y-65750199D01*
X62797579Y-65744050D01*
X62803668Y-65737544D01*
X62809451Y-65730673D01*
X62814930Y-65723427D01*
X62820107Y-65715796D01*
X62824986Y-65707771D01*
X62829567Y-65699341D01*
X62833854Y-65690497D01*
X62837849Y-65681230D01*
X62841554Y-65671529D01*
X62844971Y-65661386D01*
X62848103Y-65650789D01*
X62850952Y-65639731D01*
X62853520Y-65628200D01*
X62855811Y-65616187D01*
X62857825Y-65603683D01*
X62859565Y-65590678D01*
X62861035Y-65577162D01*
X62862235Y-65563126D01*
X62863169Y-65548559D01*
X62863838Y-65533453D01*
X62864393Y-65501581D01*
X62863919Y-65467434D01*
X62862433Y-65430934D01*
X62859496Y-65385937D01*
X62857485Y-65365354D01*
X62855004Y-65345998D01*
X62851970Y-65327831D01*
X62848299Y-65310815D01*
X62843910Y-65294913D01*
X62838720Y-65280088D01*
X62832646Y-65266301D01*
X62825606Y-65253515D01*
X62817517Y-65241693D01*
X62808297Y-65230797D01*
X62797863Y-65220789D01*
X62786133Y-65211632D01*
X62773023Y-65203287D01*
X62758452Y-65195719D01*
X62742337Y-65188888D01*
X62724595Y-65182758D01*
X62705144Y-65177290D01*
X62683902Y-65172448D01*
X62660785Y-65168193D01*
X62635711Y-65164488D01*
X62608598Y-65161296D01*
X62579363Y-65158578D01*
X62514196Y-65154417D01*
X62439551Y-65151703D01*
X62354767Y-65150137D01*
X62259184Y-65149417D01*
X61977667Y-65147300D01*
X61977667Y-65830984D01*
X61770180Y-65830984D01*
X61770234Y-65820400D01*
X61775372Y-65147300D01*
X61776584Y-64988550D01*
X62265534Y-64988550D01*
X62545629Y-64990568D01*
G37*
G36*
X51788184Y-74501447D02*
G01*
X51875260Y-74556326D01*
X52167943Y-74752171D01*
X53031840Y-75350956D01*
X53894547Y-75964426D01*
X54185742Y-76178626D01*
X54308984Y-76278850D01*
X54318408Y-76293668D01*
X54326827Y-76308690D01*
X54334229Y-76323824D01*
X54340602Y-76338976D01*
X54345933Y-76354055D01*
X54350209Y-76368965D01*
X54353419Y-76383616D01*
X54355551Y-76397912D01*
X54356590Y-76411763D01*
X54356526Y-76425073D01*
X54355346Y-76437752D01*
X54353037Y-76449704D01*
X54349587Y-76460839D01*
X54347431Y-76466070D01*
X54344984Y-76471061D01*
X54342246Y-76475801D01*
X54339215Y-76480279D01*
X54335889Y-76484482D01*
X54332267Y-76488399D01*
X54326261Y-76494325D01*
X54323485Y-76496965D01*
X54320832Y-76499388D01*
X54318282Y-76501591D01*
X54315812Y-76503571D01*
X54313404Y-76505326D01*
X54311034Y-76506854D01*
X54308684Y-76508153D01*
X54306331Y-76509220D01*
X54303955Y-76510053D01*
X54301534Y-76510650D01*
X54299049Y-76511007D01*
X54296477Y-76511124D01*
X54293799Y-76510997D01*
X54290992Y-76510625D01*
X54288037Y-76510004D01*
X54284912Y-76509134D01*
X54281596Y-76508010D01*
X54278069Y-76506631D01*
X54274309Y-76504995D01*
X54270296Y-76503100D01*
X54266008Y-76500942D01*
X54261425Y-76498520D01*
X54251289Y-76492874D01*
X54239721Y-76486143D01*
X54211617Y-76469350D01*
X53768242Y-76168684D01*
X52955376Y-75603898D01*
X52163147Y-75047446D01*
X51781684Y-74771783D01*
X51770784Y-74761461D01*
X51761059Y-74751815D01*
X51752444Y-74742678D01*
X51744874Y-74733882D01*
X51741460Y-74729559D01*
X51738284Y-74725259D01*
X51735335Y-74720960D01*
X51732608Y-74716642D01*
X51730093Y-74712284D01*
X51727782Y-74707865D01*
X51725667Y-74703363D01*
X51723740Y-74698758D01*
X51721993Y-74694029D01*
X51720418Y-74689156D01*
X51719006Y-74684116D01*
X51717750Y-74678890D01*
X51716641Y-74673455D01*
X51715671Y-74667793D01*
X51714116Y-74655697D01*
X51713020Y-74642436D01*
X51712318Y-74627841D01*
X51711944Y-74611746D01*
X51711834Y-74593983D01*
X51712169Y-74562423D01*
X51712629Y-74549046D01*
X51713322Y-74537164D01*
X51714276Y-74526695D01*
X51715518Y-74517560D01*
X51717076Y-74509677D01*
X51718978Y-74502966D01*
X51721252Y-74497347D01*
X51723926Y-74492739D01*
X51725422Y-74490788D01*
X51727028Y-74489061D01*
X51728749Y-74487545D01*
X51730586Y-74486232D01*
X51734628Y-74484172D01*
X51739181Y-74482801D01*
X51744274Y-74482037D01*
X51749934Y-74481800D01*
X51788184Y-74501447D01*
G37*
G36*
X57649084Y-67090400D02*
G01*
X57650320Y-67087497D01*
X57651654Y-67084740D01*
X57653099Y-67082124D01*
X57654665Y-67079647D01*
X57656364Y-67077305D01*
X57658209Y-67075094D01*
X57660210Y-67073011D01*
X57662379Y-67071053D01*
X57664728Y-67069215D01*
X57667269Y-67067495D01*
X57670012Y-67065888D01*
X57672971Y-67064392D01*
X57676155Y-67063004D01*
X57679578Y-67061718D01*
X57683250Y-67060533D01*
X57687184Y-67059444D01*
X57691390Y-67058448D01*
X57695881Y-67057542D01*
X57700668Y-67056721D01*
X57705762Y-67055984D01*
X57711176Y-67055325D01*
X57716921Y-67054742D01*
X57723009Y-67054231D01*
X57729451Y-67053788D01*
X57743444Y-67053095D01*
X57758993Y-67052635D01*
X57776192Y-67052379D01*
X57795134Y-67052300D01*
X57926367Y-67052300D01*
X58231167Y-67862983D01*
X58542317Y-68699066D01*
X58543005Y-68700629D01*
X58543480Y-68702142D01*
X58543741Y-68703606D01*
X58543784Y-68705020D01*
X58543725Y-68705708D01*
X58543610Y-68706384D01*
X58543440Y-68707048D01*
X58543214Y-68707699D01*
X58542934Y-68708337D01*
X58542597Y-68708964D01*
X58541755Y-68710179D01*
X58540686Y-68711345D01*
X58539389Y-68712461D01*
X58537862Y-68713528D01*
X58536103Y-68714545D01*
X58534110Y-68715512D01*
X58531881Y-68716430D01*
X58529414Y-68717298D01*
X58526707Y-68718117D01*
X58523758Y-68718886D01*
X58520565Y-68719605D01*
X58517126Y-68720275D01*
X58513440Y-68720895D01*
X58509505Y-68721465D01*
X58505317Y-68721986D01*
X58500877Y-68722458D01*
X58496180Y-68722879D01*
X58491227Y-68723251D01*
X58486014Y-68723574D01*
X58480540Y-68723847D01*
X58474803Y-68724070D01*
X58468801Y-68724244D01*
X58462531Y-68724368D01*
X58449184Y-68724467D01*
X58345467Y-68724467D01*
X58284084Y-68555133D01*
X58222701Y-68385800D01*
X57799367Y-68390033D01*
X57376034Y-68396383D01*
X57261734Y-68713883D01*
X57153784Y-68720233D01*
X57045834Y-68726584D01*
X57069117Y-68667317D01*
X57242987Y-68194491D01*
X57453783Y-68194491D01*
X57454294Y-68196095D01*
X57455363Y-68197628D01*
X57457011Y-68199090D01*
X57459257Y-68200485D01*
X57462123Y-68201812D01*
X57465628Y-68203072D01*
X57469794Y-68204268D01*
X57474641Y-68205399D01*
X57480190Y-68206468D01*
X57486460Y-68207475D01*
X57493473Y-68208422D01*
X57501249Y-68209309D01*
X57519173Y-68210910D01*
X57540396Y-68212289D01*
X57565083Y-68213453D01*
X57593397Y-68214412D01*
X57625503Y-68215177D01*
X57661565Y-68215755D01*
X57701748Y-68216156D01*
X57746216Y-68216390D01*
X57795134Y-68216466D01*
X57931295Y-68215375D01*
X58043048Y-68212498D01*
X58086113Y-68210576D01*
X58118686Y-68208430D01*
X58139303Y-68206136D01*
X58144670Y-68204956D01*
X58146500Y-68203767D01*
X58131663Y-68155712D01*
X58092492Y-68043561D01*
X57973198Y-67714287D01*
X57852714Y-67390570D01*
X57812055Y-67285365D01*
X57795134Y-67247033D01*
X57780615Y-67285795D01*
X57744069Y-67385675D01*
X57691252Y-67531593D01*
X57627917Y-67708467D01*
X57508590Y-68037873D01*
X57454350Y-68191067D01*
X57453808Y-68192816D01*
X57453783Y-68194491D01*
X57242987Y-68194491D01*
X57363334Y-67867217D01*
X57649084Y-67090400D01*
G37*
G36*
X51716067Y-66988800D02*
G01*
X51716803Y-65640484D01*
X52346834Y-65640484D01*
X52347156Y-65814447D01*
X52348223Y-65959042D01*
X52350183Y-66077443D01*
X52353184Y-66172825D01*
X52355122Y-66212877D01*
X52357376Y-66248364D01*
X52359965Y-66279684D01*
X52362907Y-66307234D01*
X52366222Y-66331410D01*
X52369927Y-66352610D01*
X52374042Y-66371230D01*
X52378584Y-66387667D01*
X52387523Y-66415706D01*
X52397713Y-66441919D01*
X52409210Y-66466364D01*
X52422075Y-66489102D01*
X52436366Y-66510189D01*
X52452142Y-66529686D01*
X52469463Y-66547651D01*
X52488386Y-66564144D01*
X52508971Y-66579223D01*
X52531277Y-66592946D01*
X52555363Y-66605374D01*
X52581288Y-66616564D01*
X52609110Y-66626577D01*
X52638888Y-66635470D01*
X52670682Y-66643302D01*
X52704551Y-66650133D01*
X52729306Y-66653800D01*
X52762891Y-66656847D01*
X52803819Y-66659249D01*
X52850601Y-66660981D01*
X52901748Y-66662019D01*
X52955772Y-66662337D01*
X53011186Y-66661912D01*
X53066501Y-66660717D01*
X53132728Y-66658291D01*
X53193492Y-66654900D01*
X53249085Y-66650424D01*
X53275033Y-66647742D01*
X53299797Y-66644743D01*
X53323414Y-66641412D01*
X53345920Y-66637734D01*
X53367352Y-66633694D01*
X53387746Y-66629277D01*
X53407139Y-66624468D01*
X53425566Y-66619251D01*
X53443065Y-66613612D01*
X53459671Y-66607535D01*
X53475422Y-66601006D01*
X53490354Y-66594009D01*
X53504502Y-66586529D01*
X53517905Y-66578551D01*
X53530597Y-66570060D01*
X53542615Y-66561041D01*
X53553997Y-66551478D01*
X53564777Y-66541356D01*
X53574994Y-66530662D01*
X53584682Y-66519378D01*
X53593879Y-66507490D01*
X53602621Y-66494984D01*
X53610944Y-66481844D01*
X53618886Y-66468054D01*
X53626481Y-66453600D01*
X53633767Y-66438467D01*
X53643834Y-66411467D01*
X53651990Y-66374867D01*
X53658510Y-66323832D01*
X53663665Y-66253523D01*
X53667729Y-66159104D01*
X53670974Y-66035738D01*
X53676101Y-65682816D01*
X53682451Y-64999133D01*
X53362834Y-64999133D01*
X53362834Y-65623550D01*
X53362441Y-65771415D01*
X53361279Y-65900800D01*
X53359374Y-66011880D01*
X53356749Y-66104827D01*
X53353429Y-66179816D01*
X53349439Y-66237020D01*
X53347201Y-66259006D01*
X53344805Y-66276612D01*
X53342254Y-66289858D01*
X53339551Y-66298767D01*
X53332588Y-66311720D01*
X53324329Y-66323613D01*
X53314668Y-66334476D01*
X53303501Y-66344341D01*
X53290722Y-66353239D01*
X53276224Y-66361200D01*
X53259904Y-66368256D01*
X53241655Y-66374437D01*
X53221372Y-66379776D01*
X53198949Y-66384301D01*
X53174282Y-66388046D01*
X53147265Y-66391040D01*
X53117792Y-66393315D01*
X53085757Y-66394901D01*
X53051057Y-66395830D01*
X53013584Y-66396133D01*
X52976111Y-66395830D01*
X52941411Y-66394901D01*
X52909376Y-66393315D01*
X52879903Y-66391040D01*
X52866094Y-66389635D01*
X52852886Y-66388046D01*
X52840265Y-66386269D01*
X52828219Y-66384301D01*
X52816733Y-66382138D01*
X52805796Y-66379776D01*
X52795394Y-66377210D01*
X52785513Y-66374437D01*
X52776141Y-66371454D01*
X52767264Y-66368256D01*
X52758869Y-66364839D01*
X52750944Y-66361200D01*
X52743474Y-66357335D01*
X52736446Y-66353239D01*
X52729848Y-66348909D01*
X52723667Y-66344341D01*
X52717888Y-66339532D01*
X52712500Y-66334476D01*
X52707488Y-66329171D01*
X52702839Y-66323613D01*
X52698541Y-66317797D01*
X52694580Y-66311720D01*
X52690943Y-66305378D01*
X52687617Y-66298767D01*
X52682363Y-66276612D01*
X52677729Y-66237020D01*
X52673739Y-66179816D01*
X52670419Y-66104827D01*
X52665888Y-65900800D01*
X52664334Y-65623550D01*
X52664334Y-64999133D01*
X52346834Y-64999133D01*
X52346834Y-65640484D01*
X51716803Y-65640484D01*
X51717873Y-63680049D01*
X52346474Y-63680049D01*
X52350803Y-63846344D01*
X52361779Y-64010158D01*
X52369597Y-64087701D01*
X52378882Y-64160504D01*
X52389568Y-64227191D01*
X52401590Y-64286391D01*
X52414884Y-64336730D01*
X52429384Y-64376834D01*
X52438352Y-64395298D01*
X52447847Y-64412627D01*
X52457950Y-64428877D01*
X52468741Y-64444104D01*
X52480301Y-64458363D01*
X52492710Y-64471711D01*
X52506050Y-64484204D01*
X52520401Y-64495896D01*
X52535843Y-64506844D01*
X52552457Y-64517104D01*
X52570323Y-64526731D01*
X52589523Y-64535782D01*
X52610137Y-64544312D01*
X52632245Y-64552376D01*
X52655928Y-64560032D01*
X52681267Y-64567333D01*
X52723124Y-64576694D01*
X52771052Y-64584172D01*
X52824077Y-64589820D01*
X52881226Y-64593693D01*
X52941525Y-64595841D01*
X53004001Y-64596318D01*
X53067680Y-64595176D01*
X53131588Y-64592469D01*
X53194752Y-64588249D01*
X53256199Y-64582568D01*
X53314954Y-64575479D01*
X53370044Y-64567036D01*
X53420496Y-64557290D01*
X53465335Y-64546295D01*
X53503589Y-64534103D01*
X53534284Y-64520767D01*
X53548763Y-64512051D01*
X53562805Y-64501047D01*
X53576370Y-64487848D01*
X53589416Y-64472547D01*
X53601905Y-64455236D01*
X53613795Y-64436009D01*
X53625047Y-64414959D01*
X53635619Y-64392179D01*
X53645473Y-64367762D01*
X53654566Y-64341801D01*
X53662860Y-64314389D01*
X53670313Y-64285618D01*
X53676886Y-64255583D01*
X53682537Y-64224376D01*
X53687228Y-64192089D01*
X53690917Y-64158817D01*
X53705734Y-64004300D01*
X53388234Y-64004300D01*
X53375534Y-64118600D01*
X53371365Y-64148647D01*
X53366588Y-64175419D01*
X53360893Y-64199116D01*
X53353970Y-64219936D01*
X53349952Y-64229328D01*
X53345510Y-64238076D01*
X53340606Y-64246204D01*
X53335202Y-64253736D01*
X53329257Y-64260698D01*
X53322735Y-64267114D01*
X53315596Y-64273009D01*
X53307801Y-64278408D01*
X53299311Y-64283336D01*
X53290088Y-64287818D01*
X53280093Y-64291877D01*
X53269287Y-64295540D01*
X53245088Y-64301774D01*
X53217181Y-64306719D01*
X53185255Y-64310572D01*
X53149001Y-64313532D01*
X53108108Y-64315797D01*
X53062267Y-64317567D01*
X52995828Y-64319821D01*
X52937450Y-64320519D01*
X52886613Y-64318897D01*
X52842795Y-64314193D01*
X52823356Y-64310447D01*
X52805477Y-64305645D01*
X52789092Y-64299691D01*
X52774136Y-64292489D01*
X52760545Y-64283945D01*
X52748252Y-64273963D01*
X52737194Y-64262448D01*
X52727305Y-64249304D01*
X52718519Y-64234437D01*
X52710772Y-64217750D01*
X52703999Y-64199148D01*
X52698134Y-64178537D01*
X52688870Y-64130902D01*
X52682458Y-64074084D01*
X52678378Y-64007319D01*
X52676108Y-63929845D01*
X52674917Y-63739717D01*
X52675161Y-63621613D01*
X52675517Y-63571615D01*
X52676075Y-63527124D01*
X52676868Y-63487743D01*
X52677931Y-63453074D01*
X52679298Y-63422721D01*
X52681003Y-63396288D01*
X52683080Y-63373376D01*
X52685563Y-63353591D01*
X52688486Y-63336533D01*
X52690123Y-63328904D01*
X52691884Y-63321807D01*
X52693771Y-63315195D01*
X52695790Y-63309016D01*
X52697944Y-63303223D01*
X52700239Y-63297763D01*
X52702677Y-63292590D01*
X52705264Y-63287651D01*
X52710901Y-63278283D01*
X52721669Y-63264169D01*
X52734143Y-63251193D01*
X52748340Y-63239351D01*
X52764280Y-63228641D01*
X52781982Y-63219060D01*
X52801463Y-63210604D01*
X52822742Y-63203270D01*
X52845838Y-63197056D01*
X52870770Y-63191959D01*
X52897556Y-63187974D01*
X52926215Y-63185099D01*
X52956765Y-63183331D01*
X52989225Y-63182667D01*
X53023613Y-63183104D01*
X53059949Y-63184638D01*
X53098251Y-63187267D01*
X53133777Y-63190267D01*
X53165864Y-63193803D01*
X53194696Y-63198015D01*
X53207948Y-63200418D01*
X53220455Y-63203043D01*
X53232240Y-63205906D01*
X53243324Y-63209025D01*
X53253733Y-63212418D01*
X53263487Y-63216102D01*
X53272610Y-63220095D01*
X53281126Y-63224413D01*
X53289056Y-63229075D01*
X53296424Y-63234098D01*
X53303252Y-63239499D01*
X53309563Y-63245296D01*
X53315381Y-63251506D01*
X53320728Y-63258146D01*
X53325627Y-63265235D01*
X53330101Y-63272789D01*
X53334172Y-63280826D01*
X53337864Y-63289363D01*
X53341199Y-63298418D01*
X53344201Y-63308008D01*
X53346892Y-63318151D01*
X53349295Y-63328864D01*
X53353328Y-63352071D01*
X53356484Y-63377767D01*
X53369184Y-63475133D01*
X53680334Y-63475133D01*
X53680334Y-63401050D01*
X53679496Y-63363483D01*
X53677006Y-63327033D01*
X53672897Y-63291773D01*
X53667204Y-63257778D01*
X53663774Y-63241279D01*
X53659960Y-63225123D01*
X53655768Y-63209321D01*
X53651201Y-63193881D01*
X53646263Y-63178814D01*
X53640959Y-63164128D01*
X53635293Y-63149833D01*
X53629269Y-63135938D01*
X53622892Y-63122452D01*
X53616166Y-63109384D01*
X53609094Y-63096745D01*
X53601682Y-63084542D01*
X53593934Y-63072787D01*
X53585853Y-63061487D01*
X53577445Y-63050652D01*
X53568713Y-63040291D01*
X53559661Y-63030414D01*
X53550295Y-63021030D01*
X53540617Y-63012148D01*
X53530634Y-63003778D01*
X53520347Y-62995929D01*
X53509763Y-62988610D01*
X53498885Y-62981831D01*
X53487717Y-62975600D01*
X53452430Y-62960814D01*
X53409210Y-62948195D01*
X53359158Y-62937728D01*
X53303369Y-62929397D01*
X53242942Y-62923187D01*
X53178973Y-62919083D01*
X53112562Y-62917068D01*
X53044805Y-62917127D01*
X52976800Y-62919246D01*
X52909644Y-62923407D01*
X52844436Y-62929596D01*
X52782272Y-62937798D01*
X52724251Y-62947996D01*
X52671469Y-62960176D01*
X52625026Y-62974321D01*
X52586017Y-62990417D01*
X52565666Y-63000951D01*
X52546632Y-63011985D01*
X52528844Y-63023619D01*
X52512232Y-63035958D01*
X52496723Y-63049103D01*
X52482247Y-63063157D01*
X52468732Y-63078221D01*
X52456107Y-63094398D01*
X52444300Y-63111791D01*
X52433241Y-63130501D01*
X52422858Y-63150632D01*
X52413079Y-63172285D01*
X52403834Y-63195563D01*
X52395050Y-63220567D01*
X52386657Y-63247401D01*
X52378584Y-63276167D01*
X52368155Y-63325572D01*
X52359844Y-63383972D01*
X52353585Y-63449994D01*
X52349314Y-63522263D01*
X52346966Y-63599406D01*
X52346474Y-63680049D01*
X51717873Y-63680049D01*
X51717919Y-63594990D01*
X51728867Y-63094563D01*
X51737974Y-62999268D01*
X51749934Y-62952317D01*
X51807489Y-62839232D01*
X51937722Y-62597709D01*
X52323551Y-61896629D01*
X52722079Y-61183644D01*
X52947967Y-60793317D01*
X52953270Y-60785435D01*
X52958469Y-60778062D01*
X52963572Y-60771197D01*
X52968584Y-60764841D01*
X52973514Y-60758993D01*
X52978370Y-60753654D01*
X52983158Y-60748824D01*
X52987886Y-60744501D01*
X52992562Y-60740688D01*
X52997192Y-60737382D01*
X53001784Y-60734586D01*
X53006345Y-60732297D01*
X53010883Y-60730518D01*
X53015405Y-60729246D01*
X53019919Y-60728484D01*
X53024432Y-60728229D01*
X53028951Y-60728484D01*
X53033483Y-60729246D01*
X53038036Y-60730518D01*
X53042618Y-60732297D01*
X53047235Y-60734586D01*
X53051895Y-60737382D01*
X53056606Y-60740688D01*
X53061374Y-60744501D01*
X53066208Y-60748824D01*
X53071114Y-60753654D01*
X53076100Y-60758993D01*
X53081173Y-60764841D01*
X53086340Y-60771197D01*
X53091610Y-60778062D01*
X53096988Y-60785435D01*
X53102484Y-60793317D01*
X53197680Y-60949591D01*
X53354070Y-61218800D01*
X53761032Y-61936581D01*
X54144578Y-62627772D01*
X54271698Y-62863743D01*
X54325917Y-62973484D01*
X54330808Y-62997559D01*
X54335182Y-63037893D01*
X54339065Y-63099039D01*
X54342487Y-63185547D01*
X54348055Y-63452859D01*
X54352111Y-63876242D01*
X54354877Y-64492109D01*
X54356576Y-65336874D01*
X54357667Y-67858750D01*
X54351846Y-71871685D01*
X54341594Y-72512605D01*
X54333764Y-72631713D01*
X54323801Y-72669933D01*
X54320508Y-72673452D01*
X54317004Y-72676857D01*
X54313327Y-72680132D01*
X54309513Y-72683261D01*
X54305600Y-72686229D01*
X54301625Y-72689020D01*
X54297625Y-72691619D01*
X54293638Y-72694010D01*
X54289700Y-72696178D01*
X54285849Y-72698107D01*
X54282122Y-72699782D01*
X54278557Y-72701187D01*
X54275190Y-72702307D01*
X54272058Y-72703126D01*
X54269199Y-72703629D01*
X54266651Y-72703800D01*
X54257653Y-72699456D01*
X54236637Y-72686709D01*
X54161082Y-72637720D01*
X53893588Y-72457737D01*
X53504651Y-72191236D01*
X53034751Y-71865600D01*
X52561742Y-71537087D01*
X52166917Y-71259969D01*
X51891155Y-71063417D01*
X51775334Y-70976600D01*
X51722417Y-70925800D01*
X51722212Y-70798800D01*
X52346834Y-70798800D01*
X52664334Y-70798800D01*
X52664334Y-70121466D01*
X53104601Y-70117233D01*
X53542751Y-70110883D01*
X53549101Y-69979650D01*
X53555451Y-69846300D01*
X52664334Y-69846300D01*
X52664334Y-69401800D01*
X53680334Y-69401800D01*
X53680334Y-69126633D01*
X52346834Y-69126633D01*
X52346834Y-70798800D01*
X51722212Y-70798800D01*
X51718013Y-68195300D01*
X52340484Y-68195300D01*
X52353184Y-68345583D01*
X52358000Y-68392022D01*
X52364627Y-68434616D01*
X52373239Y-68473538D01*
X52378343Y-68491677D01*
X52384008Y-68508964D01*
X52390256Y-68525419D01*
X52397109Y-68541065D01*
X52404588Y-68555924D01*
X52412715Y-68570016D01*
X52421512Y-68583365D01*
X52431000Y-68595991D01*
X52441202Y-68607916D01*
X52452138Y-68619163D01*
X52463831Y-68629752D01*
X52476302Y-68639705D01*
X52489573Y-68649045D01*
X52503666Y-68657792D01*
X52518602Y-68665969D01*
X52534403Y-68673597D01*
X52551091Y-68680697D01*
X52568687Y-68687293D01*
X52606692Y-68699055D01*
X52648591Y-68709055D01*
X52694558Y-68717468D01*
X52744767Y-68724467D01*
X52815180Y-68732111D01*
X52877456Y-68737597D01*
X52934374Y-68740949D01*
X52988713Y-68742194D01*
X53043250Y-68741355D01*
X53100764Y-68738457D01*
X53164033Y-68733525D01*
X53235834Y-68726584D01*
X53296054Y-68719197D01*
X53350684Y-68710353D01*
X53399987Y-68699785D01*
X53422723Y-68693772D01*
X53444226Y-68687227D01*
X53464530Y-68680118D01*
X53483666Y-68672411D01*
X53501669Y-68664074D01*
X53518570Y-68655072D01*
X53534403Y-68645372D01*
X53549201Y-68634942D01*
X53562997Y-68623747D01*
X53575824Y-68611754D01*
X53587714Y-68598931D01*
X53598700Y-68585243D01*
X53608816Y-68570658D01*
X53618095Y-68555142D01*
X53626569Y-68538661D01*
X53634271Y-68521183D01*
X53641235Y-68502674D01*
X53647493Y-68483101D01*
X53653078Y-68462430D01*
X53658023Y-68440628D01*
X53666125Y-68393498D01*
X53672063Y-68341444D01*
X53676101Y-68284200D01*
X53678693Y-68213868D01*
X53678288Y-68150263D01*
X53674515Y-68093021D01*
X53671250Y-68066672D01*
X53667006Y-68041776D01*
X53661735Y-68018287D01*
X53655391Y-67996161D01*
X53647929Y-67975351D01*
X53639303Y-67955811D01*
X53629466Y-67937496D01*
X53618371Y-67920360D01*
X53605974Y-67904357D01*
X53592228Y-67889442D01*
X53577086Y-67875568D01*
X53560503Y-67862691D01*
X53542432Y-67850764D01*
X53534049Y-67846050D01*
X54347084Y-67846050D01*
X54348407Y-70532364D01*
X54349763Y-70798502D01*
X54351317Y-70242116D01*
X54351317Y-65437284D01*
X54347084Y-67846050D01*
X53534049Y-67846050D01*
X53522828Y-67839741D01*
X53501644Y-67829578D01*
X53478835Y-67820227D01*
X53454353Y-67811644D01*
X53428153Y-67803783D01*
X53370414Y-67790042D01*
X53305250Y-67778639D01*
X53232291Y-67769208D01*
X53151167Y-67761383D01*
X53116544Y-67758539D01*
X53078572Y-67754901D01*
X52997444Y-67746038D01*
X52917507Y-67736380D01*
X52848484Y-67727517D01*
X52820374Y-67722787D01*
X52795452Y-67717959D01*
X52773530Y-67712783D01*
X52754425Y-67707011D01*
X52745869Y-67703825D01*
X52737948Y-67700397D01*
X52730638Y-67696696D01*
X52723915Y-67692691D01*
X52717756Y-67688351D01*
X52712139Y-67683645D01*
X52707039Y-67678543D01*
X52702434Y-67673012D01*
X52698300Y-67667023D01*
X52694614Y-67660544D01*
X52691353Y-67653544D01*
X52688494Y-67645992D01*
X52686012Y-67637857D01*
X52683886Y-67629108D01*
X52682092Y-67619715D01*
X52680606Y-67609645D01*
X52678466Y-67587354D01*
X52677282Y-67561987D01*
X52676867Y-67533296D01*
X52677034Y-67501034D01*
X52678032Y-67474942D01*
X52680358Y-67451350D01*
X52684196Y-67430126D01*
X52686741Y-67420362D01*
X52689734Y-67411141D01*
X52693198Y-67402448D01*
X52697157Y-67394265D01*
X52701633Y-67386576D01*
X52706651Y-67379366D01*
X52712233Y-67372618D01*
X52718402Y-67366316D01*
X52725182Y-67360443D01*
X52732596Y-67354983D01*
X52740668Y-67349920D01*
X52749420Y-67345238D01*
X52758876Y-67340920D01*
X52769059Y-67336950D01*
X52791700Y-67329989D01*
X52817528Y-67324225D01*
X52846729Y-67319528D01*
X52879490Y-67315767D01*
X52915996Y-67312812D01*
X52956434Y-67310533D01*
X52994378Y-67309017D01*
X53030393Y-67308425D01*
X53064437Y-67308738D01*
X53096465Y-67309938D01*
X53126434Y-67312006D01*
X53154301Y-67314924D01*
X53180022Y-67318672D01*
X53192065Y-67320853D01*
X53203555Y-67323233D01*
X53214487Y-67325813D01*
X53224855Y-67328588D01*
X53234654Y-67331557D01*
X53243879Y-67334718D01*
X53252524Y-67338068D01*
X53260584Y-67341604D01*
X53268053Y-67345325D01*
X53274926Y-67349229D01*
X53281198Y-67353312D01*
X53286862Y-67357572D01*
X53291915Y-67362008D01*
X53296349Y-67366617D01*
X53300160Y-67371396D01*
X53303343Y-67376343D01*
X53305892Y-67381456D01*
X53307801Y-67386733D01*
X53317590Y-67428802D01*
X53323576Y-67455492D01*
X53326408Y-67468949D01*
X53328967Y-67481983D01*
X53331286Y-67491694D01*
X53333622Y-67500240D01*
X53336195Y-67507694D01*
X53339220Y-67514130D01*
X53342915Y-67519625D01*
X53345081Y-67522042D01*
X53347496Y-67524251D01*
X53350188Y-67526261D01*
X53353182Y-67528083D01*
X53356506Y-67529725D01*
X53360188Y-67531196D01*
X53368732Y-67533664D01*
X53379031Y-67535562D01*
X53391302Y-67536963D01*
X53405763Y-67537943D01*
X53422629Y-67538576D01*
X53442118Y-67538935D01*
X53489834Y-67539134D01*
X53638001Y-67539134D01*
X53638001Y-67439650D01*
X53636919Y-67414971D01*
X53634511Y-67390256D01*
X53630838Y-67365664D01*
X53625962Y-67341357D01*
X53619945Y-67317497D01*
X53612849Y-67294245D01*
X53604735Y-67271761D01*
X53595667Y-67250208D01*
X53585706Y-67229747D01*
X53574914Y-67210537D01*
X53569226Y-67201453D01*
X53563353Y-67192742D01*
X53557303Y-67184425D01*
X53551085Y-67176522D01*
X53544705Y-67169053D01*
X53538172Y-67162038D01*
X53531493Y-67155498D01*
X53524676Y-67149452D01*
X53517729Y-67143921D01*
X53510660Y-67138924D01*
X53503475Y-67134483D01*
X53496184Y-67130617D01*
X53451545Y-67111365D01*
X53398627Y-67094873D01*
X53338677Y-67081122D01*
X53272942Y-67070093D01*
X53202667Y-67061768D01*
X53129099Y-67056128D01*
X53053485Y-67053155D01*
X52977071Y-67052829D01*
X52901104Y-67055133D01*
X52826829Y-67060047D01*
X52755494Y-67067554D01*
X52688345Y-67077634D01*
X52626628Y-67090269D01*
X52571589Y-67105440D01*
X52524476Y-67123129D01*
X52504281Y-67132912D01*
X52486534Y-67143317D01*
X52470132Y-67155041D01*
X52455032Y-67168051D01*
X52441197Y-67182445D01*
X52428590Y-67198317D01*
X52417174Y-67215765D01*
X52406911Y-67234883D01*
X52397764Y-67255769D01*
X52389696Y-67278519D01*
X52382671Y-67303228D01*
X52376649Y-67329993D01*
X52371595Y-67358909D01*
X52367471Y-67390074D01*
X52364241Y-67423582D01*
X52361866Y-67459531D01*
X52360309Y-67498016D01*
X52359534Y-67539134D01*
X52359819Y-67603571D01*
X52362610Y-67661429D01*
X52368426Y-67713123D01*
X52372632Y-67736788D01*
X52377790Y-67759068D01*
X52383965Y-67780015D01*
X52391222Y-67799681D01*
X52399626Y-67818117D01*
X52409243Y-67835376D01*
X52420136Y-67851509D01*
X52432373Y-67866569D01*
X52446017Y-67880607D01*
X52461134Y-67893675D01*
X52477789Y-67905826D01*
X52496047Y-67917110D01*
X52515972Y-67927581D01*
X52537632Y-67937290D01*
X52561089Y-67946289D01*
X52586410Y-67954630D01*
X52642903Y-67969544D01*
X52707631Y-67982450D01*
X52781114Y-67993762D01*
X52863875Y-68003896D01*
X52956434Y-68013267D01*
X53025878Y-68020091D01*
X53086931Y-68026488D01*
X53140134Y-68032773D01*
X53186026Y-68039262D01*
X53206399Y-68042682D01*
X53225146Y-68046273D01*
X53242335Y-68050072D01*
X53258034Y-68054120D01*
X53272310Y-68058457D01*
X53285229Y-68063121D01*
X53296861Y-68068153D01*
X53307271Y-68073592D01*
X53316529Y-68079477D01*
X53324700Y-68085848D01*
X53331852Y-68092745D01*
X53338054Y-68100207D01*
X53343372Y-68108274D01*
X53347874Y-68116984D01*
X53351626Y-68126379D01*
X53354698Y-68136496D01*
X53357156Y-68147377D01*
X53359067Y-68159059D01*
X53360499Y-68171584D01*
X53361519Y-68184990D01*
X53362595Y-68214603D01*
X53362834Y-68248217D01*
X53362688Y-68262071D01*
X53362259Y-68275804D01*
X53361564Y-68289345D01*
X53360618Y-68302622D01*
X53359436Y-68315564D01*
X53358034Y-68328100D01*
X53356428Y-68340159D01*
X53354632Y-68351669D01*
X53352662Y-68362559D01*
X53350535Y-68372757D01*
X53348265Y-68382192D01*
X53345867Y-68390794D01*
X53343359Y-68398490D01*
X53340754Y-68405210D01*
X53338068Y-68410881D01*
X53335317Y-68415433D01*
X53326516Y-68425053D01*
X53314519Y-68434049D01*
X53299501Y-68442394D01*
X53281640Y-68450060D01*
X53261113Y-68457020D01*
X53238095Y-68463244D01*
X53212765Y-68468706D01*
X53185299Y-68473377D01*
X53155872Y-68477229D01*
X53124663Y-68480235D01*
X53091848Y-68482367D01*
X53057604Y-68483597D01*
X53022107Y-68483896D01*
X52985534Y-68483237D01*
X52948062Y-68481592D01*
X52909867Y-68478933D01*
X52877460Y-68475876D01*
X52847661Y-68472236D01*
X52833717Y-68470186D01*
X52820398Y-68467976D01*
X52807696Y-68465602D01*
X52795600Y-68463058D01*
X52784103Y-68460341D01*
X52773196Y-68457446D01*
X52762869Y-68454368D01*
X52753114Y-68451102D01*
X52743922Y-68447644D01*
X52735283Y-68443990D01*
X52727190Y-68440133D01*
X52719632Y-68436071D01*
X52712601Y-68431797D01*
X52706089Y-68427308D01*
X52700086Y-68422599D01*
X52694583Y-68417666D01*
X52689572Y-68412502D01*
X52685043Y-68407105D01*
X52680988Y-68401469D01*
X52677398Y-68395589D01*
X52674263Y-68389462D01*
X52671575Y-68383082D01*
X52669326Y-68376444D01*
X52667505Y-68369544D01*
X52666104Y-68362378D01*
X52665115Y-68354941D01*
X52664528Y-68347227D01*
X52664334Y-68339233D01*
X52663780Y-68315641D01*
X52662775Y-68294763D01*
X52661120Y-68276432D01*
X52658612Y-68260487D01*
X52656976Y-68253357D01*
X52655050Y-68246761D01*
X52652811Y-68240679D01*
X52650233Y-68235091D01*
X52647290Y-68229975D01*
X52643957Y-68225312D01*
X52640210Y-68221081D01*
X52636024Y-68217260D01*
X52631372Y-68213831D01*
X52626229Y-68210771D01*
X52620572Y-68208062D01*
X52614373Y-68205681D01*
X52607609Y-68203609D01*
X52600254Y-68201824D01*
X52592282Y-68200307D01*
X52583669Y-68199037D01*
X52564418Y-68197156D01*
X52542299Y-68196015D01*
X52517110Y-68195451D01*
X52488651Y-68195300D01*
X52340484Y-68195300D01*
X51718013Y-68195300D01*
X51716067Y-66988800D01*
G37*
G36*
X56770667Y-70798800D02*
G01*
X56580167Y-70798800D01*
X56580167Y-69126633D01*
X56770667Y-69126633D01*
X56770667Y-70798800D01*
G37*
G36*
X58336230Y-69117052D02*
G01*
X58420828Y-69119498D01*
X58496130Y-69123743D01*
X58562723Y-69130139D01*
X58621192Y-69139041D01*
X58672124Y-69150801D01*
X58694947Y-69157864D01*
X58716104Y-69165774D01*
X58735671Y-69174575D01*
X58753719Y-69184312D01*
X58770323Y-69195029D01*
X58785554Y-69206770D01*
X58799488Y-69219579D01*
X58812196Y-69233500D01*
X58823753Y-69248578D01*
X58834231Y-69264856D01*
X58843703Y-69282380D01*
X58852243Y-69301192D01*
X58866821Y-69342861D01*
X58878549Y-69390216D01*
X58888013Y-69443611D01*
X58895801Y-69503400D01*
X58910617Y-69613467D01*
X58696834Y-69613467D01*
X58696834Y-69528800D01*
X58696663Y-69519485D01*
X58696164Y-69509845D01*
X58695355Y-69499951D01*
X58694254Y-69489873D01*
X58692881Y-69479684D01*
X58691253Y-69469455D01*
X58689389Y-69459256D01*
X58687309Y-69449160D01*
X58685030Y-69439238D01*
X58682571Y-69429561D01*
X58679951Y-69420199D01*
X58677188Y-69411226D01*
X58674302Y-69402711D01*
X58671310Y-69394726D01*
X58668231Y-69387343D01*
X58665084Y-69380633D01*
X58661213Y-69373476D01*
X58657112Y-69366681D01*
X58652738Y-69360239D01*
X58648047Y-69354142D01*
X58642994Y-69348379D01*
X58637536Y-69342943D01*
X58631630Y-69337822D01*
X58625231Y-69333008D01*
X58618295Y-69328492D01*
X58610779Y-69324265D01*
X58602640Y-69320316D01*
X58593832Y-69316637D01*
X58584313Y-69313219D01*
X58574038Y-69310051D01*
X58562965Y-69307126D01*
X58551048Y-69304433D01*
X58538245Y-69301964D01*
X58524511Y-69299708D01*
X58509802Y-69297657D01*
X58494076Y-69295801D01*
X58477288Y-69294131D01*
X58459393Y-69292638D01*
X58440350Y-69291313D01*
X58420113Y-69290146D01*
X58375883Y-69288248D01*
X58326355Y-69286871D01*
X58271178Y-69285941D01*
X58210001Y-69285383D01*
X58127069Y-69285755D01*
X58054049Y-69287367D01*
X57990288Y-69290964D01*
X57961675Y-69293739D01*
X57935132Y-69297289D01*
X57910575Y-69301708D01*
X57887925Y-69307087D01*
X57867098Y-69313521D01*
X57848013Y-69321102D01*
X57830589Y-69329923D01*
X57814743Y-69340077D01*
X57800395Y-69351658D01*
X57787461Y-69364758D01*
X57775860Y-69379470D01*
X57765511Y-69395888D01*
X57756332Y-69414104D01*
X57748241Y-69434211D01*
X57741155Y-69456303D01*
X57734994Y-69480472D01*
X57729676Y-69506812D01*
X57725118Y-69535415D01*
X57717959Y-69599783D01*
X57712861Y-69674321D01*
X57709171Y-69759773D01*
X57706234Y-69856883D01*
X57703944Y-69995748D01*
X57704977Y-70120077D01*
X57709285Y-70229623D01*
X57716817Y-70324137D01*
X57721777Y-70365680D01*
X57727524Y-70403372D01*
X57734053Y-70437181D01*
X57741357Y-70467078D01*
X57749430Y-70493031D01*
X57758266Y-70515009D01*
X57767858Y-70532981D01*
X57778201Y-70546916D01*
X57783976Y-70552950D01*
X57790197Y-70558751D01*
X57796875Y-70564321D01*
X57804022Y-70569662D01*
X57811650Y-70574777D01*
X57819770Y-70579668D01*
X57828394Y-70584337D01*
X57837533Y-70588786D01*
X57847200Y-70593019D01*
X57857405Y-70597037D01*
X57879478Y-70604438D01*
X57903845Y-70611008D01*
X57930600Y-70616766D01*
X57959836Y-70621730D01*
X57991645Y-70625919D01*
X58026120Y-70629352D01*
X58063355Y-70632046D01*
X58103443Y-70634021D01*
X58146476Y-70635295D01*
X58192547Y-70635888D01*
X58241750Y-70635816D01*
X58340866Y-70634580D01*
X58384611Y-70632984D01*
X58424677Y-70630690D01*
X58461207Y-70627665D01*
X58494349Y-70623873D01*
X58524247Y-70619282D01*
X58551048Y-70613856D01*
X58574897Y-70607563D01*
X58595941Y-70600367D01*
X58614323Y-70592234D01*
X58630192Y-70583131D01*
X58643691Y-70573024D01*
X58654967Y-70561878D01*
X58664166Y-70549659D01*
X58671434Y-70536333D01*
X58677280Y-70521502D01*
X58682881Y-70503508D01*
X58688191Y-70482811D01*
X58693163Y-70459868D01*
X58697750Y-70435140D01*
X58701906Y-70409085D01*
X58708740Y-70354829D01*
X58713292Y-70300771D01*
X58714595Y-70274964D01*
X58715189Y-70250583D01*
X58715026Y-70228087D01*
X58714061Y-70207936D01*
X58712245Y-70190587D01*
X58709534Y-70176500D01*
X58696834Y-70121466D01*
X58165550Y-70121466D01*
X58171901Y-70043150D01*
X58178251Y-69962716D01*
X58897917Y-69962716D01*
X58893684Y-70208250D01*
X58892348Y-70276987D01*
X58889839Y-70339736D01*
X58886029Y-70396811D01*
X58880785Y-70448525D01*
X58873980Y-70495191D01*
X58865481Y-70537123D01*
X58855159Y-70574633D01*
X58842884Y-70608035D01*
X58828525Y-70637642D01*
X58811952Y-70663767D01*
X58793036Y-70686724D01*
X58771645Y-70706824D01*
X58747649Y-70724382D01*
X58720919Y-70739711D01*
X58691324Y-70753124D01*
X58658734Y-70764934D01*
X58632893Y-70772197D01*
X58601828Y-70778890D01*
X58566168Y-70784988D01*
X58526542Y-70790466D01*
X58437910Y-70799462D01*
X58340969Y-70805679D01*
X58240754Y-70808920D01*
X58142300Y-70808986D01*
X58050643Y-70805679D01*
X58008936Y-70802698D01*
X57970817Y-70798800D01*
X57915039Y-70790890D01*
X57864215Y-70781263D01*
X57818092Y-70769639D01*
X57796713Y-70762991D01*
X57776415Y-70755739D01*
X57757164Y-70747849D01*
X57738930Y-70739284D01*
X57721680Y-70730012D01*
X57705382Y-70719996D01*
X57690006Y-70709201D01*
X57675518Y-70697594D01*
X57661888Y-70685138D01*
X57649084Y-70671800D01*
X57637073Y-70657544D01*
X57625824Y-70642335D01*
X57615306Y-70626139D01*
X57605485Y-70608920D01*
X57596332Y-70590644D01*
X57587813Y-70571276D01*
X57579897Y-70550781D01*
X57572553Y-70529123D01*
X57565748Y-70506269D01*
X57559451Y-70482184D01*
X57548253Y-70430177D01*
X57538704Y-70372826D01*
X57530550Y-70309850D01*
X57522175Y-70211392D01*
X57517520Y-70091701D01*
X57516337Y-69959508D01*
X57518380Y-69823546D01*
X57523398Y-69692544D01*
X57531146Y-69575234D01*
X57541373Y-69480348D01*
X57547340Y-69444042D01*
X57553834Y-69416617D01*
X57561292Y-69394624D01*
X57570143Y-69373130D01*
X57580339Y-69352188D01*
X57591835Y-69331851D01*
X57604583Y-69312171D01*
X57618537Y-69293201D01*
X57633651Y-69274994D01*
X57649878Y-69257602D01*
X57667171Y-69241079D01*
X57685485Y-69225476D01*
X57704772Y-69210847D01*
X57724986Y-69197244D01*
X57746081Y-69184720D01*
X57768010Y-69173328D01*
X57790726Y-69163121D01*
X57814184Y-69154150D01*
X57830497Y-69148839D01*
X57847054Y-69144005D01*
X57864102Y-69139630D01*
X57881884Y-69135695D01*
X57900646Y-69132183D01*
X57920633Y-69129073D01*
X57942090Y-69126347D01*
X57965261Y-69123988D01*
X57990392Y-69121975D01*
X58017727Y-69120292D01*
X58047512Y-69118918D01*
X58079991Y-69117836D01*
X58154012Y-69116472D01*
X58241750Y-69116050D01*
X58336230Y-69117052D01*
G37*
G36*
X58184600Y-65090150D02*
G01*
X58218136Y-65182060D01*
X58278263Y-65352352D01*
X58444950Y-65828867D01*
X58531006Y-66073871D01*
X58603171Y-66274425D01*
X58653905Y-66409892D01*
X58668879Y-66446768D01*
X58675667Y-66459633D01*
X58677930Y-66456413D01*
X58682261Y-66446962D01*
X58696668Y-66410653D01*
X58717971Y-66353259D01*
X58745252Y-66277336D01*
X58814077Y-66080122D01*
X58895801Y-65839450D01*
X59057990Y-65369021D01*
X59117554Y-65198894D01*
X59151917Y-65104967D01*
X59166783Y-65066528D01*
X59173181Y-65050951D01*
X59179169Y-65037564D01*
X59184959Y-65026186D01*
X59187845Y-65021194D01*
X59190761Y-65016637D01*
X59193733Y-65012493D01*
X59196787Y-65008738D01*
X59199949Y-65005351D01*
X59203246Y-65002308D01*
X59206705Y-64999589D01*
X59210351Y-64997169D01*
X59214211Y-64995026D01*
X59218311Y-64993139D01*
X59222678Y-64991484D01*
X59227338Y-64990039D01*
X59232317Y-64988782D01*
X59237642Y-64987690D01*
X59249434Y-64985911D01*
X59262926Y-64984523D01*
X59295850Y-64982200D01*
X59315925Y-64981001D01*
X59334612Y-64980546D01*
X59351512Y-64980786D01*
X59366230Y-64981671D01*
X59372646Y-64982340D01*
X59378367Y-64983151D01*
X59383345Y-64984099D01*
X59387529Y-64985177D01*
X59390869Y-64986379D01*
X59393316Y-64987699D01*
X59394821Y-64989130D01*
X59395205Y-64989886D01*
X59395334Y-64990667D01*
X59389385Y-65011230D01*
X59372348Y-65062700D01*
X59309873Y-65244667D01*
X59105350Y-65828867D01*
X58813251Y-66650133D01*
X58671434Y-66650133D01*
X58615011Y-66649737D01*
X58569305Y-66648546D01*
X58551834Y-66647653D01*
X58538679Y-66646561D01*
X58530386Y-66645272D01*
X58528233Y-66644552D01*
X58527501Y-66643783D01*
X58504879Y-66577902D01*
X58443363Y-66404071D01*
X58241750Y-65837334D01*
X58040138Y-65263717D01*
X57978622Y-65082477D01*
X57961854Y-65030057D01*
X57956000Y-65007600D01*
X57956081Y-65005653D01*
X57956325Y-65003779D01*
X57956735Y-65001978D01*
X57957311Y-65000250D01*
X57958056Y-64998592D01*
X57958972Y-64997005D01*
X57960061Y-64995488D01*
X57961325Y-64994040D01*
X57962766Y-64992660D01*
X57964385Y-64991348D01*
X57966185Y-64990102D01*
X57968167Y-64988922D01*
X57970334Y-64987807D01*
X57972687Y-64986757D01*
X57975229Y-64985770D01*
X57977961Y-64984846D01*
X57980885Y-64983984D01*
X57984003Y-64983183D01*
X57987318Y-64982443D01*
X57990830Y-64981762D01*
X57994543Y-64981140D01*
X57998457Y-64980577D01*
X58002576Y-64980070D01*
X58006900Y-64979621D01*
X58011432Y-64979227D01*
X58016173Y-64978888D01*
X58021126Y-64978603D01*
X58026293Y-64978372D01*
X58037275Y-64978067D01*
X58049134Y-64977967D01*
X58144384Y-64977967D01*
X58184600Y-65090150D01*
G37*
G36*
X67840833Y-65168467D02*
G01*
X67311667Y-65168467D01*
X67311667Y-66650133D01*
X67121166Y-66650133D01*
X67121166Y-65168467D01*
X66568716Y-65168467D01*
X66575066Y-65079567D01*
X66581417Y-64988550D01*
X67212183Y-64982200D01*
X67840833Y-64977967D01*
X67840833Y-65168467D01*
G37*
G36*
X55077334Y-70608300D02*
G01*
X55924000Y-70608300D01*
X55924000Y-70798800D01*
X54865667Y-70798800D01*
X54865667Y-69126633D01*
X55077334Y-69126633D01*
X55077334Y-70608300D01*
G37*
G36*
X55272067Y-65130367D02*
G01*
X55895161Y-66148748D01*
X56091217Y-66463867D01*
X56091812Y-66463682D01*
X56092406Y-66461572D01*
X56093586Y-66451762D01*
X56095880Y-66411083D01*
X56098026Y-66344804D01*
X56099948Y-66255904D01*
X56102826Y-66022145D01*
X56103917Y-65733617D01*
X56103917Y-64988550D01*
X56294417Y-64988550D01*
X56300767Y-65820400D01*
X56305000Y-66650133D01*
X55976917Y-66650133D01*
X55528184Y-65915650D01*
X55077334Y-65183283D01*
X55077334Y-66650133D01*
X54865667Y-66650133D01*
X54869900Y-65820400D01*
X54876251Y-64988550D01*
X55026534Y-64982200D01*
X55178934Y-64975850D01*
X55272067Y-65130367D01*
G37*
G36*
X69734192Y-64976115D02*
G01*
X69747690Y-64977760D01*
X69758037Y-64980348D01*
X69761852Y-64982011D01*
X69764664Y-64983928D01*
X69766404Y-64986106D01*
X69767000Y-64988550D01*
X69765414Y-64992180D01*
X69760758Y-65000523D01*
X69742857Y-65030354D01*
X69677042Y-65135658D01*
X69579477Y-65288588D01*
X69460084Y-65473267D01*
X69153167Y-65945284D01*
X69153167Y-66650133D01*
X68941500Y-66650133D01*
X68941500Y-65953750D01*
X68645167Y-65485967D01*
X68530106Y-65302445D01*
X68435881Y-65149681D01*
X68372216Y-65043352D01*
X68354882Y-65012499D01*
X68348834Y-64999133D01*
X68348969Y-64997955D01*
X68349370Y-64996803D01*
X68350030Y-64995677D01*
X68350942Y-64994578D01*
X68352099Y-64993506D01*
X68353494Y-64992464D01*
X68355120Y-64991451D01*
X68356969Y-64990468D01*
X68359036Y-64989517D01*
X68361313Y-64988597D01*
X68363793Y-64987709D01*
X68366470Y-64986855D01*
X68372382Y-64985250D01*
X68378996Y-64983788D01*
X68386254Y-64982474D01*
X68394102Y-64981316D01*
X68402483Y-64980318D01*
X68411341Y-64979488D01*
X68420621Y-64978832D01*
X68430267Y-64978356D01*
X68440223Y-64978065D01*
X68450434Y-64977967D01*
X68552033Y-64977967D01*
X68801800Y-65369550D01*
X69051567Y-65761134D01*
X69278050Y-65403417D01*
X69368372Y-65260674D01*
X69446590Y-65139363D01*
X69504566Y-65052182D01*
X69523422Y-65025360D01*
X69534167Y-65011834D01*
X69537069Y-65008895D01*
X69540967Y-65006037D01*
X69545789Y-65003267D01*
X69551464Y-65000589D01*
X69565086Y-64995537D01*
X69581263Y-64990931D01*
X69599424Y-64986822D01*
X69618999Y-64983258D01*
X69639417Y-64980290D01*
X69660109Y-64977967D01*
X69680502Y-64976338D01*
X69700027Y-64975453D01*
X69718114Y-64975362D01*
X69734192Y-64976115D01*
G37*
G36*
X55358851Y-67056534D02*
G01*
X55630710Y-67061528D01*
X55721396Y-67064905D01*
X55789063Y-67069498D01*
X55839069Y-67075778D01*
X55859124Y-67079697D01*
X55876772Y-67084215D01*
X55892685Y-67089391D01*
X55907530Y-67095282D01*
X55936701Y-67109450D01*
X55948955Y-67116137D01*
X55960721Y-67123114D01*
X55972004Y-67130395D01*
X55982813Y-67137996D01*
X55993153Y-67145934D01*
X56003031Y-67154224D01*
X56012456Y-67162882D01*
X56021433Y-67171925D01*
X56029970Y-67181367D01*
X56038074Y-67191225D01*
X56045752Y-67201515D01*
X56053010Y-67212253D01*
X56059855Y-67223454D01*
X56066296Y-67235135D01*
X56072338Y-67247311D01*
X56077988Y-67259998D01*
X56083254Y-67273212D01*
X56088142Y-67286970D01*
X56092660Y-67301286D01*
X56096815Y-67316176D01*
X56100613Y-67331658D01*
X56104061Y-67347746D01*
X56107166Y-67364457D01*
X56109936Y-67381805D01*
X56112378Y-67399809D01*
X56114497Y-67418482D01*
X56117799Y-67457902D01*
X56119899Y-67500193D01*
X56120850Y-67545483D01*
X56120029Y-67626001D01*
X56116361Y-67697999D01*
X56113268Y-67730946D01*
X56109233Y-67761935D01*
X56104179Y-67791024D01*
X56098030Y-67818269D01*
X56090709Y-67843728D01*
X56082140Y-67867458D01*
X56072245Y-67889518D01*
X56060947Y-67909963D01*
X56048171Y-67928852D01*
X56033839Y-67946242D01*
X56017874Y-67962190D01*
X56000200Y-67976754D01*
X55980741Y-67989991D01*
X55959419Y-68001958D01*
X55936157Y-68012712D01*
X55910879Y-68022312D01*
X55883508Y-68030814D01*
X55853968Y-68038276D01*
X55822181Y-68044755D01*
X55788071Y-68050308D01*
X55751561Y-68054993D01*
X55712575Y-68058868D01*
X55626865Y-68064414D01*
X55530329Y-68067405D01*
X55422351Y-68068300D01*
X55077334Y-68068300D01*
X55077334Y-68724467D01*
X54865667Y-68724467D01*
X54865667Y-67898966D01*
X55077334Y-67898966D01*
X55390600Y-67898966D01*
X55454828Y-67898487D01*
X55517865Y-67897114D01*
X55578124Y-67894948D01*
X55634017Y-67892087D01*
X55683957Y-67888631D01*
X55726357Y-67884679D01*
X55759628Y-67880330D01*
X55782184Y-67875683D01*
X55793416Y-67872424D01*
X55804102Y-67868977D01*
X55814254Y-67865319D01*
X55823885Y-67861425D01*
X55833005Y-67857268D01*
X55841627Y-67852824D01*
X55849763Y-67848068D01*
X55857425Y-67842974D01*
X55864625Y-67837518D01*
X55871375Y-67831673D01*
X55877687Y-67825415D01*
X55883573Y-67818719D01*
X55889045Y-67811560D01*
X55894115Y-67803911D01*
X55898796Y-67795749D01*
X55903098Y-67787048D01*
X55907035Y-67777782D01*
X55910618Y-67767927D01*
X55913859Y-67757457D01*
X55916770Y-67746347D01*
X55919363Y-67734573D01*
X55921651Y-67722108D01*
X55923645Y-67708927D01*
X55925357Y-67695006D01*
X55926799Y-67680319D01*
X55927983Y-67664841D01*
X55929627Y-67631411D01*
X55930384Y-67594514D01*
X55930351Y-67553950D01*
X55929190Y-67498640D01*
X55926824Y-67449907D01*
X55924967Y-67427875D01*
X55922542Y-67407331D01*
X55919460Y-67388222D01*
X55915633Y-67370495D01*
X55910972Y-67354098D01*
X55905388Y-67338979D01*
X55898793Y-67325085D01*
X55891097Y-67312365D01*
X55882212Y-67300765D01*
X55872050Y-67290234D01*
X55860520Y-67280720D01*
X55847536Y-67272169D01*
X55833007Y-67264530D01*
X55816846Y-67257750D01*
X55798963Y-67251777D01*
X55779269Y-67246558D01*
X55757677Y-67242042D01*
X55734096Y-67238176D01*
X55708439Y-67234907D01*
X55680617Y-67232184D01*
X55618121Y-67228164D01*
X55545898Y-67225697D01*
X55463239Y-67224366D01*
X55369434Y-67223750D01*
X55077334Y-67221634D01*
X55077334Y-67898966D01*
X54865667Y-67898966D01*
X54865667Y-67048067D01*
X55358851Y-67056534D01*
G37*
G36*
X60036684Y-62929034D02*
G01*
X60283143Y-62934391D01*
X60376012Y-62937740D01*
X60451021Y-62941734D01*
X60509957Y-62946521D01*
X60554605Y-62952251D01*
X60586752Y-62959072D01*
X60598696Y-62962938D01*
X60608183Y-62967134D01*
X60616971Y-62971710D01*
X60625473Y-62976709D01*
X60633692Y-62982130D01*
X60641629Y-62987974D01*
X60649283Y-62994241D01*
X60656655Y-63000931D01*
X60663747Y-63008046D01*
X60670559Y-63015585D01*
X60677092Y-63023549D01*
X60683347Y-63031938D01*
X60689324Y-63040753D01*
X60695025Y-63049994D01*
X60700450Y-63059661D01*
X60705599Y-63069754D01*
X60710474Y-63080275D01*
X60715075Y-63091223D01*
X60719404Y-63102599D01*
X60723460Y-63114404D01*
X60727246Y-63126637D01*
X60730760Y-63139299D01*
X60734005Y-63152390D01*
X60736981Y-63165912D01*
X60739689Y-63179863D01*
X60742129Y-63194245D01*
X60746211Y-63224303D01*
X60749232Y-63256087D01*
X60751198Y-63289602D01*
X60752117Y-63324850D01*
X60752109Y-63358955D01*
X60751257Y-63390719D01*
X60749513Y-63420282D01*
X60746825Y-63447782D01*
X60743146Y-63473361D01*
X60738425Y-63497156D01*
X60732612Y-63519308D01*
X60725659Y-63539956D01*
X60717514Y-63559241D01*
X60708130Y-63577300D01*
X60697456Y-63594274D01*
X60685442Y-63610303D01*
X60672039Y-63625525D01*
X60657198Y-63640081D01*
X60640868Y-63654109D01*
X60623000Y-63667750D01*
X60561617Y-63714317D01*
X60629350Y-63748184D01*
X60642632Y-63755372D01*
X60655483Y-63763427D01*
X60667894Y-63772320D01*
X60679857Y-63782025D01*
X60691362Y-63792515D01*
X60702402Y-63803762D01*
X60712966Y-63815738D01*
X60723046Y-63828418D01*
X60732633Y-63841774D01*
X60741718Y-63855779D01*
X60750292Y-63870405D01*
X60758347Y-63885626D01*
X60765873Y-63901415D01*
X60772861Y-63917743D01*
X60779303Y-63934585D01*
X60785190Y-63951913D01*
X60790512Y-63969699D01*
X60795261Y-63987918D01*
X60799428Y-64006541D01*
X60803004Y-64025541D01*
X60805980Y-64044892D01*
X60808347Y-64064566D01*
X60810096Y-64084537D01*
X60811218Y-64104776D01*
X60811705Y-64125257D01*
X60811548Y-64145953D01*
X60810736Y-64166836D01*
X60809263Y-64187880D01*
X60807118Y-64209057D01*
X60804293Y-64230340D01*
X60800779Y-64251702D01*
X60796567Y-64273117D01*
X60790802Y-64298855D01*
X60784578Y-64322949D01*
X60777833Y-64345494D01*
X60770506Y-64366581D01*
X60762533Y-64386304D01*
X60753853Y-64404755D01*
X60744405Y-64422029D01*
X60734125Y-64438217D01*
X60722953Y-64453413D01*
X60710825Y-64467710D01*
X60697681Y-64481200D01*
X60683457Y-64493978D01*
X60668093Y-64506135D01*
X60651526Y-64517766D01*
X60633693Y-64528962D01*
X60614534Y-64539817D01*
X60599763Y-64547318D01*
X60585169Y-64553985D01*
X60570085Y-64559876D01*
X60562151Y-64562550D01*
X60553845Y-64565052D01*
X60545083Y-64567389D01*
X60535781Y-64569570D01*
X60525858Y-64571601D01*
X60515228Y-64573489D01*
X60491518Y-64576869D01*
X60463986Y-64579769D01*
X60431963Y-64582247D01*
X60394785Y-64584362D01*
X60351783Y-64586173D01*
X60302292Y-64587739D01*
X60245645Y-64589120D01*
X60181175Y-64590373D01*
X60026100Y-64592733D01*
X59522334Y-64601200D01*
X59522334Y-64433983D01*
X59712834Y-64433983D01*
X60093834Y-64423400D01*
X60208510Y-64420258D01*
X60299250Y-64416918D01*
X60369501Y-64412982D01*
X60422711Y-64408054D01*
X60444003Y-64405094D01*
X60462328Y-64401737D01*
X60478117Y-64397934D01*
X60491800Y-64393634D01*
X60503809Y-64388789D01*
X60514575Y-64383349D01*
X60524528Y-64377263D01*
X60534100Y-64370483D01*
X60540746Y-64365103D01*
X60547185Y-64359292D01*
X60553406Y-64353066D01*
X60559401Y-64346440D01*
X60565160Y-64339429D01*
X60570675Y-64332049D01*
X60575935Y-64324315D01*
X60580932Y-64316244D01*
X60585655Y-64307850D01*
X60590097Y-64299149D01*
X60594247Y-64290157D01*
X60598096Y-64280889D01*
X60601636Y-64271360D01*
X60604856Y-64261587D01*
X60607747Y-64251584D01*
X60610300Y-64241367D01*
X60613779Y-64221212D01*
X60616303Y-64199087D01*
X60617909Y-64175357D01*
X60618635Y-64150383D01*
X60618517Y-64124529D01*
X60617593Y-64098157D01*
X60615900Y-64071630D01*
X60613475Y-64045311D01*
X60610356Y-64019562D01*
X60606580Y-63994746D01*
X60602183Y-63971227D01*
X60597203Y-63949366D01*
X60591678Y-63929527D01*
X60585644Y-63912072D01*
X60579139Y-63897365D01*
X60572200Y-63885767D01*
X60568470Y-63881289D01*
X60564016Y-63876983D01*
X60558818Y-63872846D01*
X60552861Y-63868875D01*
X60546125Y-63865069D01*
X60538593Y-63861424D01*
X60530247Y-63857939D01*
X60521070Y-63854612D01*
X60511042Y-63851440D01*
X60500148Y-63848420D01*
X60475685Y-63842830D01*
X60447539Y-63837822D01*
X60415567Y-63833379D01*
X60379626Y-63829482D01*
X60339574Y-63826112D01*
X60295267Y-63823250D01*
X60246565Y-63820878D01*
X60193322Y-63818977D01*
X60135398Y-63817529D01*
X60072650Y-63816515D01*
X60004934Y-63815917D01*
X59712834Y-63813800D01*
X59712834Y-64433983D01*
X59522334Y-64433983D01*
X59522334Y-63644467D01*
X59712834Y-63644467D01*
X60049383Y-63644467D01*
X60117969Y-63643987D01*
X60184520Y-63642615D01*
X60247399Y-63640448D01*
X60304971Y-63637588D01*
X60355597Y-63634132D01*
X60397641Y-63630179D01*
X60429466Y-63625830D01*
X60441034Y-63623538D01*
X60449433Y-63621183D01*
X60456838Y-63618454D01*
X60463972Y-63615421D01*
X60470838Y-63612077D01*
X60477438Y-63608417D01*
X60483774Y-63604435D01*
X60489850Y-63600124D01*
X60495666Y-63595479D01*
X60501226Y-63590492D01*
X60506531Y-63585158D01*
X60511585Y-63579470D01*
X60516389Y-63573423D01*
X60520945Y-63567010D01*
X60525257Y-63560225D01*
X60529326Y-63553062D01*
X60533155Y-63545514D01*
X60536746Y-63537575D01*
X60540101Y-63529240D01*
X60543223Y-63520501D01*
X60546114Y-63511354D01*
X60548776Y-63501790D01*
X60551212Y-63491805D01*
X60553424Y-63481393D01*
X60555414Y-63470546D01*
X60557185Y-63459259D01*
X60558739Y-63447525D01*
X60560078Y-63435339D01*
X60561205Y-63422693D01*
X60562121Y-63409583D01*
X60563333Y-63381942D01*
X60563733Y-63352367D01*
X60563406Y-63325939D01*
X60562406Y-63301377D01*
X60560706Y-63278613D01*
X60558276Y-63257580D01*
X60555091Y-63238208D01*
X60551120Y-63220431D01*
X60546338Y-63204178D01*
X60540715Y-63189384D01*
X60534224Y-63175978D01*
X60526837Y-63163893D01*
X60518525Y-63153060D01*
X60509263Y-63143412D01*
X60499020Y-63134880D01*
X60487769Y-63127397D01*
X60475483Y-63120893D01*
X60462134Y-63115300D01*
X60454850Y-63112970D01*
X60444245Y-63110744D01*
X60430522Y-63108631D01*
X60413880Y-63106635D01*
X60372651Y-63103022D01*
X60322169Y-63099954D01*
X60264048Y-63097482D01*
X60199898Y-63095655D01*
X60131334Y-63094522D01*
X60059967Y-63094134D01*
X59712834Y-63094134D01*
X59712834Y-63644467D01*
X59522334Y-63644467D01*
X59522334Y-62920567D01*
X60036684Y-62929034D01*
G37*
G36*
X55104784Y-63545579D02*
G01*
X55293234Y-63034867D01*
X55335567Y-62922683D01*
X55473151Y-62929034D01*
X55610734Y-62935384D01*
X55915534Y-63748184D01*
X56130640Y-64327621D01*
X56196224Y-64508398D01*
X56220334Y-64580034D01*
X56220205Y-64581013D01*
X56219821Y-64581967D01*
X56219190Y-64582893D01*
X56218316Y-64583791D01*
X56217207Y-64584660D01*
X56215869Y-64585498D01*
X56214307Y-64586305D01*
X56212529Y-64587078D01*
X56210539Y-64587817D01*
X56208345Y-64588521D01*
X56203367Y-64589819D01*
X56197646Y-64590962D01*
X56191230Y-64591940D01*
X56184168Y-64592744D01*
X56176512Y-64593366D01*
X56168310Y-64593795D01*
X56159612Y-64594023D01*
X56150467Y-64594040D01*
X56140926Y-64593837D01*
X56131037Y-64593405D01*
X56120850Y-64592733D01*
X56019250Y-64586383D01*
X55957867Y-64412817D01*
X55894367Y-64237133D01*
X55062517Y-64237133D01*
X54999017Y-64412817D01*
X54935517Y-64586383D01*
X54836034Y-64592733D01*
X54824127Y-64593403D01*
X54813011Y-64593825D01*
X54802682Y-64593999D01*
X54793138Y-64593924D01*
X54784375Y-64593602D01*
X54776391Y-64593031D01*
X54769182Y-64592213D01*
X54762744Y-64591146D01*
X54757076Y-64589831D01*
X54752173Y-64588269D01*
X54748034Y-64586458D01*
X54744653Y-64584399D01*
X54742030Y-64582092D01*
X54740160Y-64579537D01*
X54739506Y-64578167D01*
X54739040Y-64576734D01*
X54738667Y-64573683D01*
X54752599Y-64528051D01*
X54791385Y-64415397D01*
X54916542Y-64064253D01*
X55127104Y-64064253D01*
X55127133Y-64065470D01*
X55127276Y-64066646D01*
X55127540Y-64067783D01*
X55127930Y-64068880D01*
X55128452Y-64069939D01*
X55129114Y-64070961D01*
X55129921Y-64071945D01*
X55130879Y-64072893D01*
X55131994Y-64073806D01*
X55133273Y-64074683D01*
X55134721Y-64075527D01*
X55136346Y-64076336D01*
X55138152Y-64077113D01*
X55140146Y-64077857D01*
X55142335Y-64078570D01*
X55144724Y-64079252D01*
X55147320Y-64079903D01*
X55150128Y-64080525D01*
X55156408Y-64081684D01*
X55163612Y-64082732D01*
X55171790Y-64083675D01*
X55180992Y-64084519D01*
X55191265Y-64085270D01*
X55202661Y-64085932D01*
X55215227Y-64086511D01*
X55229014Y-64087013D01*
X55244069Y-64087442D01*
X55260444Y-64087805D01*
X55278186Y-64088107D01*
X55317970Y-64088548D01*
X55363816Y-64088810D01*
X55416117Y-64088935D01*
X55475267Y-64088967D01*
X55837217Y-64088967D01*
X55788534Y-63957733D01*
X55617084Y-63485717D01*
X55568202Y-63353061D01*
X55526067Y-63242036D01*
X55495045Y-63163950D01*
X55485065Y-63140795D01*
X55479501Y-63130117D01*
X55478690Y-63129914D01*
X55477458Y-63130874D01*
X55473775Y-63136173D01*
X55468548Y-63145795D01*
X55461873Y-63159519D01*
X55444563Y-63198392D01*
X55422615Y-63251031D01*
X55396798Y-63315677D01*
X55367879Y-63390566D01*
X55336630Y-63473939D01*
X55303817Y-63564034D01*
X55130250Y-64052983D01*
X55128987Y-64056066D01*
X55128009Y-64058969D01*
X55127642Y-64060354D01*
X55127365Y-64061696D01*
X55127184Y-64062995D01*
X55127104Y-64064253D01*
X54916542Y-64064253D01*
X54925463Y-64039225D01*
X55104784Y-63545579D01*
G37*
G36*
X64461592Y-64989189D02*
G01*
X64534968Y-64991279D01*
X64600661Y-64995080D01*
X64659120Y-65000853D01*
X64710794Y-65008859D01*
X64756135Y-65019358D01*
X64776570Y-65025623D01*
X64795590Y-65032609D01*
X64813252Y-65040349D01*
X64829610Y-65048875D01*
X64844723Y-65058220D01*
X64858645Y-65068415D01*
X64871433Y-65079494D01*
X64883143Y-65091490D01*
X64893832Y-65104434D01*
X64903555Y-65118359D01*
X64912369Y-65133299D01*
X64920330Y-65149285D01*
X64933917Y-65184526D01*
X64944767Y-65224344D01*
X64953328Y-65268998D01*
X64960051Y-65318750D01*
X64974866Y-65443634D01*
X64873267Y-65443634D01*
X64840946Y-65443427D01*
X64827735Y-65443048D01*
X64816315Y-65442377D01*
X64806558Y-65441334D01*
X64798332Y-65439839D01*
X64794753Y-65438896D01*
X64791508Y-65437810D01*
X64788580Y-65436570D01*
X64785954Y-65435167D01*
X64783614Y-65433590D01*
X64781542Y-65431830D01*
X64779723Y-65429875D01*
X64778141Y-65427717D01*
X64776778Y-65425345D01*
X64775620Y-65422749D01*
X64774649Y-65419919D01*
X64773850Y-65416845D01*
X64772699Y-65409923D01*
X64772039Y-65401904D01*
X64771738Y-65392706D01*
X64771667Y-65382250D01*
X64771198Y-65362339D01*
X64769802Y-65343117D01*
X64767495Y-65324626D01*
X64764292Y-65306910D01*
X64760208Y-65290013D01*
X64755259Y-65273978D01*
X64749460Y-65258848D01*
X64742827Y-65244667D01*
X64735376Y-65231478D01*
X64727122Y-65219325D01*
X64718080Y-65208250D01*
X64708266Y-65198299D01*
X64697696Y-65189512D01*
X64686384Y-65181936D01*
X64674347Y-65175611D01*
X64661600Y-65170583D01*
X64641713Y-65165050D01*
X64615219Y-65160347D01*
X64583051Y-65156463D01*
X64546143Y-65153385D01*
X64461836Y-65149599D01*
X64369765Y-65148887D01*
X64277397Y-65151153D01*
X64192197Y-65156296D01*
X64154618Y-65159915D01*
X64121631Y-65164217D01*
X64094170Y-65169188D01*
X64073167Y-65174817D01*
X64064609Y-65177900D01*
X64056393Y-65181203D01*
X64048515Y-65184735D01*
X64040970Y-65188505D01*
X64033755Y-65192521D01*
X64026863Y-65196792D01*
X64020290Y-65201328D01*
X64014032Y-65206137D01*
X64008085Y-65211228D01*
X64002442Y-65216610D01*
X63997101Y-65222292D01*
X63992055Y-65228283D01*
X63987301Y-65234592D01*
X63982834Y-65241228D01*
X63978649Y-65248199D01*
X63974742Y-65255515D01*
X63971107Y-65263184D01*
X63967740Y-65271216D01*
X63964637Y-65279619D01*
X63961793Y-65288402D01*
X63959204Y-65297574D01*
X63956863Y-65307144D01*
X63954768Y-65317121D01*
X63952913Y-65327515D01*
X63951294Y-65338332D01*
X63949906Y-65349584D01*
X63948744Y-65361278D01*
X63947803Y-65373424D01*
X63946569Y-65399105D01*
X63946166Y-65426700D01*
X63946611Y-65467952D01*
X63948233Y-65504603D01*
X63949622Y-65521300D01*
X63951468Y-65536963D01*
X63953826Y-65551631D01*
X63956750Y-65565342D01*
X63960293Y-65578135D01*
X63964512Y-65590049D01*
X63969458Y-65601123D01*
X63975188Y-65611396D01*
X63981755Y-65620905D01*
X63989213Y-65629691D01*
X63997617Y-65637792D01*
X64007021Y-65645246D01*
X64017479Y-65652092D01*
X64029045Y-65658370D01*
X64041775Y-65664117D01*
X64055721Y-65669373D01*
X64070938Y-65674176D01*
X64087481Y-65678565D01*
X64105404Y-65682579D01*
X64124761Y-65686256D01*
X64167993Y-65692757D01*
X64217613Y-65698378D01*
X64274054Y-65703427D01*
X64337751Y-65708217D01*
X64443486Y-65716588D01*
X64537321Y-65725382D01*
X64619956Y-65735118D01*
X64692094Y-65746317D01*
X64754433Y-65759501D01*
X64807675Y-65775190D01*
X64831104Y-65784136D01*
X64852521Y-65793905D01*
X64872014Y-65804560D01*
X64889671Y-65816167D01*
X64905579Y-65828791D01*
X64919826Y-65842497D01*
X64932500Y-65857350D01*
X64943687Y-65873416D01*
X64953476Y-65890759D01*
X64961955Y-65909445D01*
X64969210Y-65929538D01*
X64975330Y-65951104D01*
X64984512Y-65998915D01*
X64990204Y-66053399D01*
X64993105Y-66115076D01*
X64993917Y-66184467D01*
X64993557Y-66251142D01*
X64992230Y-66305117D01*
X64991087Y-66328086D01*
X64989563Y-66348773D01*
X64987611Y-66367476D01*
X64985185Y-66384492D01*
X64982238Y-66400119D01*
X64978724Y-66414654D01*
X64974595Y-66428396D01*
X64969807Y-66441642D01*
X64964311Y-66454689D01*
X64958062Y-66467836D01*
X64943117Y-66495617D01*
X64935946Y-66507805D01*
X64928686Y-66519377D01*
X64921285Y-66530350D01*
X64913690Y-66540741D01*
X64905851Y-66550565D01*
X64897715Y-66559841D01*
X64889230Y-66568584D01*
X64880345Y-66576811D01*
X64871006Y-66584539D01*
X64861163Y-66591784D01*
X64850764Y-66598564D01*
X64839756Y-66604894D01*
X64828087Y-66610792D01*
X64815707Y-66616274D01*
X64802562Y-66621356D01*
X64788600Y-66626056D01*
X64773771Y-66630391D01*
X64758021Y-66634376D01*
X64741300Y-66638028D01*
X64723554Y-66641365D01*
X64704733Y-66644403D01*
X64684784Y-66647157D01*
X64663654Y-66649647D01*
X64641294Y-66651886D01*
X64617649Y-66653894D01*
X64592669Y-66655685D01*
X64538495Y-66658687D01*
X64478355Y-66661025D01*
X64411834Y-66662834D01*
X64336374Y-66664615D01*
X64268529Y-66665182D01*
X64207976Y-66664508D01*
X64154394Y-66662569D01*
X64107459Y-66659340D01*
X64066850Y-66654797D01*
X64032243Y-66648914D01*
X64003317Y-66641667D01*
X63972093Y-66632089D01*
X63957447Y-66626931D01*
X63943426Y-66621500D01*
X63930014Y-66615775D01*
X63917197Y-66609734D01*
X63904958Y-66603356D01*
X63893283Y-66596621D01*
X63882158Y-66589508D01*
X63871565Y-66581996D01*
X63861492Y-66574063D01*
X63851922Y-66565690D01*
X63842840Y-66556854D01*
X63834231Y-66547536D01*
X63826081Y-66537714D01*
X63818373Y-66527367D01*
X63811094Y-66516474D01*
X63804227Y-66505015D01*
X63797758Y-66492968D01*
X63791671Y-66480312D01*
X63785952Y-66467028D01*
X63780585Y-66453092D01*
X63775555Y-66438486D01*
X63770847Y-66423187D01*
X63766447Y-66407175D01*
X63762338Y-66390430D01*
X63754935Y-66354652D01*
X63748518Y-66315687D01*
X63742967Y-66273367D01*
X63728150Y-66142133D01*
X63946166Y-66142133D01*
X63946166Y-66247967D01*
X63946569Y-66274022D01*
X63947799Y-66298254D01*
X63949892Y-66320725D01*
X63952880Y-66341497D01*
X63956799Y-66360632D01*
X63961682Y-66378191D01*
X63967563Y-66394238D01*
X63974477Y-66408833D01*
X63982457Y-66422040D01*
X63986858Y-66428142D01*
X63991539Y-66433919D01*
X63996503Y-66439381D01*
X64001755Y-66444534D01*
X64013139Y-66453945D01*
X64025727Y-66462215D01*
X64039552Y-66469406D01*
X64054649Y-66475581D01*
X64071050Y-66480800D01*
X64094060Y-66485961D01*
X64123562Y-66490337D01*
X64158608Y-66493939D01*
X64198249Y-66496774D01*
X64287521Y-66500185D01*
X64383788Y-66500644D01*
X64479459Y-66498225D01*
X64566945Y-66493004D01*
X64605247Y-66489365D01*
X64638656Y-66485054D01*
X64666223Y-66480079D01*
X64687000Y-66474450D01*
X64695763Y-66471256D01*
X64704192Y-66467625D01*
X64712289Y-66463556D01*
X64720056Y-66459046D01*
X64727495Y-66454093D01*
X64734606Y-66448693D01*
X64741392Y-66442846D01*
X64747854Y-66436548D01*
X64753994Y-66429798D01*
X64759812Y-66422593D01*
X64765311Y-66414930D01*
X64770493Y-66406808D01*
X64775358Y-66398223D01*
X64779908Y-66389175D01*
X64784145Y-66379659D01*
X64788071Y-66369675D01*
X64791686Y-66359219D01*
X64794993Y-66348290D01*
X64797994Y-66336885D01*
X64800688Y-66325002D01*
X64803079Y-66312638D01*
X64805168Y-66299791D01*
X64806955Y-66286459D01*
X64808444Y-66272639D01*
X64809635Y-66258330D01*
X64810530Y-66243528D01*
X64811130Y-66228231D01*
X64811437Y-66212438D01*
X64811453Y-66196146D01*
X64811179Y-66179352D01*
X64809767Y-66144250D01*
X64807425Y-66107726D01*
X64804620Y-66075694D01*
X64802792Y-66061248D01*
X64800545Y-66047786D01*
X64797777Y-66035263D01*
X64794388Y-66023633D01*
X64790277Y-66012849D01*
X64785342Y-66002866D01*
X64779483Y-65993637D01*
X64772597Y-65985116D01*
X64764585Y-65977256D01*
X64755344Y-65970013D01*
X64744774Y-65963340D01*
X64732773Y-65957190D01*
X64719241Y-65951517D01*
X64704076Y-65946276D01*
X64687177Y-65941420D01*
X64668442Y-65936904D01*
X64647772Y-65932680D01*
X64625063Y-65928703D01*
X64600217Y-65924927D01*
X64573130Y-65921305D01*
X64511833Y-65914342D01*
X64440363Y-65907444D01*
X64263666Y-65892367D01*
X64215980Y-65888160D01*
X64171997Y-65883421D01*
X64131498Y-65878061D01*
X64094267Y-65871994D01*
X64060087Y-65865133D01*
X64028742Y-65857392D01*
X64000013Y-65848684D01*
X63973684Y-65838921D01*
X63949537Y-65828017D01*
X63927357Y-65815886D01*
X63906925Y-65802440D01*
X63888025Y-65787592D01*
X63870439Y-65771256D01*
X63853951Y-65753345D01*
X63838344Y-65733772D01*
X63823400Y-65712450D01*
X63814216Y-65697449D01*
X63805710Y-65681465D01*
X63790724Y-65646834D01*
X63778417Y-65609126D01*
X63768764Y-65568914D01*
X63761740Y-65526766D01*
X63757320Y-65483255D01*
X63755481Y-65438950D01*
X63756196Y-65394421D01*
X63759441Y-65350240D01*
X63765192Y-65306976D01*
X63773423Y-65265201D01*
X63784110Y-65225484D01*
X63797227Y-65188397D01*
X63812751Y-65154510D01*
X63821407Y-65138944D01*
X63830656Y-65124393D01*
X63840494Y-65110927D01*
X63850917Y-65098617D01*
X63866999Y-65082730D01*
X63875260Y-65075361D01*
X63883726Y-65068363D01*
X63892439Y-65061728D01*
X63901444Y-65055447D01*
X63910784Y-65049512D01*
X63920503Y-65043914D01*
X63930643Y-65038645D01*
X63941248Y-65033696D01*
X63952361Y-65029058D01*
X63964026Y-65024724D01*
X63976287Y-65020684D01*
X63989187Y-65016930D01*
X64002768Y-65013453D01*
X64017075Y-65010246D01*
X64032151Y-65007299D01*
X64048040Y-65004604D01*
X64082427Y-64999935D01*
X64120585Y-64996172D01*
X64162860Y-64993246D01*
X64209601Y-64991090D01*
X64261153Y-64989633D01*
X64317865Y-64988810D01*
X64380084Y-64988550D01*
X64461592Y-64989189D01*
G37*
G36*
X51783271Y-73597297D02*
G01*
X51789833Y-73598140D01*
X51796722Y-73599573D01*
X51803942Y-73601592D01*
X51811499Y-73604193D01*
X51827641Y-73611120D01*
X51845184Y-73620316D01*
X52964371Y-74390254D01*
X54162934Y-75226866D01*
X54185329Y-75244271D01*
X54206462Y-75262320D01*
X54226311Y-75280965D01*
X54244855Y-75300156D01*
X54262073Y-75319843D01*
X54277941Y-75339976D01*
X54292439Y-75360506D01*
X54305544Y-75381383D01*
X54317236Y-75402558D01*
X54327492Y-75423981D01*
X54336291Y-75445603D01*
X54343611Y-75467373D01*
X54349430Y-75489242D01*
X54353727Y-75511161D01*
X54356480Y-75533080D01*
X54357667Y-75554950D01*
X54357083Y-75582289D01*
X54356336Y-75594740D01*
X54355273Y-75606382D01*
X54353883Y-75617220D01*
X54352156Y-75627257D01*
X54350080Y-75636496D01*
X54347646Y-75644941D01*
X54344843Y-75652595D01*
X54341660Y-75659463D01*
X54338088Y-75665546D01*
X54334115Y-75670850D01*
X54329731Y-75675376D01*
X54324927Y-75679130D01*
X54319690Y-75682113D01*
X54314011Y-75684331D01*
X54307879Y-75685786D01*
X54301285Y-75686481D01*
X54294216Y-75686421D01*
X54286664Y-75685608D01*
X54278617Y-75684047D01*
X54270065Y-75681740D01*
X54260997Y-75678692D01*
X54251404Y-75674905D01*
X54241274Y-75670383D01*
X54230597Y-75665130D01*
X54219363Y-75659150D01*
X54207562Y-75652444D01*
X54182213Y-75636875D01*
X54154467Y-75618449D01*
X53572219Y-75218532D01*
X52787365Y-74671771D01*
X52090221Y-74181365D01*
X51771101Y-73950516D01*
X51762063Y-73941286D01*
X51753969Y-73932533D01*
X51746767Y-73924090D01*
X51743486Y-73919932D01*
X51740409Y-73915790D01*
X51737531Y-73911641D01*
X51734844Y-73907465D01*
X51732344Y-73903241D01*
X51730024Y-73898947D01*
X51727877Y-73894564D01*
X51725898Y-73890070D01*
X51724080Y-73885445D01*
X51722417Y-73880666D01*
X51720903Y-73875714D01*
X51719532Y-73870568D01*
X51718297Y-73865206D01*
X51717192Y-73859607D01*
X51716211Y-73853751D01*
X51715348Y-73847617D01*
X51713951Y-73834431D01*
X51712950Y-73819880D01*
X51712297Y-73803797D01*
X51711941Y-73786015D01*
X51711834Y-73766367D01*
X51712262Y-73737612D01*
X51713570Y-73711648D01*
X51715797Y-73688437D01*
X51718978Y-73667942D01*
X51723151Y-73650126D01*
X51725622Y-73642211D01*
X51728354Y-73634951D01*
X51731353Y-73628343D01*
X51734623Y-73622382D01*
X51738170Y-73617062D01*
X51741996Y-73612379D01*
X51746109Y-73608329D01*
X51750511Y-73604907D01*
X51755207Y-73602107D01*
X51760203Y-73599927D01*
X51765503Y-73598360D01*
X51771111Y-73597403D01*
X51777032Y-73597050D01*
X51783271Y-73597297D01*
G37*
G36*
X62026351Y-62924800D02*
G01*
X62221943Y-62926652D01*
X62387771Y-62931679D01*
X62455678Y-62935136D01*
X62511530Y-62939088D01*
X62553789Y-62943437D01*
X62580917Y-62948084D01*
X62601440Y-62954889D01*
X62621675Y-62963338D01*
X62641532Y-62973338D01*
X62660920Y-62984795D01*
X62679751Y-62997615D01*
X62697933Y-63011708D01*
X62715377Y-63026978D01*
X62731994Y-63043334D01*
X62747693Y-63060681D01*
X62762384Y-63078928D01*
X62775977Y-63097981D01*
X62788383Y-63117748D01*
X62799512Y-63138134D01*
X62809273Y-63159047D01*
X62817577Y-63180395D01*
X62824334Y-63202083D01*
X62830442Y-63227808D01*
X62835297Y-63256968D01*
X62838937Y-63288981D01*
X62841399Y-63323263D01*
X62842720Y-63359232D01*
X62842937Y-63396304D01*
X62842087Y-63433898D01*
X62840208Y-63471429D01*
X62837337Y-63508316D01*
X62833511Y-63543975D01*
X62828767Y-63577823D01*
X62823143Y-63609277D01*
X62816675Y-63637755D01*
X62809401Y-63662673D01*
X62801358Y-63683449D01*
X62792584Y-63699500D01*
X62788673Y-63705221D01*
X62784121Y-63711237D01*
X62778980Y-63717494D01*
X62773302Y-63723941D01*
X62767141Y-63730524D01*
X62760548Y-63737191D01*
X62753578Y-63743889D01*
X62746281Y-63750565D01*
X62738712Y-63757166D01*
X62730923Y-63763641D01*
X62722966Y-63769936D01*
X62714895Y-63775998D01*
X62706762Y-63781775D01*
X62698619Y-63787214D01*
X62690520Y-63792262D01*
X62682516Y-63796867D01*
X62608433Y-63841317D01*
X62671934Y-63868834D01*
X62682956Y-63873449D01*
X62693411Y-63878195D01*
X62703313Y-63883119D01*
X62712680Y-63888264D01*
X62721525Y-63893676D01*
X62729865Y-63899399D01*
X62737715Y-63905479D01*
X62745091Y-63911961D01*
X62752008Y-63918889D01*
X62758481Y-63926308D01*
X62764527Y-63934264D01*
X62770160Y-63942801D01*
X62775397Y-63951965D01*
X62780252Y-63961799D01*
X62784741Y-63972350D01*
X62788880Y-63983663D01*
X62792684Y-63995781D01*
X62796168Y-64008751D01*
X62799349Y-64022616D01*
X62802241Y-64037423D01*
X62804861Y-64053215D01*
X62807223Y-64070039D01*
X62809343Y-64087938D01*
X62811237Y-64106959D01*
X62812920Y-64127145D01*
X62814408Y-64148542D01*
X62816859Y-64195148D01*
X62818716Y-64247136D01*
X62820101Y-64304867D01*
X62828567Y-64596967D01*
X62640184Y-64596967D01*
X62629600Y-64332383D01*
X62624213Y-64234384D01*
X62620908Y-64192434D01*
X62617065Y-64154815D01*
X62612591Y-64121252D01*
X62607388Y-64091468D01*
X62601360Y-64065188D01*
X62594411Y-64042136D01*
X62586445Y-64022035D01*
X62577366Y-64004610D01*
X62567078Y-63989585D01*
X62555484Y-63976684D01*
X62542489Y-63965631D01*
X62527996Y-63956150D01*
X62511910Y-63947965D01*
X62494134Y-63940800D01*
X62486900Y-63938470D01*
X62476444Y-63936244D01*
X62462968Y-63934131D01*
X62446674Y-63932135D01*
X62406436Y-63928522D01*
X62357344Y-63925454D01*
X62301008Y-63922982D01*
X62239042Y-63921155D01*
X62173058Y-63920022D01*
X62104667Y-63919633D01*
X61768117Y-63919633D01*
X61761767Y-64254067D01*
X61755417Y-64586383D01*
X61655934Y-64592733D01*
X61554333Y-64599084D01*
X61554333Y-63754533D01*
X61766000Y-63754533D01*
X62121601Y-63746067D01*
X62193944Y-63743309D01*
X62263781Y-63739882D01*
X62329402Y-63735909D01*
X62389094Y-63731515D01*
X62441147Y-63726823D01*
X62483848Y-63721957D01*
X62515486Y-63717041D01*
X62526622Y-63714604D01*
X62534350Y-63712200D01*
X62541586Y-63709001D01*
X62548610Y-63705361D01*
X62555421Y-63701286D01*
X62562015Y-63696780D01*
X62568393Y-63691849D01*
X62574552Y-63686500D01*
X62580491Y-63680736D01*
X62586208Y-63674563D01*
X62591702Y-63667988D01*
X62596972Y-63661015D01*
X62602014Y-63653649D01*
X62606829Y-63645897D01*
X62611415Y-63637764D01*
X62615769Y-63629254D01*
X62619891Y-63620374D01*
X62623779Y-63611129D01*
X62627432Y-63601525D01*
X62630847Y-63591566D01*
X62634023Y-63581258D01*
X62636959Y-63570607D01*
X62639653Y-63559618D01*
X62642104Y-63548296D01*
X62644310Y-63536647D01*
X62646269Y-63524677D01*
X62647980Y-63512390D01*
X62649442Y-63499792D01*
X62651610Y-63473687D01*
X62652762Y-63446402D01*
X62652884Y-63417983D01*
X62652440Y-63388866D01*
X62651119Y-63361061D01*
X62648935Y-63334589D01*
X62645905Y-63309471D01*
X62642045Y-63285731D01*
X62637368Y-63263388D01*
X62631892Y-63242466D01*
X62625631Y-63222986D01*
X62618602Y-63204969D01*
X62610819Y-63188437D01*
X62602298Y-63173412D01*
X62593054Y-63159916D01*
X62583104Y-63147970D01*
X62572462Y-63137595D01*
X62561145Y-63128815D01*
X62549167Y-63121650D01*
X62541298Y-63118202D01*
X62531163Y-63114998D01*
X62518727Y-63112037D01*
X62503956Y-63109314D01*
X62486817Y-63106827D01*
X62467274Y-63104572D01*
X62445295Y-63102547D01*
X62420844Y-63100748D01*
X62393888Y-63099173D01*
X62364393Y-63097817D01*
X62297647Y-63095754D01*
X62220335Y-63094535D01*
X62132183Y-63094134D01*
X61766000Y-63094134D01*
X61766000Y-63754533D01*
X61554333Y-63754533D01*
X61554333Y-62924800D01*
X62026351Y-62924800D01*
G37*
G36*
X51755760Y-75306867D02*
G01*
X51760481Y-75307350D01*
X51765483Y-75308211D01*
X51770770Y-75309449D01*
X51776349Y-75311063D01*
X51782225Y-75313050D01*
X51788403Y-75315408D01*
X51794888Y-75318135D01*
X51808805Y-75324690D01*
X51824017Y-75332700D01*
X51857888Y-75354433D01*
X51937027Y-75407742D01*
X52210574Y-75594902D01*
X53074967Y-76192066D01*
X53601290Y-76560664D01*
X53985134Y-76834210D01*
X54123007Y-76935153D01*
X54224516Y-77012109D01*
X54289413Y-77065006D01*
X54317450Y-77093767D01*
X54326656Y-77109274D01*
X54334442Y-77124760D01*
X54340826Y-77140103D01*
X54345827Y-77155183D01*
X54349464Y-77169878D01*
X54351755Y-77184068D01*
X54352720Y-77197631D01*
X54352376Y-77210448D01*
X54351719Y-77216538D01*
X54350742Y-77222396D01*
X54349447Y-77228006D01*
X54347836Y-77233355D01*
X54345913Y-77238425D01*
X54343678Y-77243203D01*
X54341136Y-77247674D01*
X54338287Y-77251821D01*
X54335134Y-77255631D01*
X54331679Y-77259088D01*
X54327925Y-77262176D01*
X54323875Y-77264881D01*
X54319530Y-77267188D01*
X54314893Y-77269081D01*
X54309965Y-77270545D01*
X54304751Y-77271566D01*
X54301943Y-77271771D01*
X54298684Y-77271597D01*
X54294981Y-77271049D01*
X54290843Y-77270131D01*
X54281291Y-77267208D01*
X54270090Y-77262868D01*
X54257301Y-77257151D01*
X54242987Y-77250098D01*
X54227209Y-77241748D01*
X54210030Y-77232143D01*
X54191511Y-77221323D01*
X54171715Y-77209327D01*
X54150703Y-77196196D01*
X54128538Y-77181972D01*
X54105282Y-77166692D01*
X54080996Y-77150399D01*
X54029584Y-77114933D01*
X52833667Y-76285200D01*
X52453659Y-76020616D01*
X52130405Y-75792545D01*
X51898431Y-75625593D01*
X51827465Y-75572726D01*
X51792267Y-75544366D01*
X51780551Y-75533212D01*
X51769972Y-75522703D01*
X51760479Y-75512740D01*
X51752018Y-75503224D01*
X51744536Y-75494054D01*
X51737982Y-75485133D01*
X51732303Y-75476360D01*
X51727444Y-75467637D01*
X51723355Y-75458864D01*
X51719982Y-75449943D01*
X51717273Y-75440774D01*
X51715174Y-75431257D01*
X51713634Y-75421294D01*
X51712599Y-75410785D01*
X51712016Y-75399631D01*
X51711834Y-75387733D01*
X51712164Y-75372302D01*
X51712584Y-75365214D01*
X51713182Y-75358542D01*
X51713962Y-75352284D01*
X51714931Y-75346438D01*
X51716094Y-75341002D01*
X51717456Y-75335974D01*
X51719023Y-75331352D01*
X51720800Y-75327134D01*
X51722792Y-75323319D01*
X51725005Y-75319904D01*
X51727445Y-75316888D01*
X51730116Y-75314268D01*
X51733025Y-75312043D01*
X51736176Y-75310210D01*
X51739575Y-75308768D01*
X51743227Y-75307714D01*
X51747139Y-75307048D01*
X51751315Y-75306766D01*
X51755760Y-75306867D01*
G37*
D11*
X39785714Y-98916666D02*
X40261904Y-98916666D01*
X39690476Y-99202380D02*
X40023809Y-98202380D01*
X40357142Y-99202380D01*
X40595238Y-98202380D02*
X41214285Y-98202380D01*
X40880952Y-98583333D01*
X41023809Y-98583333D01*
X41119047Y-98630952D01*
X41166666Y-98678571D01*
X41214285Y-98773809D01*
X41214285Y-99011904D01*
X41166666Y-99107142D01*
X41119047Y-99154761D01*
X41023809Y-99202380D01*
X40738095Y-99202380D01*
X40642857Y-99154761D01*
X40595238Y-99107142D01*
X82190476Y-24452380D02*
X82142857Y-24500000D01*
X82047619Y-24547619D01*
X81809523Y-24547619D01*
X81714285Y-24500000D01*
X81666666Y-24452380D01*
X81619047Y-24357142D01*
X81619047Y-24261904D01*
X81666666Y-24119047D01*
X82238095Y-23547619D01*
X81619047Y-23547619D01*
X80761904Y-24214285D02*
X80761904Y-23547619D01*
X81000000Y-24595238D02*
X81238095Y-23880952D01*
X80619047Y-23880952D01*
X80380952Y-24547619D02*
X80047619Y-23547619D01*
X79714285Y-24547619D01*
X39785714Y-92666666D02*
X40261904Y-92666666D01*
X39690476Y-92952380D02*
X40023809Y-91952380D01*
X40357142Y-92952380D01*
X40642857Y-92047619D02*
X40690476Y-92000000D01*
X40785714Y-91952380D01*
X41023809Y-91952380D01*
X41119047Y-92000000D01*
X41166666Y-92047619D01*
X41214285Y-92142857D01*
X41214285Y-92238095D01*
X41166666Y-92380952D01*
X40595238Y-92952380D01*
X41214285Y-92952380D01*
X26547619Y-62404761D02*
X25738095Y-62404761D01*
X25642857Y-62452380D01*
X25595238Y-62500000D01*
X25547619Y-62595238D01*
X25547619Y-62785714D01*
X25595238Y-62880952D01*
X25642857Y-62928571D01*
X25738095Y-62976190D01*
X26547619Y-62976190D01*
X25833333Y-63404761D02*
X25833333Y-63880952D01*
X25547619Y-63309523D02*
X26547619Y-63642857D01*
X25547619Y-63976190D01*
X25547619Y-64880952D02*
X26023809Y-64547619D01*
X25547619Y-64309523D02*
X26547619Y-64309523D01*
X26547619Y-64690476D01*
X26500000Y-64785714D01*
X26452380Y-64833333D01*
X26357142Y-64880952D01*
X26214285Y-64880952D01*
X26119047Y-64833333D01*
X26071428Y-64785714D01*
X26023809Y-64690476D01*
X26023809Y-64309523D01*
X26547619Y-65166666D02*
X26547619Y-65738095D01*
X25547619Y-65452380D02*
X26547619Y-65452380D01*
D12*
X81828571Y-33207142D02*
X82971428Y-33207142D01*
D11*
X44095238Y-107452380D02*
X43761904Y-106976190D01*
X43523809Y-107452380D02*
X43523809Y-106452380D01*
X43904761Y-106452380D01*
X44000000Y-106500000D01*
X44047619Y-106547619D01*
X44095238Y-106642857D01*
X44095238Y-106785714D01*
X44047619Y-106880952D01*
X44000000Y-106928571D01*
X43904761Y-106976190D01*
X43523809Y-106976190D01*
X44523809Y-106928571D02*
X44857142Y-106928571D01*
X45000000Y-107452380D02*
X44523809Y-107452380D01*
X44523809Y-106452380D01*
X45000000Y-106452380D01*
X45904761Y-107452380D02*
X45428571Y-107452380D01*
X45428571Y-106452380D01*
X46190476Y-107166666D02*
X46666666Y-107166666D01*
X46095238Y-107452380D02*
X46428571Y-106452380D01*
X46761904Y-107452380D01*
X47285714Y-106976190D02*
X47285714Y-107452380D01*
X46952380Y-106452380D02*
X47285714Y-106976190D01*
X47619047Y-106452380D01*
D12*
X79278571Y-33207142D02*
X80421428Y-33207142D01*
X79850000Y-33778571D02*
X79850000Y-32635714D01*
D13*
X54712723Y-80321428D02*
X53879389Y-80321428D01*
X53715699Y-81630952D02*
X54028199Y-79130952D01*
X55218675Y-79130952D01*
X55858556Y-81630952D02*
X56066889Y-79964285D01*
X56171056Y-79130952D02*
X56037127Y-79250000D01*
X56141294Y-79369047D01*
X56275223Y-79250000D01*
X56171056Y-79130952D01*
X56141294Y-79369047D01*
X57049032Y-81630952D02*
X57257366Y-79964285D01*
X57197842Y-80440476D02*
X57346651Y-80202380D01*
X57480580Y-80083333D01*
X57733556Y-79964285D01*
X57971651Y-79964285D01*
X58596651Y-81630952D02*
X58804985Y-79964285D01*
X58909151Y-79130952D02*
X58775223Y-79250000D01*
X58879389Y-79369047D01*
X59013318Y-79250000D01*
X58909151Y-79130952D01*
X58879389Y-79369047D01*
X59995461Y-79964285D02*
X59787127Y-81630952D01*
X59965699Y-80202380D02*
X60099627Y-80083333D01*
X60352604Y-79964285D01*
X60709747Y-79964285D01*
X60932961Y-80083333D01*
X61022247Y-80321428D01*
X60858556Y-81630952D01*
X63328794Y-79964285D02*
X63075818Y-81988095D01*
X62927008Y-82226190D01*
X62793080Y-82345238D01*
X62540104Y-82464285D01*
X62182961Y-82464285D01*
X61959747Y-82345238D01*
X63135342Y-81511904D02*
X62882366Y-81630952D01*
X62406175Y-81630952D01*
X62182961Y-81511904D01*
X62078794Y-81392857D01*
X61989508Y-81154761D01*
X62078794Y-80440476D01*
X62227604Y-80202380D01*
X62361532Y-80083333D01*
X62614508Y-79964285D01*
X63090699Y-79964285D01*
X63313913Y-80083333D01*
X64310937Y-81630952D02*
X64623437Y-79130952D01*
X65575818Y-79130952D01*
X65799032Y-79250000D01*
X65903199Y-79369047D01*
X65992485Y-79607142D01*
X65947842Y-79964285D01*
X65799032Y-80202380D01*
X65665104Y-80321428D01*
X65412127Y-80440476D01*
X64459747Y-80440476D01*
X66810937Y-81630952D02*
X67019270Y-79964285D01*
X67123437Y-79130952D02*
X66989508Y-79250000D01*
X67093675Y-79369047D01*
X67227604Y-79250000D01*
X67123437Y-79130952D01*
X67093675Y-79369047D01*
D11*
X39785714Y-90916666D02*
X40261904Y-90916666D01*
X39690476Y-91202380D02*
X40023809Y-90202380D01*
X40357142Y-91202380D01*
X41214285Y-91202380D02*
X40642857Y-91202380D01*
X40928571Y-91202380D02*
X40928571Y-90202380D01*
X40833333Y-90345238D01*
X40738095Y-90440476D01*
X40642857Y-90488095D01*
X39785714Y-84666666D02*
X40261904Y-84666666D01*
X39690476Y-84952380D02*
X40023809Y-83952380D01*
X40357142Y-84952380D01*
X40880952Y-83952380D02*
X40976190Y-83952380D01*
X41071428Y-84000000D01*
X41119047Y-84047619D01*
X41166666Y-84142857D01*
X41214285Y-84333333D01*
X41214285Y-84571428D01*
X41166666Y-84761904D01*
X41119047Y-84857142D01*
X41071428Y-84904761D01*
X40976190Y-84952380D01*
X40880952Y-84952380D01*
X40785714Y-84904761D01*
X40738095Y-84857142D01*
X40690476Y-84761904D01*
X40642857Y-84571428D01*
X40642857Y-84333333D01*
X40690476Y-84142857D01*
X40738095Y-84047619D01*
X40785714Y-84000000D01*
X40880952Y-83952380D01*
%TO.C,PT0*%
X88452380Y-65119047D02*
X87452380Y-65119047D01*
X87452380Y-64738095D01*
X87500000Y-64642857D01*
X87547619Y-64595238D01*
X87642857Y-64547619D01*
X87785714Y-64547619D01*
X87880952Y-64595238D01*
X87928571Y-64642857D01*
X87976190Y-64738095D01*
X87976190Y-65119047D01*
X87452380Y-64261904D02*
X87452380Y-63690476D01*
X88452380Y-63976190D02*
X87452380Y-63976190D01*
X87452380Y-63166666D02*
X87452380Y-63071428D01*
X87500000Y-62976190D01*
X87547619Y-62928571D01*
X87642857Y-62880952D01*
X87833333Y-62833333D01*
X88071428Y-62833333D01*
X88261904Y-62880952D01*
X88357142Y-62928571D01*
X88404761Y-62976190D01*
X88452380Y-63071428D01*
X88452380Y-63166666D01*
X88404761Y-63261904D01*
X88357142Y-63309523D01*
X88261904Y-63357142D01*
X88071428Y-63404761D01*
X87833333Y-63404761D01*
X87642857Y-63357142D01*
X87547619Y-63309523D01*
X87500000Y-63261904D01*
X87452380Y-63166666D01*
%TO.C,PT6*%
X25547619Y-94880952D02*
X26547619Y-94880952D01*
X26547619Y-95261904D01*
X26500000Y-95357142D01*
X26452380Y-95404761D01*
X26357142Y-95452380D01*
X26214285Y-95452380D01*
X26119047Y-95404761D01*
X26071428Y-95357142D01*
X26023809Y-95261904D01*
X26023809Y-94880952D01*
X26547619Y-95738095D02*
X26547619Y-96309523D01*
X25547619Y-96023809D02*
X26547619Y-96023809D01*
X26547619Y-97071428D02*
X26547619Y-96880952D01*
X26500000Y-96785714D01*
X26452380Y-96738095D01*
X26309523Y-96642857D01*
X26119047Y-96595238D01*
X25738095Y-96595238D01*
X25642857Y-96642857D01*
X25595238Y-96690476D01*
X25547619Y-96785714D01*
X25547619Y-96976190D01*
X25595238Y-97071428D01*
X25642857Y-97119047D01*
X25738095Y-97166666D01*
X25976190Y-97166666D01*
X26071428Y-97119047D01*
X26119047Y-97071428D01*
X26166666Y-96976190D01*
X26166666Y-96785714D01*
X26119047Y-96690476D01*
X26071428Y-96642857D01*
X25976190Y-96595238D01*
%TO.C,PT2*%
X88452380Y-81119047D02*
X87452380Y-81119047D01*
X87452380Y-80738095D01*
X87500000Y-80642857D01*
X87547619Y-80595238D01*
X87642857Y-80547619D01*
X87785714Y-80547619D01*
X87880952Y-80595238D01*
X87928571Y-80642857D01*
X87976190Y-80738095D01*
X87976190Y-81119047D01*
X87452380Y-80261904D02*
X87452380Y-79690476D01*
X88452380Y-79976190D02*
X87452380Y-79976190D01*
X87547619Y-79404761D02*
X87500000Y-79357142D01*
X87452380Y-79261904D01*
X87452380Y-79023809D01*
X87500000Y-78928571D01*
X87547619Y-78880952D01*
X87642857Y-78833333D01*
X87738095Y-78833333D01*
X87880952Y-78880952D01*
X88452380Y-79452380D01*
X88452380Y-78833333D01*
%TO.C,LC0*%
X81702380Y-104666666D02*
X81702380Y-105142857D01*
X80702380Y-105142857D01*
X81607142Y-103761904D02*
X81654761Y-103809523D01*
X81702380Y-103952380D01*
X81702380Y-104047619D01*
X81654761Y-104190476D01*
X81559523Y-104285714D01*
X81464285Y-104333333D01*
X81273809Y-104380952D01*
X81130952Y-104380952D01*
X80940476Y-104333333D01*
X80845238Y-104285714D01*
X80750000Y-104190476D01*
X80702380Y-104047619D01*
X80702380Y-103952380D01*
X80750000Y-103809523D01*
X80797619Y-103761904D01*
X80702380Y-103142857D02*
X80702380Y-103047619D01*
X80750000Y-102952380D01*
X80797619Y-102904761D01*
X80892857Y-102857142D01*
X81083333Y-102809523D01*
X81321428Y-102809523D01*
X81511904Y-102857142D01*
X81607142Y-102904761D01*
X81654761Y-102952380D01*
X81702380Y-103047619D01*
X81702380Y-103142857D01*
X81654761Y-103238095D01*
X81607142Y-103285714D01*
X81511904Y-103333333D01*
X81321428Y-103380952D01*
X81083333Y-103380952D01*
X80892857Y-103333333D01*
X80797619Y-103285714D01*
X80750000Y-103238095D01*
X80702380Y-103142857D01*
%TO.C,RTD0*%
X25547619Y-70952380D02*
X26023809Y-70619047D01*
X25547619Y-70380952D02*
X26547619Y-70380952D01*
X26547619Y-70761904D01*
X26500000Y-70857142D01*
X26452380Y-70904761D01*
X26357142Y-70952380D01*
X26214285Y-70952380D01*
X26119047Y-70904761D01*
X26071428Y-70857142D01*
X26023809Y-70761904D01*
X26023809Y-70380952D01*
X26547619Y-71238095D02*
X26547619Y-71809523D01*
X25547619Y-71523809D02*
X26547619Y-71523809D01*
X25547619Y-72142857D02*
X26547619Y-72142857D01*
X26547619Y-72380952D01*
X26500000Y-72523809D01*
X26404761Y-72619047D01*
X26309523Y-72666666D01*
X26119047Y-72714285D01*
X25976190Y-72714285D01*
X25785714Y-72666666D01*
X25690476Y-72619047D01*
X25595238Y-72523809D01*
X25547619Y-72380952D01*
X25547619Y-72142857D01*
X26547619Y-73333333D02*
X26547619Y-73428571D01*
X26500000Y-73523809D01*
X26452380Y-73571428D01*
X26357142Y-73619047D01*
X26166666Y-73666666D01*
X25928571Y-73666666D01*
X25738095Y-73619047D01*
X25642857Y-73571428D01*
X25595238Y-73523809D01*
X25547619Y-73428571D01*
X25547619Y-73333333D01*
X25595238Y-73238095D01*
X25642857Y-73190476D01*
X25738095Y-73142857D01*
X25928571Y-73095238D01*
X26166666Y-73095238D01*
X26357142Y-73142857D01*
X26452380Y-73190476D01*
X26500000Y-73238095D01*
X26547619Y-73333333D01*
%TO.C,RTD1*%
X25547619Y-78952380D02*
X26023809Y-78619047D01*
X25547619Y-78380952D02*
X26547619Y-78380952D01*
X26547619Y-78761904D01*
X26500000Y-78857142D01*
X26452380Y-78904761D01*
X26357142Y-78952380D01*
X26214285Y-78952380D01*
X26119047Y-78904761D01*
X26071428Y-78857142D01*
X26023809Y-78761904D01*
X26023809Y-78380952D01*
X26547619Y-79238095D02*
X26547619Y-79809523D01*
X25547619Y-79523809D02*
X26547619Y-79523809D01*
X25547619Y-80142857D02*
X26547619Y-80142857D01*
X26547619Y-80380952D01*
X26500000Y-80523809D01*
X26404761Y-80619047D01*
X26309523Y-80666666D01*
X26119047Y-80714285D01*
X25976190Y-80714285D01*
X25785714Y-80666666D01*
X25690476Y-80619047D01*
X25595238Y-80523809D01*
X25547619Y-80380952D01*
X25547619Y-80142857D01*
X25547619Y-81666666D02*
X25547619Y-81095238D01*
X25547619Y-81380952D02*
X26547619Y-81380952D01*
X26404761Y-81285714D01*
X26309523Y-81190476D01*
X26261904Y-81095238D01*
%TO.C,PT5*%
X25547619Y-86880952D02*
X26547619Y-86880952D01*
X26547619Y-87261904D01*
X26500000Y-87357142D01*
X26452380Y-87404761D01*
X26357142Y-87452380D01*
X26214285Y-87452380D01*
X26119047Y-87404761D01*
X26071428Y-87357142D01*
X26023809Y-87261904D01*
X26023809Y-86880952D01*
X26547619Y-87738095D02*
X26547619Y-88309523D01*
X25547619Y-88023809D02*
X26547619Y-88023809D01*
X26547619Y-89119047D02*
X26547619Y-88642857D01*
X26071428Y-88595238D01*
X26119047Y-88642857D01*
X26166666Y-88738095D01*
X26166666Y-88976190D01*
X26119047Y-89071428D01*
X26071428Y-89119047D01*
X25976190Y-89166666D01*
X25738095Y-89166666D01*
X25642857Y-89119047D01*
X25595238Y-89071428D01*
X25547619Y-88976190D01*
X25547619Y-88738095D01*
X25595238Y-88642857D01*
X25642857Y-88595238D01*
%TO.C,PT3*%
X88452380Y-89119047D02*
X87452380Y-89119047D01*
X87452380Y-88738095D01*
X87500000Y-88642857D01*
X87547619Y-88595238D01*
X87642857Y-88547619D01*
X87785714Y-88547619D01*
X87880952Y-88595238D01*
X87928571Y-88642857D01*
X87976190Y-88738095D01*
X87976190Y-89119047D01*
X87452380Y-88261904D02*
X87452380Y-87690476D01*
X88452380Y-87976190D02*
X87452380Y-87976190D01*
X87452380Y-87452380D02*
X87452380Y-86833333D01*
X87833333Y-87166666D01*
X87833333Y-87023809D01*
X87880952Y-86928571D01*
X87928571Y-86880952D01*
X88023809Y-86833333D01*
X88261904Y-86833333D01*
X88357142Y-86880952D01*
X88404761Y-86928571D01*
X88452380Y-87023809D01*
X88452380Y-87309523D01*
X88404761Y-87404761D01*
X88357142Y-87452380D01*
%TO.C,PT1*%
X88452380Y-73119047D02*
X87452380Y-73119047D01*
X87452380Y-72738095D01*
X87500000Y-72642857D01*
X87547619Y-72595238D01*
X87642857Y-72547619D01*
X87785714Y-72547619D01*
X87880952Y-72595238D01*
X87928571Y-72642857D01*
X87976190Y-72738095D01*
X87976190Y-73119047D01*
X87452380Y-72261904D02*
X87452380Y-71690476D01*
X88452380Y-71976190D02*
X87452380Y-71976190D01*
X88452380Y-70833333D02*
X88452380Y-71404761D01*
X88452380Y-71119047D02*
X87452380Y-71119047D01*
X87595238Y-71214285D01*
X87690476Y-71309523D01*
X87738095Y-71404761D01*
%TO.C,PT4*%
X88452380Y-97144047D02*
X87452380Y-97144047D01*
X87452380Y-96763095D01*
X87500000Y-96667857D01*
X87547619Y-96620238D01*
X87642857Y-96572619D01*
X87785714Y-96572619D01*
X87880952Y-96620238D01*
X87928571Y-96667857D01*
X87976190Y-96763095D01*
X87976190Y-97144047D01*
X87452380Y-96286904D02*
X87452380Y-95715476D01*
X88452380Y-96001190D02*
X87452380Y-96001190D01*
X87785714Y-94953571D02*
X88452380Y-94953571D01*
X87404761Y-95191666D02*
X88119047Y-95429761D01*
X88119047Y-94810714D01*
D14*
%TO.C,C4*%
X63809420Y-99010000D02*
X64090580Y-99010000D01*
X63809420Y-97990000D02*
X64090580Y-97990000D01*
%TO.C,C1*%
X86688000Y-46317041D02*
X82940000Y-46317041D01*
X86285000Y-46837041D02*
X76715000Y-46837041D01*
X80060000Y-46237041D02*
X76257000Y-46237041D01*
X85024000Y-47957041D02*
X77976000Y-47957041D01*
X80060000Y-44077041D02*
X75325000Y-44077041D01*
X87408000Y-44957041D02*
X82940000Y-44957041D01*
X80060000Y-43837041D02*
X75276000Y-43837041D01*
X87162000Y-45517041D02*
X82940000Y-45517041D01*
X87605000Y-44357041D02*
X82940000Y-44357041D01*
X87328000Y-45157041D02*
X82940000Y-45157041D01*
X87812000Y-43156041D02*
X75188000Y-43156041D01*
X85602000Y-47517041D02*
X77398000Y-47517041D01*
X80060000Y-44317041D02*
X75384000Y-44317041D01*
X87202000Y-45437041D02*
X82940000Y-45437041D01*
X80060000Y-45717041D02*
X75942000Y-45717041D01*
X86822000Y-46117041D02*
X82940000Y-46117041D01*
X80060000Y-44277041D02*
X75374000Y-44277041D01*
X87809000Y-43196041D02*
X75191000Y-43196041D01*
X87439000Y-44877041D02*
X82940000Y-44877041D01*
X87182000Y-45477041D02*
X82940000Y-45477041D01*
X87780000Y-43477041D02*
X75220000Y-43477041D01*
X80060000Y-45277041D02*
X75724000Y-45277041D01*
X87775000Y-43517041D02*
X75225000Y-43517041D01*
X87830000Y-42716041D02*
X75170000Y-42716041D01*
X85457000Y-47637041D02*
X77543000Y-47637041D01*
X84902000Y-48037041D02*
X78098000Y-48037041D01*
X87080000Y-45677041D02*
X82940000Y-45677041D01*
X80060000Y-44037041D02*
X75316000Y-44037041D01*
X80060000Y-46397041D02*
X76369000Y-46397041D01*
X86418000Y-46677041D02*
X76582000Y-46677041D01*
X87058000Y-45717041D02*
X82940000Y-45717041D01*
X86716000Y-46277041D02*
X82940000Y-46277041D01*
X86921000Y-45957041D02*
X82940000Y-45957041D01*
X85949000Y-47197041D02*
X77051000Y-47197041D01*
X80060000Y-44477041D02*
X75429000Y-44477041D01*
X86512000Y-46557041D02*
X82940000Y-46557041D01*
X87393000Y-44997041D02*
X82940000Y-44997041D01*
X85694000Y-47437041D02*
X77306000Y-47437041D01*
X87626000Y-44277041D02*
X82940000Y-44277041D01*
X80060000Y-45957041D02*
X76079000Y-45957041D01*
X84640000Y-48197041D02*
X78360000Y-48197041D01*
X80060000Y-43757041D02*
X75262000Y-43757041D01*
X87815000Y-43116041D02*
X75185000Y-43116041D01*
X85648000Y-47477041D02*
X77352000Y-47477041D01*
X86991000Y-45837041D02*
X82940000Y-45837041D01*
X80060000Y-44197041D02*
X75354000Y-44197041D01*
X85908000Y-47237041D02*
X77092000Y-47237041D01*
X87675000Y-44077041D02*
X82940000Y-44077041D01*
X84421000Y-48317041D02*
X78579000Y-48317041D01*
X86660000Y-46357041D02*
X82940000Y-46357041D01*
X86352000Y-46757041D02*
X76648000Y-46757041D01*
X80060000Y-44877041D02*
X75561000Y-44877041D01*
X80060000Y-44757041D02*
X75519000Y-44757041D01*
X87656000Y-44157041D02*
X82940000Y-44157041D01*
X87769000Y-43557041D02*
X75231000Y-43557041D01*
X85738000Y-47397041D02*
X77262000Y-47397041D01*
X80060000Y-44517041D02*
X75441000Y-44517041D01*
X87822000Y-42996041D02*
X75178000Y-42996041D01*
X87824000Y-42956041D02*
X75176000Y-42956041D01*
X80060000Y-45797041D02*
X75986000Y-45797041D01*
X87276000Y-45277041D02*
X82940000Y-45277041D01*
X87221000Y-45397041D02*
X82940000Y-45397041D01*
X80060000Y-45477041D02*
X75818000Y-45477041D01*
X86028000Y-47117041D02*
X76972000Y-47117041D01*
X87361000Y-45077041D02*
X82940000Y-45077041D01*
X80060000Y-43957041D02*
X75299000Y-43957041D01*
X83484000Y-48717041D02*
X79516000Y-48717041D01*
X80060000Y-46317041D02*
X76312000Y-46317041D01*
X83910000Y-48557041D02*
X79090000Y-48557041D01*
X80060000Y-44957041D02*
X75592000Y-44957041D01*
X80060000Y-44117041D02*
X75334000Y-44117041D01*
X84964000Y-47997041D02*
X78036000Y-47997041D01*
X80060000Y-45637041D02*
X75899000Y-45637041D01*
X80060000Y-46477041D02*
X76427000Y-46477041D01*
X80060000Y-46037041D02*
X76128000Y-46037041D01*
X87785000Y-43437041D02*
X75215000Y-43437041D01*
X80060000Y-45077041D02*
X75639000Y-45077041D01*
X86796000Y-46157041D02*
X82940000Y-46157041D01*
X87701000Y-43957041D02*
X82940000Y-43957041D01*
X87820000Y-43036041D02*
X75180000Y-43036041D01*
X87745000Y-43717041D02*
X75255000Y-43717041D01*
X84569000Y-48237041D02*
X78431000Y-48237041D01*
X80060000Y-46277041D02*
X76284000Y-46277041D01*
X85140000Y-47877041D02*
X77860000Y-47877041D01*
X80060000Y-44717041D02*
X75505000Y-44717041D01*
X80060000Y-45997041D02*
X76103000Y-45997041D01*
X86897000Y-45997041D02*
X82940000Y-45997041D01*
X86543000Y-46517041D02*
X82940000Y-46517041D01*
X87036000Y-45757041D02*
X82940000Y-45757041D01*
X87826000Y-42916041D02*
X75174000Y-42916041D01*
X87802000Y-43276041D02*
X75198000Y-43276041D01*
X80060000Y-45117041D02*
X75655000Y-45117041D01*
X84264000Y-48397041D02*
X78736000Y-48397041D01*
X87752000Y-43677041D02*
X75248000Y-43677041D01*
X87646000Y-44197041D02*
X82940000Y-44197041D01*
X87758000Y-43637041D02*
X75242000Y-43637041D01*
X87424000Y-44917041D02*
X82940000Y-44917041D01*
X86105000Y-47037041D02*
X76895000Y-47037041D01*
X80060000Y-44797041D02*
X75533000Y-44797041D01*
X87239000Y-45357041D02*
X82940000Y-45357041D01*
X87467000Y-44797041D02*
X82940000Y-44797041D01*
X80060000Y-46437041D02*
X76398000Y-46437041D01*
X87829000Y-42796041D02*
X75171000Y-42796041D01*
X80060000Y-44157041D02*
X75344000Y-44157041D01*
X85989000Y-47157041D02*
X77011000Y-47157041D01*
X87692000Y-43997041D02*
X82940000Y-43997041D01*
X87534000Y-44597041D02*
X82940000Y-44597041D01*
X82922000Y-48877041D02*
X80078000Y-48877041D01*
X83600000Y-48677041D02*
X79400000Y-48677041D01*
X86847000Y-46077041D02*
X82940000Y-46077041D01*
X84004000Y-48517041D02*
X78996000Y-48517041D01*
X84496000Y-48277041D02*
X78504000Y-48277041D01*
X86631000Y-46397041D02*
X82940000Y-46397041D01*
X87790000Y-43397041D02*
X75210000Y-43397041D01*
X81817000Y-49037041D02*
X81183000Y-49037041D01*
X86250000Y-46877041D02*
X76750000Y-46877041D01*
X86482000Y-46597041D02*
X82940000Y-46597041D01*
X80060000Y-45757041D02*
X75964000Y-45757041D01*
X80060000Y-44237041D02*
X75363000Y-44237041D01*
X80060000Y-45917041D02*
X76055000Y-45917041D01*
X86872000Y-46037041D02*
X82940000Y-46037041D01*
X84181000Y-48437041D02*
X78819000Y-48437041D01*
X86319000Y-46797041D02*
X76681000Y-46797041D01*
X80060000Y-45037041D02*
X75623000Y-45037041D01*
X87806000Y-43236041D02*
X75194000Y-43236041D01*
X87547000Y-44557041D02*
X82940000Y-44557041D01*
X87293000Y-45237041D02*
X82940000Y-45237041D01*
X87258000Y-45317041D02*
X82940000Y-45317041D01*
X83083000Y-48837041D02*
X79917000Y-48837041D01*
X87508000Y-44677041D02*
X82940000Y-44677041D01*
X80060000Y-45597041D02*
X75878000Y-45597041D01*
X80060000Y-45437041D02*
X75798000Y-45437041D01*
X87122000Y-45597041D02*
X82940000Y-45597041D01*
X80060000Y-45237041D02*
X75707000Y-45237041D01*
X85075000Y-35858959D02*
X85075000Y-37108959D01*
X84344000Y-48357041D02*
X78656000Y-48357041D01*
X87594000Y-44397041D02*
X82940000Y-44397041D01*
X86602000Y-46437041D02*
X82940000Y-46437041D01*
X83812000Y-48597041D02*
X79188000Y-48597041D01*
X80060000Y-45157041D02*
X75672000Y-45157041D01*
X87559000Y-44517041D02*
X82940000Y-44517041D01*
X80060000Y-45557041D02*
X75858000Y-45557041D01*
X80060000Y-45677041D02*
X75920000Y-45677041D01*
X85782000Y-47357041D02*
X77218000Y-47357041D01*
X86385000Y-46717041D02*
X76615000Y-46717041D01*
X87014000Y-45797041D02*
X82940000Y-45797041D01*
X87827000Y-42876041D02*
X75173000Y-42876041D01*
X80060000Y-46197041D02*
X76230000Y-46197041D01*
X85867000Y-47277041D02*
X77133000Y-47277041D01*
X85196000Y-47837041D02*
X77804000Y-47837041D01*
X82257000Y-48997041D02*
X80743000Y-48997041D01*
X85083000Y-47917041D02*
X77917000Y-47917041D01*
X80060000Y-44637041D02*
X75479000Y-44637041D01*
X80060000Y-44917041D02*
X75576000Y-44917041D01*
X80060000Y-46077041D02*
X76153000Y-46077041D01*
X83361000Y-48757041D02*
X79639000Y-48757041D01*
X87571000Y-44477041D02*
X82940000Y-44477041D01*
X86968000Y-45877041D02*
X82940000Y-45877041D01*
X84775000Y-48117041D02*
X78225000Y-48117041D01*
X87716000Y-43877041D02*
X82940000Y-43877041D01*
X85250000Y-47797041D02*
X77750000Y-47797041D01*
X86067000Y-47077041D02*
X76933000Y-47077041D01*
X85356000Y-47717041D02*
X77644000Y-47717041D01*
X80060000Y-45197041D02*
X75689000Y-45197041D01*
X80060000Y-43917041D02*
X75291000Y-43917041D01*
X80060000Y-43797041D02*
X75269000Y-43797041D01*
X86142000Y-46997041D02*
X76858000Y-46997041D01*
X80060000Y-45317041D02*
X75742000Y-45317041D01*
X84839000Y-48077041D02*
X78161000Y-48077041D01*
X87481000Y-44757041D02*
X82940000Y-44757041D01*
X87794000Y-43356041D02*
X75206000Y-43356041D01*
X80060000Y-46157041D02*
X76204000Y-46157041D01*
X80060000Y-44437041D02*
X75417000Y-44437041D01*
X86770000Y-46197041D02*
X82940000Y-46197041D01*
X87830000Y-42756041D02*
X75170000Y-42756041D01*
X80060000Y-44597041D02*
X75466000Y-44597041D01*
X86214000Y-46917041D02*
X76786000Y-46917041D01*
X80060000Y-46517041D02*
X76457000Y-46517041D01*
X85700000Y-36483959D02*
X84450000Y-36483959D01*
X80060000Y-45837041D02*
X76009000Y-45837041D01*
X87637000Y-44237041D02*
X82940000Y-44237041D01*
X86945000Y-45917041D02*
X82940000Y-45917041D01*
X85825000Y-47317041D02*
X77175000Y-47317041D01*
X80060000Y-46357041D02*
X76340000Y-46357041D01*
X82741000Y-48917041D02*
X80259000Y-48917041D01*
X80060000Y-44397041D02*
X75406000Y-44397041D01*
X80060000Y-45397041D02*
X75779000Y-45397041D01*
X87830000Y-42676041D02*
X75170000Y-42676041D01*
X87345000Y-45117041D02*
X82940000Y-45117041D01*
X80060000Y-45517041D02*
X75838000Y-45517041D01*
X83709000Y-48637041D02*
X79291000Y-48637041D01*
X87616000Y-44317041D02*
X82940000Y-44317041D01*
X82528000Y-48957041D02*
X80472000Y-48957041D01*
X83228000Y-48797041D02*
X79772000Y-48797041D01*
X80060000Y-44837041D02*
X75547000Y-44837041D01*
X87495000Y-44717041D02*
X82940000Y-44717041D01*
X87377000Y-45037041D02*
X82940000Y-45037041D01*
X80060000Y-45357041D02*
X75761000Y-45357041D01*
X80060000Y-44997041D02*
X75607000Y-44997041D01*
X87764000Y-43597041D02*
X75236000Y-43597041D01*
X87828000Y-42836041D02*
X75172000Y-42836041D01*
X86573000Y-46477041D02*
X82940000Y-46477041D01*
X86450000Y-46637041D02*
X76550000Y-46637041D01*
X80060000Y-46597041D02*
X76518000Y-46597041D01*
X87666000Y-44117041D02*
X82940000Y-44117041D01*
X87684000Y-44037041D02*
X82940000Y-44037041D01*
X87818000Y-43076041D02*
X75182000Y-43076041D01*
X87798000Y-43316041D02*
X75202000Y-43316041D01*
X80060000Y-43877041D02*
X75284000Y-43877041D01*
X80060000Y-46117041D02*
X76178000Y-46117041D01*
X87101000Y-45637041D02*
X82940000Y-45637041D01*
X87731000Y-43797041D02*
X82940000Y-43797041D01*
X85407000Y-47677041D02*
X77593000Y-47677041D01*
X87453000Y-44837041D02*
X82940000Y-44837041D01*
X86178000Y-46957041D02*
X76822000Y-46957041D01*
X87311000Y-45197041D02*
X82940000Y-45197041D01*
X84094000Y-48477041D02*
X78906000Y-48477041D01*
X80060000Y-46557041D02*
X76488000Y-46557041D01*
X86743000Y-46237041D02*
X82940000Y-46237041D01*
X85304000Y-47757041D02*
X77696000Y-47757041D01*
X87583000Y-44437041D02*
X82940000Y-44437041D01*
X87142000Y-45557041D02*
X82940000Y-45557041D01*
X80060000Y-44357041D02*
X75395000Y-44357041D01*
X80060000Y-44677041D02*
X75492000Y-44677041D01*
X84708000Y-48157041D02*
X78292000Y-48157041D01*
X87724000Y-43837041D02*
X82940000Y-43837041D01*
X87521000Y-44637041D02*
X82940000Y-44637041D01*
X85507000Y-47597041D02*
X77493000Y-47597041D01*
X85555000Y-47557041D02*
X77445000Y-47557041D01*
X87738000Y-43757041D02*
X82940000Y-43757041D01*
X80060000Y-43997041D02*
X75308000Y-43997041D01*
X80060000Y-44557041D02*
X75453000Y-44557041D01*
X80060000Y-45877041D02*
X76032000Y-45877041D01*
X87709000Y-43917041D02*
X82940000Y-43917041D01*
X87870000Y-42676041D02*
G75*
G03*
X87870000Y-42676041I-6370000J0D01*
G01*
%TO.C,R22*%
X72272500Y-81512742D02*
X72272500Y-81987258D01*
X71227500Y-81512742D02*
X71227500Y-81987258D01*
%TO.C,JP2*%
X40800000Y-97550000D02*
X40200000Y-97550000D01*
X39000000Y-94000000D02*
X39000000Y-94600000D01*
X40200000Y-93450000D02*
X40800000Y-93450000D01*
X39300000Y-94300000D02*
X39000000Y-94000000D01*
X39500000Y-96900000D02*
X39500000Y-94100000D01*
X41500000Y-94100000D02*
X41500000Y-96900000D01*
X39300000Y-94300000D02*
X39000000Y-94600000D01*
X39500000Y-96850000D02*
G75*
G03*
X40200000Y-97550000I700000J0D01*
G01*
X40200000Y-93450000D02*
G75*
G03*
X39500000Y-94150000I-1J-699999D01*
G01*
X40800000Y-97550000D02*
G75*
G03*
X41500000Y-96850000I0J700000D01*
G01*
X41500000Y-94150000D02*
G75*
G03*
X40800000Y-93450000I-699999J1D01*
G01*
%TO.C,C16*%
X42609420Y-71260000D02*
X42890580Y-71260000D01*
X42609420Y-70240000D02*
X42890580Y-70240000D01*
%TO.C,J12*%
X38050000Y-64175000D02*
X37300000Y-64175000D01*
X27940000Y-66435000D02*
X38060000Y-66435000D01*
X31250000Y-65675000D02*
X31250000Y-66425000D01*
X37300000Y-64175000D02*
X37300000Y-61225000D01*
X28700000Y-64175000D02*
X28700000Y-61225000D01*
X27950000Y-66425000D02*
X29750000Y-66425000D01*
X31250000Y-66425000D02*
X34750000Y-66425000D01*
X27940000Y-60465000D02*
X27940000Y-66435000D01*
X36250000Y-65675000D02*
X36250000Y-66425000D01*
X38350000Y-66725000D02*
X38350000Y-65475000D01*
X37300000Y-61225000D02*
X33000000Y-61225000D01*
X29750000Y-66425000D02*
X29750000Y-65675000D01*
X36250000Y-66425000D02*
X38050000Y-66425000D01*
X28700000Y-61225000D02*
X33000000Y-61225000D01*
X38060000Y-66435000D02*
X38060000Y-60465000D01*
X38050000Y-66425000D02*
X38050000Y-65675000D01*
X27950000Y-64175000D02*
X28700000Y-64175000D01*
X37100000Y-66725000D02*
X38350000Y-66725000D01*
X27950000Y-65675000D02*
X27950000Y-66425000D01*
X38060000Y-60465000D02*
X27940000Y-60465000D01*
X38050000Y-65675000D02*
X36250000Y-65675000D01*
X34750000Y-65675000D02*
X31250000Y-65675000D01*
X29750000Y-65675000D02*
X27950000Y-65675000D01*
X34750000Y-66425000D02*
X34750000Y-65675000D01*
%TO.C,FB2*%
X47999622Y-92960000D02*
X47200378Y-92960000D01*
X47999622Y-91840000D02*
X47200378Y-91840000D01*
%TO.C,R20*%
X71227500Y-73512742D02*
X71227500Y-73987258D01*
X72272500Y-73512742D02*
X72272500Y-73987258D01*
%TO.C,PT0*%
X85100000Y-66775000D02*
X86350000Y-66775000D01*
X73440000Y-66485000D02*
X86060000Y-66485000D01*
X84250000Y-66475000D02*
X86050000Y-66475000D01*
X74200000Y-61275000D02*
X79750000Y-61275000D01*
X85300000Y-64225000D02*
X85300000Y-61275000D01*
X73450000Y-66475000D02*
X75250000Y-66475000D01*
X75250000Y-65725000D02*
X73450000Y-65725000D01*
X86060000Y-60515000D02*
X73440000Y-60515000D01*
X75250000Y-66475000D02*
X75250000Y-65725000D01*
X82750000Y-66475000D02*
X82750000Y-65725000D01*
X84250000Y-65725000D02*
X84250000Y-66475000D01*
X73450000Y-64225000D02*
X74200000Y-64225000D01*
X73440000Y-60515000D02*
X73440000Y-66485000D01*
X85300000Y-61275000D02*
X79750000Y-61275000D01*
X76750000Y-65725000D02*
X76750000Y-66475000D01*
X86050000Y-64225000D02*
X85300000Y-64225000D01*
X86050000Y-66475000D02*
X86050000Y-65725000D01*
X86060000Y-66485000D02*
X86060000Y-60515000D01*
X86350000Y-66775000D02*
X86350000Y-65525000D01*
X86050000Y-65725000D02*
X84250000Y-65725000D01*
X76750000Y-66475000D02*
X82750000Y-66475000D01*
X82750000Y-65725000D02*
X76750000Y-65725000D01*
X74200000Y-64225000D02*
X74200000Y-61275000D01*
X73450000Y-65725000D02*
X73450000Y-66475000D01*
%TO.C,PT6*%
X27940000Y-92490000D02*
X27940000Y-98460000D01*
X27950000Y-98450000D02*
X29750000Y-98450000D01*
X38050000Y-97700000D02*
X36250000Y-97700000D01*
X31250000Y-97700000D02*
X31250000Y-98450000D01*
X36250000Y-98450000D02*
X38050000Y-98450000D01*
X37100000Y-98750000D02*
X38350000Y-98750000D01*
X38060000Y-98460000D02*
X38060000Y-92490000D01*
X37300000Y-93250000D02*
X33000000Y-93250000D01*
X37300000Y-96200000D02*
X37300000Y-93250000D01*
X36250000Y-97700000D02*
X36250000Y-98450000D01*
X27950000Y-96200000D02*
X28700000Y-96200000D01*
X29750000Y-97700000D02*
X27950000Y-97700000D01*
X27950000Y-97700000D02*
X27950000Y-98450000D01*
X27940000Y-98460000D02*
X38060000Y-98460000D01*
X38050000Y-96200000D02*
X37300000Y-96200000D01*
X38060000Y-92490000D02*
X27940000Y-92490000D01*
X29750000Y-98450000D02*
X29750000Y-97700000D01*
X34750000Y-98450000D02*
X34750000Y-97700000D01*
X31250000Y-98450000D02*
X34750000Y-98450000D01*
X28700000Y-93250000D02*
X33000000Y-93250000D01*
X28700000Y-96200000D02*
X28700000Y-93250000D01*
X34750000Y-97700000D02*
X31250000Y-97700000D01*
X38350000Y-98750000D02*
X38350000Y-97500000D01*
X38050000Y-98450000D02*
X38050000Y-97700000D01*
%TO.C,C10*%
X46090000Y-90140580D02*
X46090000Y-89859420D01*
X47110000Y-90140580D02*
X47110000Y-89859420D01*
%TO.C,R17*%
X71227500Y-62487258D02*
X71227500Y-62012742D01*
X72272500Y-62487258D02*
X72272500Y-62012742D01*
%TO.C,C9*%
X58410000Y-96484420D02*
X58410000Y-96765580D01*
X57390000Y-96484420D02*
X57390000Y-96765580D01*
%TO.C,R9*%
X42477500Y-100487258D02*
X42477500Y-100012742D01*
X43522500Y-100487258D02*
X43522500Y-100012742D01*
%TO.C,C5*%
X61910000Y-85740580D02*
X61910000Y-85459420D01*
X60890000Y-85740580D02*
X60890000Y-85459420D01*
%TO.C,R10*%
X63662742Y-86872500D02*
X64137258Y-86872500D01*
X63662742Y-85827500D02*
X64137258Y-85827500D01*
%TO.C,D2*%
X56585000Y-34860000D02*
X56585000Y-32940000D01*
X53900000Y-34860000D02*
X56585000Y-34860000D01*
X56585000Y-32940000D02*
X53900000Y-32940000D01*
%TO.C,FB1*%
X53061320Y-49649622D02*
X53061320Y-48850378D01*
X54181320Y-49649622D02*
X54181320Y-48850378D01*
%TO.C,U6*%
X45750000Y-69710000D02*
X42990000Y-69710000D01*
X45750000Y-62290000D02*
X42990000Y-62290000D01*
X48510000Y-69710000D02*
X48510000Y-69435000D01*
X42990000Y-69710000D02*
X42990000Y-69435000D01*
X42990000Y-62290000D02*
X42990000Y-62565000D01*
X42990000Y-62565000D02*
X41300000Y-62565000D01*
X48510000Y-62290000D02*
X48510000Y-62565000D01*
X45750000Y-62290000D02*
X48510000Y-62290000D01*
X45750000Y-69710000D02*
X48510000Y-69710000D01*
%TO.C,R16*%
X39227500Y-81262742D02*
X39227500Y-81737258D01*
X40272500Y-81262742D02*
X40272500Y-81737258D01*
%TO.C,PT2*%
X75250000Y-81725000D02*
X73450000Y-81725000D01*
X86050000Y-82475000D02*
X86050000Y-81725000D01*
X86050000Y-81725000D02*
X84250000Y-81725000D01*
X73450000Y-82475000D02*
X75250000Y-82475000D01*
X86350000Y-82775000D02*
X86350000Y-81525000D01*
X84250000Y-81725000D02*
X84250000Y-82475000D01*
X74200000Y-80225000D02*
X74200000Y-77275000D01*
X82750000Y-81725000D02*
X76750000Y-81725000D01*
X86060000Y-76515000D02*
X73440000Y-76515000D01*
X75250000Y-82475000D02*
X75250000Y-81725000D01*
X73440000Y-76515000D02*
X73440000Y-82485000D01*
X85300000Y-77275000D02*
X79750000Y-77275000D01*
X85100000Y-82775000D02*
X86350000Y-82775000D01*
X73440000Y-82485000D02*
X86060000Y-82485000D01*
X76750000Y-81725000D02*
X76750000Y-82475000D01*
X86060000Y-82485000D02*
X86060000Y-76515000D01*
X76750000Y-82475000D02*
X82750000Y-82475000D01*
X73450000Y-81725000D02*
X73450000Y-82475000D01*
X84250000Y-82475000D02*
X86050000Y-82475000D01*
X74200000Y-77275000D02*
X79750000Y-77275000D01*
X86050000Y-80225000D02*
X85300000Y-80225000D01*
X82750000Y-82475000D02*
X82750000Y-81725000D01*
X85300000Y-80225000D02*
X85300000Y-77275000D01*
X73450000Y-80225000D02*
X74200000Y-80225000D01*
%TO.C,C13*%
X40260000Y-65359420D02*
X40260000Y-65640580D01*
X39240000Y-65359420D02*
X39240000Y-65640580D01*
%TO.C,R24*%
X72272500Y-89512742D02*
X72272500Y-89987258D01*
X71227500Y-89512742D02*
X71227500Y-89987258D01*
%TO.C,R13*%
X61662742Y-90622500D02*
X62137258Y-90622500D01*
X61662742Y-89577500D02*
X62137258Y-89577500D01*
%TO.C,JP1*%
X39300000Y-86300000D02*
X39000000Y-86600000D01*
X39000000Y-86000000D02*
X39000000Y-86600000D01*
X40200000Y-85450000D02*
X40800000Y-85450000D01*
X41500000Y-86100000D02*
X41500000Y-88900000D01*
X40800000Y-89550000D02*
X40200000Y-89550000D01*
X39300000Y-86300000D02*
X39000000Y-86000000D01*
X39500000Y-88900000D02*
X39500000Y-86100000D01*
X40200000Y-85450000D02*
G75*
G03*
X39500000Y-86150000I-1J-699999D01*
G01*
X39500000Y-88850000D02*
G75*
G03*
X40200000Y-89550000I700000J0D01*
G01*
X40800000Y-89550000D02*
G75*
G03*
X41500000Y-88850000I0J700000D01*
G01*
X41500000Y-86150000D02*
G75*
G03*
X40800000Y-85450000I-699999J1D01*
G01*
%TO.C,R18*%
X71227500Y-65512742D02*
X71227500Y-65987258D01*
X72272500Y-65512742D02*
X72272500Y-65987258D01*
%TO.C,R23*%
X72272500Y-86487258D02*
X72272500Y-86012742D01*
X71227500Y-86487258D02*
X71227500Y-86012742D01*
%TO.C,C6*%
X61759420Y-88090000D02*
X62040580Y-88090000D01*
X61759420Y-89110000D02*
X62040580Y-89110000D01*
%TO.C,C14*%
X39240000Y-75640580D02*
X39240000Y-75359420D01*
X40260000Y-75640580D02*
X40260000Y-75359420D01*
%TO.C,LC0*%
X66700000Y-104225000D02*
X67450000Y-104225000D01*
X76000000Y-105725000D02*
X70000000Y-105725000D01*
X79300000Y-104225000D02*
X78550000Y-104225000D01*
X77500000Y-106475000D02*
X79300000Y-106475000D01*
X66690000Y-100515000D02*
X66690000Y-106485000D01*
X79300000Y-106475000D02*
X79300000Y-105725000D01*
X70000000Y-106475000D02*
X76000000Y-106475000D01*
X78550000Y-101275000D02*
X73000000Y-101275000D01*
X79300000Y-105725000D02*
X77500000Y-105725000D01*
X66700000Y-105725000D02*
X66700000Y-106475000D01*
X68500000Y-106475000D02*
X68500000Y-105725000D01*
X67450000Y-101275000D02*
X73000000Y-101275000D01*
X76000000Y-106475000D02*
X76000000Y-105725000D01*
X68500000Y-105725000D02*
X66700000Y-105725000D01*
X70000000Y-105725000D02*
X70000000Y-106475000D01*
X79600000Y-106775000D02*
X79600000Y-105525000D01*
X78350000Y-106775000D02*
X79600000Y-106775000D01*
X66690000Y-106485000D02*
X79310000Y-106485000D01*
X77500000Y-105725000D02*
X77500000Y-106475000D01*
X79310000Y-106485000D02*
X79310000Y-100515000D01*
X67450000Y-104225000D02*
X67450000Y-101275000D01*
X78550000Y-104225000D02*
X78550000Y-101275000D01*
X79310000Y-100515000D02*
X66690000Y-100515000D01*
X66700000Y-106475000D02*
X68500000Y-106475000D01*
%TO.C,D1*%
X66550000Y-31675000D02*
X58075000Y-31675000D01*
X66550000Y-25175000D02*
X58075000Y-25175000D01*
X66550000Y-25175000D02*
X66550000Y-31675000D01*
%TO.C,C3*%
X63809420Y-100610000D02*
X64090580Y-100610000D01*
X63809420Y-99590000D02*
X64090580Y-99590000D01*
%TO.C,R26*%
X71227500Y-97512742D02*
X71227500Y-97987258D01*
X72272500Y-97512742D02*
X72272500Y-97987258D01*
%TO.C,R5*%
X50477500Y-100487258D02*
X50477500Y-100012742D01*
X51522500Y-100487258D02*
X51522500Y-100012742D01*
%TO.C,C8*%
X59910000Y-96484420D02*
X59910000Y-96765580D01*
X58890000Y-96484420D02*
X58890000Y-96765580D01*
%TO.C,L7*%
X50686320Y-49186320D02*
X50686320Y-25056320D01*
X50686320Y-25056320D02*
X26556320Y-25056320D01*
X26556320Y-49186320D02*
X50686320Y-49186320D01*
X26556320Y-25056320D02*
X26556320Y-49186320D01*
%TO.C,C12*%
X40260000Y-62640580D02*
X40260000Y-62359420D01*
X39240000Y-62640580D02*
X39240000Y-62359420D01*
D13*
%TO.C,IC1*%
X58000000Y-94550000D02*
X54800000Y-94550000D01*
X54800000Y-84650000D02*
X58000000Y-84650000D01*
X54800000Y-94550000D02*
X54800000Y-84650000D01*
X58000000Y-84650000D02*
X58000000Y-94550000D01*
X59875000Y-94745000D02*
X58350000Y-94745000D01*
D14*
%TO.C,C7*%
X54259420Y-96360000D02*
X54540580Y-96360000D01*
X54259420Y-95340000D02*
X54540580Y-95340000D01*
%TO.C,R11*%
X63662742Y-84327500D02*
X64137258Y-84327500D01*
X63662742Y-85372500D02*
X64137258Y-85372500D01*
%TO.C,R12*%
X61662742Y-92122500D02*
X62137258Y-92122500D01*
X61662742Y-91077500D02*
X62137258Y-91077500D01*
%TO.C,24V1*%
X84921320Y-27896320D02*
X84171320Y-27896320D01*
X84171320Y-30846320D02*
X81121320Y-30846320D01*
X84921320Y-25646320D02*
X83121320Y-25646320D01*
X80621320Y-26396320D02*
X81621320Y-26396320D01*
X84931320Y-25636320D02*
X77311320Y-25636320D01*
X77321320Y-26396320D02*
X79121320Y-26396320D01*
X81621320Y-26396320D02*
X81621320Y-25646320D01*
X77321320Y-27896320D02*
X78071320Y-27896320D01*
X77311320Y-25636320D02*
X77311320Y-31606320D01*
X84931320Y-31606320D02*
X84931320Y-25636320D01*
X83121320Y-25646320D02*
X83121320Y-26396320D01*
X77321320Y-25646320D02*
X77321320Y-26396320D01*
X78071320Y-27896320D02*
X78071320Y-30846320D01*
X81621320Y-25646320D02*
X80621320Y-25646320D01*
X78271320Y-25346320D02*
X77021320Y-25346320D01*
X77311320Y-31606320D02*
X84931320Y-31606320D01*
X77021320Y-25346320D02*
X77021320Y-26596320D01*
X79121320Y-25646320D02*
X77321320Y-25646320D01*
X78071320Y-30846320D02*
X81121320Y-30846320D01*
X80621320Y-25646320D02*
X80621320Y-26396320D01*
X84171320Y-27896320D02*
X84171320Y-30846320D01*
X84921320Y-26396320D02*
X84921320Y-25646320D01*
X83121320Y-26396320D02*
X84921320Y-26396320D01*
X79121320Y-26396320D02*
X79121320Y-25646320D01*
%TO.C,FB3*%
X47200378Y-88160000D02*
X47999622Y-88160000D01*
X47200378Y-87040000D02*
X47999622Y-87040000D01*
%TO.C,R21*%
X72272500Y-78487258D02*
X72272500Y-78012742D01*
X71227500Y-78487258D02*
X71227500Y-78012742D01*
%TO.C,RTD0*%
X38050000Y-72200000D02*
X37300000Y-72200000D01*
X36250000Y-74450000D02*
X38050000Y-74450000D01*
X28700000Y-72200000D02*
X28700000Y-69250000D01*
X38060000Y-74460000D02*
X38060000Y-68490000D01*
X34750000Y-73700000D02*
X31250000Y-73700000D01*
X34750000Y-74450000D02*
X34750000Y-73700000D01*
X37100000Y-74750000D02*
X38350000Y-74750000D01*
X38050000Y-73700000D02*
X36250000Y-73700000D01*
X31250000Y-74450000D02*
X34750000Y-74450000D01*
X27950000Y-73700000D02*
X27950000Y-74450000D01*
X38060000Y-68490000D02*
X27940000Y-68490000D01*
X27950000Y-72200000D02*
X28700000Y-72200000D01*
X38350000Y-74750000D02*
X38350000Y-73500000D01*
X37300000Y-72200000D02*
X37300000Y-69250000D01*
X29750000Y-73700000D02*
X27950000Y-73700000D01*
X38050000Y-74450000D02*
X38050000Y-73700000D01*
X37300000Y-69250000D02*
X33000000Y-69250000D01*
X29750000Y-74450000D02*
X29750000Y-73700000D01*
X27940000Y-68490000D02*
X27940000Y-74460000D01*
X28700000Y-69250000D02*
X33000000Y-69250000D01*
X27940000Y-74460000D02*
X38060000Y-74460000D01*
X27950000Y-74450000D02*
X29750000Y-74450000D01*
X36250000Y-73700000D02*
X36250000Y-74450000D01*
X31250000Y-73700000D02*
X31250000Y-74450000D01*
%TO.C,R1*%
X55137258Y-36322500D02*
X54662742Y-36322500D01*
X55137258Y-35277500D02*
X54662742Y-35277500D01*
%TO.C,C15*%
X40260000Y-78359420D02*
X40260000Y-78640580D01*
X39240000Y-78359420D02*
X39240000Y-78640580D01*
%TO.C,C11*%
X48910000Y-90140580D02*
X48910000Y-89859420D01*
X47890000Y-90140580D02*
X47890000Y-89859420D01*
%TO.C,R19*%
X71227500Y-70487258D02*
X71227500Y-70012742D01*
X72272500Y-70487258D02*
X72272500Y-70012742D01*
%TO.C,R8*%
X44477500Y-100487258D02*
X44477500Y-100012742D01*
X45522500Y-100487258D02*
X45522500Y-100012742D01*
%TO.C,R7*%
X46477500Y-100487258D02*
X46477500Y-100012742D01*
X47522500Y-100487258D02*
X47522500Y-100012742D01*
D11*
%TO.C,U5*%
X42375000Y-91625000D02*
X42650000Y-91625000D01*
X45450000Y-88375000D02*
X45450000Y-87300000D01*
X45625000Y-88375000D02*
X45625000Y-91625000D01*
X45625000Y-91625000D02*
X45350000Y-91625000D01*
X42375000Y-88375000D02*
X42375000Y-91625000D01*
X45625000Y-88375000D02*
X45450000Y-88375000D01*
X42375000Y-88375000D02*
X42650000Y-88375000D01*
D14*
%TO.C,RTD1*%
X27950000Y-82450000D02*
X29750000Y-82450000D01*
X28700000Y-77250000D02*
X33000000Y-77250000D01*
X38050000Y-81700000D02*
X36250000Y-81700000D01*
X28700000Y-80200000D02*
X28700000Y-77250000D01*
X38050000Y-82450000D02*
X38050000Y-81700000D01*
X29750000Y-81700000D02*
X27950000Y-81700000D01*
X36250000Y-82450000D02*
X38050000Y-82450000D01*
X31250000Y-82450000D02*
X34750000Y-82450000D01*
X31250000Y-81700000D02*
X31250000Y-82450000D01*
X37300000Y-80200000D02*
X37300000Y-77250000D01*
X27950000Y-80200000D02*
X28700000Y-80200000D01*
X27940000Y-82460000D02*
X38060000Y-82460000D01*
X38350000Y-82750000D02*
X38350000Y-81500000D01*
X38050000Y-80200000D02*
X37300000Y-80200000D01*
X38060000Y-76490000D02*
X27940000Y-76490000D01*
X29750000Y-82450000D02*
X29750000Y-81700000D01*
X27950000Y-81700000D02*
X27950000Y-82450000D01*
X36250000Y-81700000D02*
X36250000Y-82450000D01*
X38060000Y-82460000D02*
X38060000Y-76490000D01*
X37300000Y-77250000D02*
X33000000Y-77250000D01*
X27940000Y-76490000D02*
X27940000Y-82460000D01*
X34750000Y-82450000D02*
X34750000Y-81700000D01*
X37100000Y-82750000D02*
X38350000Y-82750000D01*
X34750000Y-81700000D02*
X31250000Y-81700000D01*
%TO.C,C17*%
X42634420Y-83240000D02*
X42915580Y-83240000D01*
X42634420Y-84260000D02*
X42915580Y-84260000D01*
%TO.C,PT5*%
X31250000Y-90425000D02*
X34750000Y-90425000D01*
X38060000Y-90435000D02*
X38060000Y-84465000D01*
X27940000Y-90435000D02*
X38060000Y-90435000D01*
X38350000Y-90725000D02*
X38350000Y-89475000D01*
X29750000Y-90425000D02*
X29750000Y-89675000D01*
X27950000Y-90425000D02*
X29750000Y-90425000D01*
X36250000Y-89675000D02*
X36250000Y-90425000D01*
X34750000Y-89675000D02*
X31250000Y-89675000D01*
X27940000Y-84465000D02*
X27940000Y-90435000D01*
X28700000Y-88175000D02*
X28700000Y-85225000D01*
X38050000Y-88175000D02*
X37300000Y-88175000D01*
X31250000Y-89675000D02*
X31250000Y-90425000D01*
X27950000Y-89675000D02*
X27950000Y-90425000D01*
X38060000Y-84465000D02*
X27940000Y-84465000D01*
X29750000Y-89675000D02*
X27950000Y-89675000D01*
X38050000Y-90425000D02*
X38050000Y-89675000D01*
X38050000Y-89675000D02*
X36250000Y-89675000D01*
X28700000Y-85225000D02*
X33000000Y-85225000D01*
X36250000Y-90425000D02*
X38050000Y-90425000D01*
X27950000Y-88175000D02*
X28700000Y-88175000D01*
X37300000Y-88175000D02*
X37300000Y-85225000D01*
X37100000Y-90725000D02*
X38350000Y-90725000D01*
X37300000Y-85225000D02*
X33000000Y-85225000D01*
X34750000Y-90425000D02*
X34750000Y-89675000D01*
%TO.C,RELAY1*%
X55655000Y-105330000D02*
X32735000Y-105330000D01*
X32735000Y-102670000D02*
X32735000Y-105330000D01*
X56925000Y-102670000D02*
X58255000Y-102670000D01*
X55655000Y-102670000D02*
X32735000Y-102670000D01*
X58255000Y-102670000D02*
X58255000Y-104000000D01*
X55655000Y-102670000D02*
X55655000Y-105330000D01*
%TO.C,R25*%
X72272500Y-94487258D02*
X72272500Y-94012742D01*
X71227500Y-94487258D02*
X71227500Y-94012742D01*
%TO.C,PT3*%
X73450000Y-89725000D02*
X73450000Y-90475000D01*
X76750000Y-90475000D02*
X82750000Y-90475000D01*
X75250000Y-89725000D02*
X73450000Y-89725000D01*
X85300000Y-88225000D02*
X85300000Y-85275000D01*
X73440000Y-90485000D02*
X86060000Y-90485000D01*
X74200000Y-85275000D02*
X79750000Y-85275000D01*
X86050000Y-90475000D02*
X86050000Y-89725000D01*
X73450000Y-90475000D02*
X75250000Y-90475000D01*
X86060000Y-90485000D02*
X86060000Y-84515000D01*
X86060000Y-84515000D02*
X73440000Y-84515000D01*
X82750000Y-89725000D02*
X76750000Y-89725000D01*
X74200000Y-88225000D02*
X74200000Y-85275000D01*
X84250000Y-90475000D02*
X86050000Y-90475000D01*
X85300000Y-85275000D02*
X79750000Y-85275000D01*
X73450000Y-88225000D02*
X74200000Y-88225000D01*
X85100000Y-90775000D02*
X86350000Y-90775000D01*
X82750000Y-90475000D02*
X82750000Y-89725000D01*
X84250000Y-89725000D02*
X84250000Y-90475000D01*
X86350000Y-90775000D02*
X86350000Y-89525000D01*
X86050000Y-88225000D02*
X85300000Y-88225000D01*
X75250000Y-90475000D02*
X75250000Y-89725000D01*
X73440000Y-84515000D02*
X73440000Y-90485000D01*
X86050000Y-89725000D02*
X84250000Y-89725000D01*
X76750000Y-89725000D02*
X76750000Y-90475000D01*
%TO.C,R4*%
X52477500Y-100487258D02*
X52477500Y-100012742D01*
X53522500Y-100487258D02*
X53522500Y-100012742D01*
%TO.C,R15*%
X40272500Y-68262742D02*
X40272500Y-68737258D01*
X39227500Y-68262742D02*
X39227500Y-68737258D01*
%TO.C,R14*%
X52322500Y-93637258D02*
X52322500Y-93162742D01*
X51277500Y-93637258D02*
X51277500Y-93162742D01*
%TO.C,PT1*%
X86350000Y-74800000D02*
X86350000Y-73550000D01*
X73440000Y-74510000D02*
X86060000Y-74510000D01*
X86050000Y-73750000D02*
X84250000Y-73750000D01*
X73450000Y-73750000D02*
X73450000Y-74500000D01*
X73450000Y-74500000D02*
X75250000Y-74500000D01*
X85100000Y-74800000D02*
X86350000Y-74800000D01*
X82750000Y-74500000D02*
X82750000Y-73750000D01*
X75250000Y-74500000D02*
X75250000Y-73750000D01*
X82750000Y-73750000D02*
X76750000Y-73750000D01*
X85300000Y-69300000D02*
X79750000Y-69300000D01*
X86050000Y-72250000D02*
X85300000Y-72250000D01*
X74200000Y-69300000D02*
X79750000Y-69300000D01*
X74200000Y-72250000D02*
X74200000Y-69300000D01*
X75250000Y-73750000D02*
X73450000Y-73750000D01*
X86060000Y-68540000D02*
X73440000Y-68540000D01*
X86050000Y-74500000D02*
X86050000Y-73750000D01*
X76750000Y-74500000D02*
X82750000Y-74500000D01*
X73440000Y-68540000D02*
X73440000Y-74510000D01*
X84250000Y-74500000D02*
X86050000Y-74500000D01*
X84250000Y-73750000D02*
X84250000Y-74500000D01*
X73450000Y-72250000D02*
X74200000Y-72250000D01*
X85300000Y-72250000D02*
X85300000Y-69300000D01*
X76750000Y-73750000D02*
X76750000Y-74500000D01*
X86060000Y-74510000D02*
X86060000Y-68540000D01*
%TO.C,R6*%
X49522500Y-100487258D02*
X49522500Y-100012742D01*
X48477500Y-100487258D02*
X48477500Y-100012742D01*
%TO.C,PT4*%
X74200000Y-93275000D02*
X79750000Y-93275000D01*
X76750000Y-97725000D02*
X76750000Y-98475000D01*
X85100000Y-98775000D02*
X86350000Y-98775000D01*
X86050000Y-98475000D02*
X86050000Y-97725000D01*
X86050000Y-96225000D02*
X85300000Y-96225000D01*
X73440000Y-92515000D02*
X73440000Y-98485000D01*
X75250000Y-97725000D02*
X73450000Y-97725000D01*
X85300000Y-96225000D02*
X85300000Y-93275000D01*
X86050000Y-97725000D02*
X84250000Y-97725000D01*
X73450000Y-97725000D02*
X73450000Y-98475000D01*
X73440000Y-98485000D02*
X86060000Y-98485000D01*
X82750000Y-98475000D02*
X82750000Y-97725000D01*
X73450000Y-96225000D02*
X74200000Y-96225000D01*
X73450000Y-98475000D02*
X75250000Y-98475000D01*
X84250000Y-98475000D02*
X86050000Y-98475000D01*
X84250000Y-97725000D02*
X84250000Y-98475000D01*
X75250000Y-98475000D02*
X75250000Y-97725000D01*
X76750000Y-98475000D02*
X82750000Y-98475000D01*
X82750000Y-97725000D02*
X76750000Y-97725000D01*
X86060000Y-98485000D02*
X86060000Y-92515000D01*
X86060000Y-92515000D02*
X73440000Y-92515000D01*
X74200000Y-96225000D02*
X74200000Y-93275000D01*
X85300000Y-93275000D02*
X79750000Y-93275000D01*
X86350000Y-98775000D02*
X86350000Y-97525000D01*
%TO.C,U7*%
X45750000Y-82710000D02*
X48510000Y-82710000D01*
X45750000Y-75290000D02*
X48510000Y-75290000D01*
X45750000Y-75290000D02*
X42990000Y-75290000D01*
X45750000Y-82710000D02*
X42990000Y-82710000D01*
X48510000Y-82710000D02*
X48510000Y-82435000D01*
X42990000Y-75565000D02*
X41300000Y-75565000D01*
X48510000Y-75290000D02*
X48510000Y-75565000D01*
X42990000Y-75290000D02*
X42990000Y-75565000D01*
X42990000Y-82710000D02*
X42990000Y-82435000D01*
%TO.C,U4*%
X72925000Y-40050000D02*
X72925000Y-38700000D01*
X72925000Y-38700000D02*
X71975000Y-38700000D01*
X62525000Y-40050000D02*
X62525000Y-38700000D01*
X71975000Y-38700000D02*
X71975000Y-33575000D01*
X62525000Y-38700000D02*
X63475000Y-38700000D01*
X63475000Y-38700000D02*
X63475000Y-37600000D01*
%TO.C,L6*%
X63787221Y-96390000D02*
X64112779Y-96390000D01*
X63787221Y-97410000D02*
X64112779Y-97410000D01*
%TO.C,C2*%
X60620000Y-42750000D02*
G75*
G03*
X60620000Y-42750000I-4120000J0D01*
G01*
X53445000Y-40029000D02*
X55460000Y-40029000D01*
X57540000Y-41589000D02*
X60414000Y-41589000D01*
X57540000Y-41549000D02*
X60402000Y-41549000D01*
X53082000Y-40509000D02*
X55460000Y-40509000D01*
X52834000Y-40949000D02*
X55460000Y-40949000D01*
X57540000Y-40349000D02*
X59809000Y-40349000D01*
X52743000Y-41149000D02*
X55460000Y-41149000D01*
X52423000Y-42590000D02*
X60577000Y-42590000D01*
X52983000Y-40669000D02*
X55460000Y-40669000D01*
X57540000Y-41429000D02*
X60363000Y-41429000D01*
X54948000Y-38949000D02*
X58052000Y-38949000D01*
X57540000Y-40029000D02*
X59555000Y-40029000D01*
X52452000Y-42230000D02*
X60548000Y-42230000D01*
X53803000Y-39669000D02*
X59197000Y-39669000D01*
X57540000Y-41829000D02*
X60476000Y-41829000D01*
X57540000Y-41709000D02*
X60447000Y-41709000D01*
X52710000Y-41229000D02*
X55460000Y-41229000D01*
X54185000Y-47159698D02*
X54185000Y-46359698D01*
X52637000Y-41429000D02*
X55460000Y-41429000D01*
X52598000Y-41549000D02*
X55460000Y-41549000D01*
X53191000Y-40349000D02*
X55460000Y-40349000D01*
X52553000Y-41709000D02*
X55460000Y-41709000D01*
X52665000Y-41349000D02*
X55460000Y-41349000D01*
X57540000Y-41509000D02*
X60389000Y-41509000D01*
X52476000Y-42070000D02*
X60524000Y-42070000D01*
X53785000Y-46759698D02*
X54585000Y-46759698D01*
X57540000Y-41669000D02*
X60436000Y-41669000D01*
X53220000Y-40309000D02*
X55460000Y-40309000D01*
X52432000Y-42430000D02*
X60568000Y-42430000D01*
X57540000Y-41389000D02*
X60350000Y-41389000D01*
X55154000Y-38869000D02*
X57846000Y-38869000D01*
X54536000Y-39149000D02*
X58464000Y-39149000D01*
X54334000Y-39269000D02*
X58666000Y-39269000D01*
X57540000Y-41109000D02*
X60240000Y-41109000D01*
X57540000Y-40589000D02*
X59969000Y-40589000D01*
X52814000Y-40989000D02*
X55460000Y-40989000D01*
X52778000Y-41069000D02*
X55460000Y-41069000D01*
X53849000Y-39629000D02*
X59151000Y-39629000D01*
X54272000Y-39309000D02*
X58728000Y-39309000D01*
X54213000Y-39349000D02*
X58787000Y-39349000D01*
X52575000Y-41629000D02*
X55460000Y-41629000D01*
X52650000Y-41389000D02*
X55460000Y-41389000D01*
X52420000Y-42750000D02*
X60580000Y-42750000D01*
X53311000Y-40189000D02*
X55460000Y-40189000D01*
X52586000Y-41589000D02*
X55460000Y-41589000D01*
X57540000Y-40869000D02*
X60127000Y-40869000D01*
X54398000Y-39229000D02*
X58602000Y-39229000D01*
X53944000Y-39549000D02*
X59056000Y-39549000D01*
X57540000Y-41469000D02*
X60377000Y-41469000D01*
X57540000Y-41949000D02*
X60502000Y-41949000D01*
X53759000Y-39709000D02*
X59241000Y-39709000D01*
X52873000Y-40869000D02*
X55460000Y-40869000D01*
X53007000Y-40629000D02*
X55460000Y-40629000D01*
X53135000Y-40429000D02*
X55460000Y-40429000D01*
X57540000Y-40749000D02*
X60062000Y-40749000D01*
X53162000Y-40389000D02*
X55460000Y-40389000D01*
X57540000Y-40989000D02*
X60186000Y-40989000D01*
X57540000Y-40149000D02*
X59656000Y-40149000D01*
X53344000Y-40149000D02*
X55460000Y-40149000D01*
X52960000Y-40709000D02*
X55460000Y-40709000D01*
X52463000Y-42150000D02*
X60537000Y-42150000D01*
X57540000Y-40629000D02*
X59993000Y-40629000D01*
X57540000Y-40429000D02*
X59865000Y-40429000D01*
X53674000Y-39789000D02*
X59326000Y-39789000D01*
X53410000Y-40069000D02*
X55460000Y-40069000D01*
X55552000Y-38749000D02*
X57448000Y-38749000D01*
X52524000Y-41829000D02*
X55460000Y-41829000D01*
X54769000Y-39029000D02*
X58231000Y-39029000D01*
X54155000Y-39389000D02*
X58845000Y-39389000D01*
X57540000Y-41149000D02*
X60257000Y-41149000D01*
X52679000Y-41309000D02*
X55460000Y-41309000D01*
X52498000Y-41949000D02*
X55460000Y-41949000D01*
X52443000Y-42310000D02*
X60557000Y-42310000D01*
X53280000Y-40229000D02*
X55460000Y-40229000D01*
X52611000Y-41509000D02*
X55460000Y-41509000D01*
X57540000Y-40389000D02*
X59838000Y-40389000D01*
X53056000Y-40549000D02*
X55460000Y-40549000D01*
X52916000Y-40789000D02*
X55460000Y-40789000D01*
X55732000Y-38709000D02*
X57268000Y-38709000D01*
X53517000Y-39949000D02*
X59483000Y-39949000D01*
X57540000Y-40829000D02*
X60106000Y-40829000D01*
X57540000Y-40069000D02*
X59590000Y-40069000D01*
X52623000Y-41469000D02*
X55460000Y-41469000D01*
X52483000Y-42029000D02*
X55460000Y-42029000D01*
X57540000Y-41269000D02*
X60305000Y-41269000D01*
X52515000Y-41869000D02*
X55460000Y-41869000D01*
X53716000Y-39749000D02*
X59284000Y-39749000D01*
X54466000Y-39189000D02*
X58534000Y-39189000D01*
X57540000Y-41229000D02*
X60290000Y-41229000D01*
X57540000Y-40189000D02*
X59689000Y-40189000D01*
X57540000Y-40669000D02*
X60017000Y-40669000D01*
X57540000Y-41349000D02*
X60335000Y-41349000D01*
X52726000Y-41189000D02*
X55460000Y-41189000D01*
X52894000Y-40829000D02*
X55460000Y-40829000D01*
X57540000Y-41749000D02*
X60457000Y-41749000D01*
X57540000Y-40109000D02*
X59624000Y-40109000D01*
X52426000Y-42510000D02*
X60574000Y-42510000D01*
X53633000Y-39829000D02*
X59367000Y-39829000D01*
X55047000Y-38909000D02*
X57953000Y-38909000D01*
X54610000Y-39109000D02*
X58390000Y-39109000D01*
X57540000Y-40509000D02*
X59918000Y-40509000D01*
X55271000Y-38829000D02*
X57729000Y-38829000D01*
X57540000Y-40789000D02*
X60084000Y-40789000D01*
X52543000Y-41749000D02*
X55460000Y-41749000D01*
X52420000Y-42670000D02*
X60580000Y-42670000D01*
X57540000Y-40909000D02*
X60147000Y-40909000D01*
X57540000Y-41029000D02*
X60204000Y-41029000D01*
X52564000Y-41669000D02*
X55460000Y-41669000D01*
X53108000Y-40469000D02*
X55460000Y-40469000D01*
X55402000Y-38789000D02*
X57598000Y-38789000D01*
X54046000Y-39469000D02*
X58954000Y-39469000D01*
X53481000Y-39989000D02*
X55460000Y-39989000D01*
X57540000Y-41869000D02*
X60485000Y-41869000D01*
X57540000Y-40469000D02*
X59892000Y-40469000D01*
X53031000Y-40589000D02*
X55460000Y-40589000D01*
X52448000Y-42270000D02*
X60552000Y-42270000D01*
X53555000Y-39909000D02*
X59445000Y-39909000D01*
X57540000Y-40269000D02*
X59750000Y-40269000D01*
X57540000Y-41789000D02*
X60467000Y-41789000D01*
X52421000Y-42630000D02*
X60579000Y-42630000D01*
X52424000Y-42550000D02*
X60576000Y-42550000D01*
X57540000Y-41909000D02*
X60494000Y-41909000D01*
X57540000Y-41309000D02*
X60321000Y-41309000D01*
X54687000Y-39069000D02*
X58313000Y-39069000D01*
X53376000Y-40109000D02*
X55460000Y-40109000D01*
X57540000Y-40949000D02*
X60166000Y-40949000D01*
X52533000Y-41789000D02*
X55460000Y-41789000D01*
X57540000Y-40309000D02*
X59780000Y-40309000D01*
X53995000Y-39509000D02*
X59005000Y-39509000D01*
X54855000Y-38989000D02*
X58145000Y-38989000D01*
X53250000Y-40269000D02*
X55460000Y-40269000D01*
X57540000Y-40709000D02*
X60040000Y-40709000D01*
X57540000Y-41629000D02*
X60425000Y-41629000D01*
X54100000Y-39429000D02*
X58900000Y-39429000D01*
X52420000Y-42710000D02*
X60580000Y-42710000D01*
X57540000Y-40229000D02*
X59720000Y-40229000D01*
X57540000Y-40549000D02*
X59944000Y-40549000D01*
X57540000Y-42029000D02*
X60517000Y-42029000D01*
X52429000Y-42470000D02*
X60571000Y-42470000D01*
X52760000Y-41109000D02*
X55460000Y-41109000D01*
X52490000Y-41989000D02*
X55460000Y-41989000D01*
X53896000Y-39589000D02*
X59104000Y-39589000D01*
X57540000Y-41189000D02*
X60274000Y-41189000D01*
X55967000Y-38669000D02*
X57033000Y-38669000D01*
X52470000Y-42110000D02*
X60530000Y-42110000D01*
X52458000Y-42190000D02*
X60542000Y-42190000D01*
X52435000Y-42390000D02*
X60565000Y-42390000D01*
X52506000Y-41909000D02*
X55460000Y-41909000D01*
X52853000Y-40909000D02*
X55460000Y-40909000D01*
X57540000Y-39989000D02*
X59519000Y-39989000D01*
X52796000Y-41029000D02*
X55460000Y-41029000D01*
X53593000Y-39869000D02*
X59407000Y-39869000D01*
X52439000Y-42350000D02*
X60561000Y-42350000D01*
X52938000Y-40749000D02*
X55460000Y-40749000D01*
X52695000Y-41269000D02*
X55460000Y-41269000D01*
X57540000Y-41989000D02*
X60510000Y-41989000D01*
X57540000Y-41069000D02*
X60222000Y-41069000D01*
%TD*%
M02*
