%TF.GenerationSoftware,KiCad,Pcbnew,(6.0.9-0)*%
%TF.CreationDate,2023-01-29T21:41:41+00:00*%
%TF.ProjectId,FiringPi,46697269-6e67-4506-992e-6b696361645f,rev?*%
%TF.SameCoordinates,Original*%
%TF.FileFunction,Copper,L1,Top*%
%TF.FilePolarity,Positive*%
%FSLAX46Y46*%
G04 Gerber Fmt 4.6, Leading zero omitted, Abs format (unit mm)*
G04 Created by KiCad (PCBNEW (6.0.9-0)) date 2023-01-29 21:41:41*
%MOMM*%
%LPD*%
G01*
G04 APERTURE LIST*
G04 Aperture macros list*
%AMRoundRect*
0 Rectangle with rounded corners*
0 $1 Rounding radius*
0 $2 $3 $4 $5 $6 $7 $8 $9 X,Y pos of 4 corners*
0 Add a 4 corners polygon primitive as box body*
4,1,4,$2,$3,$4,$5,$6,$7,$8,$9,$2,$3,0*
0 Add four circle primitives for the rounded corners*
1,1,$1+$1,$2,$3*
1,1,$1+$1,$4,$5*
1,1,$1+$1,$6,$7*
1,1,$1+$1,$8,$9*
0 Add four rect primitives between the rounded corners*
20,1,$1+$1,$2,$3,$4,$5,0*
20,1,$1+$1,$4,$5,$6,$7,0*
20,1,$1+$1,$6,$7,$8,$9,0*
20,1,$1+$1,$8,$9,$2,$3,0*%
%AMFreePoly0*
4,1,22,0.550000,-0.750000,0.000000,-0.750000,0.000000,-0.745033,-0.079941,-0.743568,-0.215256,-0.701293,-0.333266,-0.622738,-0.424486,-0.514219,-0.481581,-0.384460,-0.499164,-0.250000,-0.500000,-0.250000,-0.500000,0.250000,-0.499164,0.250000,-0.499963,0.256109,-0.478152,0.396186,-0.417904,0.524511,-0.324060,0.630769,-0.204165,0.706417,-0.067858,0.745374,0.000000,0.744959,0.000000,0.750000,
0.550000,0.750000,0.550000,-0.750000,0.550000,-0.750000,$1*%
%AMFreePoly1*
4,1,20,0.000000,0.744959,0.073905,0.744508,0.209726,0.703889,0.328688,0.626782,0.421226,0.519385,0.479903,0.390333,0.500000,0.250000,0.500000,-0.250000,0.499851,-0.262216,0.476331,-0.402017,0.414519,-0.529596,0.319384,-0.634700,0.198574,-0.708877,0.061801,-0.746166,0.000000,-0.745033,0.000000,-0.750000,-0.550000,-0.750000,-0.550000,0.750000,0.000000,0.750000,0.000000,0.744959,
0.000000,0.744959,$1*%
G04 Aperture macros list end*
%TA.AperFunction,SMDPad,CuDef*%
%ADD10RoundRect,0.225000X-0.225000X-0.250000X0.225000X-0.250000X0.225000X0.250000X-0.225000X0.250000X0*%
%TD*%
%TA.AperFunction,ComponentPad*%
%ADD11R,2.400000X2.400000*%
%TD*%
%TA.AperFunction,ComponentPad*%
%ADD12C,2.400000*%
%TD*%
%TA.AperFunction,SMDPad,CuDef*%
%ADD13RoundRect,0.200000X-0.275000X0.200000X-0.275000X-0.200000X0.275000X-0.200000X0.275000X0.200000X0*%
%TD*%
%TA.AperFunction,SMDPad,CuDef*%
%ADD14FreePoly0,270.000000*%
%TD*%
%TA.AperFunction,SMDPad,CuDef*%
%ADD15R,1.500000X1.000000*%
%TD*%
%TA.AperFunction,SMDPad,CuDef*%
%ADD16FreePoly1,270.000000*%
%TD*%
%TA.AperFunction,ComponentPad*%
%ADD17RoundRect,0.250000X0.600000X0.725000X-0.600000X0.725000X-0.600000X-0.725000X0.600000X-0.725000X0*%
%TD*%
%TA.AperFunction,ComponentPad*%
%ADD18O,1.700000X1.950000*%
%TD*%
%TA.AperFunction,SMDPad,CuDef*%
%ADD19RoundRect,0.218750X0.218750X0.381250X-0.218750X0.381250X-0.218750X-0.381250X0.218750X-0.381250X0*%
%TD*%
%TA.AperFunction,SMDPad,CuDef*%
%ADD20RoundRect,0.225000X0.250000X-0.225000X0.250000X0.225000X-0.250000X0.225000X-0.250000X-0.225000X0*%
%TD*%
%TA.AperFunction,SMDPad,CuDef*%
%ADD21RoundRect,0.200000X0.275000X-0.200000X0.275000X0.200000X-0.275000X0.200000X-0.275000X-0.200000X0*%
%TD*%
%TA.AperFunction,SMDPad,CuDef*%
%ADD22RoundRect,0.225000X-0.250000X0.225000X-0.250000X-0.225000X0.250000X-0.225000X0.250000X0.225000X0*%
%TD*%
%TA.AperFunction,SMDPad,CuDef*%
%ADD23RoundRect,0.200000X-0.200000X-0.275000X0.200000X-0.275000X0.200000X0.275000X-0.200000X0.275000X0*%
%TD*%
%TA.AperFunction,SMDPad,CuDef*%
%ADD24RoundRect,0.243750X0.243750X0.456250X-0.243750X0.456250X-0.243750X-0.456250X0.243750X-0.456250X0*%
%TD*%
%TA.AperFunction,SMDPad,CuDef*%
%ADD25RoundRect,0.218750X0.381250X-0.218750X0.381250X0.218750X-0.381250X0.218750X-0.381250X-0.218750X0*%
%TD*%
%TA.AperFunction,SMDPad,CuDef*%
%ADD26RoundRect,0.125000X-0.825000X-0.125000X0.825000X-0.125000X0.825000X0.125000X-0.825000X0.125000X0*%
%TD*%
%TA.AperFunction,SMDPad,CuDef*%
%ADD27R,1.400000X1.000000*%
%TD*%
%TA.AperFunction,SMDPad,CuDef*%
%ADD28R,2.500000X3.300000*%
%TD*%
%TA.AperFunction,SMDPad,CuDef*%
%ADD29O,17.907000X2.159000*%
%TD*%
%TA.AperFunction,SMDPad,CuDef*%
%ADD30R,1.525000X0.700000*%
%TD*%
%TA.AperFunction,ComponentPad*%
%ADD31RoundRect,0.250000X-0.600000X-0.750000X0.600000X-0.750000X0.600000X0.750000X-0.600000X0.750000X0*%
%TD*%
%TA.AperFunction,ComponentPad*%
%ADD32O,1.700000X2.000000*%
%TD*%
%TA.AperFunction,SMDPad,CuDef*%
%ADD33RoundRect,0.218750X-0.218750X-0.381250X0.218750X-0.381250X0.218750X0.381250X-0.218750X0.381250X0*%
%TD*%
%TA.AperFunction,SMDPad,CuDef*%
%ADD34RoundRect,0.200000X0.200000X0.275000X-0.200000X0.275000X-0.200000X-0.275000X0.200000X-0.275000X0*%
%TD*%
%TA.AperFunction,SMDPad,CuDef*%
%ADD35R,0.250000X1.100000*%
%TD*%
%TA.AperFunction,ComponentPad*%
%ADD36R,1.700000X1.700000*%
%TD*%
%TA.AperFunction,ComponentPad*%
%ADD37O,1.700000X1.700000*%
%TD*%
%TA.AperFunction,SMDPad,CuDef*%
%ADD38R,1.100000X4.600000*%
%TD*%
%TA.AperFunction,SMDPad,CuDef*%
%ADD39R,10.800000X9.400000*%
%TD*%
%TA.AperFunction,SMDPad,CuDef*%
%ADD40RoundRect,0.218750X-0.218750X-0.256250X0.218750X-0.256250X0.218750X0.256250X-0.218750X0.256250X0*%
%TD*%
%TA.AperFunction,ComponentPad*%
%ADD41C,1.600000*%
%TD*%
%TA.AperFunction,ComponentPad*%
%ADD42R,1.600000X1.600000*%
%TD*%
%TA.AperFunction,ViaPad*%
%ADD43C,0.700000*%
%TD*%
%TA.AperFunction,ViaPad*%
%ADD44C,1.500000*%
%TD*%
%TA.AperFunction,Conductor*%
%ADD45C,0.400000*%
%TD*%
%TA.AperFunction,Conductor*%
%ADD46C,1.500000*%
%TD*%
%TA.AperFunction,Conductor*%
%ADD47C,0.500000*%
%TD*%
%TA.AperFunction,Conductor*%
%ADD48C,0.300000*%
%TD*%
%TA.AperFunction,Conductor*%
%ADD49C,1.000000*%
%TD*%
%TA.AperFunction,Conductor*%
%ADD50C,0.250000*%
%TD*%
%TA.AperFunction,Conductor*%
%ADD51C,2.500000*%
%TD*%
G04 APERTURE END LIST*
D10*
%TO.P,C4,1*%
%TO.N,Net-(C3-Pad1)*%
X63175000Y-98500000D03*
%TO.P,C4,2*%
%TO.N,GND*%
X64725000Y-98500000D03*
%TD*%
D11*
%TO.P,C1,1*%
%TO.N,+24V*%
X81500000Y-40176041D03*
D12*
%TO.P,C1,2*%
%TO.N,GND*%
X81500000Y-45176041D03*
%TD*%
D13*
%TO.P,R22,1*%
%TO.N,+3.3V*%
X71750000Y-80925000D03*
%TO.P,R22,2*%
%TO.N,SDA4*%
X71750000Y-82575000D03*
%TD*%
D14*
%TO.P,JP2,1,A*%
%TO.N,Net-(JP2-Pad1)*%
X40500000Y-94200000D03*
D15*
%TO.P,JP2,2,C*%
%TO.N,Net-(JP2-Pad2)*%
X40500000Y-95500000D03*
D16*
%TO.P,JP2,3,B*%
%TO.N,Net-(JP2-Pad3)*%
X40500000Y-96800000D03*
%TD*%
D10*
%TO.P,C16,1*%
%TO.N,Net-(C16-Pad1)*%
X41975000Y-70750000D03*
%TO.P,C16,2*%
%TO.N,Net-(C16-Pad2)*%
X43525000Y-70750000D03*
%TD*%
D17*
%TO.P,J12,1,Pin_1*%
%TO.N,RX*%
X35500000Y-63975000D03*
D18*
%TO.P,J12,2,Pin_2*%
%TO.N,TX*%
X33000000Y-63975000D03*
%TO.P,J12,3,Pin_3*%
%TO.N,GND*%
X30500000Y-63975000D03*
%TD*%
D19*
%TO.P,FB2,1*%
%TO.N,+5V*%
X48662500Y-92400000D03*
%TO.P,FB2,2*%
%TO.N,Net-(C10-Pad1)*%
X46537500Y-92400000D03*
%TD*%
D13*
%TO.P,R20,1*%
%TO.N,+3.3V*%
X71750000Y-72925000D03*
%TO.P,R20,2*%
%TO.N,SDA3*%
X71750000Y-74575000D03*
%TD*%
D17*
%TO.P,PT0,1,Pin_1*%
%TO.N,+3.3V*%
X83500000Y-64025000D03*
D18*
%TO.P,PT0,2,Pin_2*%
%TO.N,GND*%
X81000000Y-64025000D03*
%TO.P,PT0,3,Pin_3*%
%TO.N,SCL1*%
X78500000Y-64025000D03*
%TO.P,PT0,4,Pin_4*%
%TO.N,SDA1*%
X76000000Y-64025000D03*
%TD*%
D17*
%TO.P,PT6,1,Pin_1*%
%TO.N,+5V*%
X35500000Y-96000000D03*
D18*
%TO.P,PT6,2,Pin_2*%
%TO.N,GND*%
X33000000Y-96000000D03*
%TO.P,PT6,3,Pin_3*%
%TO.N,Net-(JP2-Pad2)*%
X30500000Y-96000000D03*
%TD*%
D20*
%TO.P,C10,1*%
%TO.N,Net-(C10-Pad1)*%
X46600000Y-90775000D03*
%TO.P,C10,2*%
%TO.N,Net-(C10-Pad2)*%
X46600000Y-89225000D03*
%TD*%
D21*
%TO.P,R17,1*%
%TO.N,+3.3V*%
X71750000Y-63075000D03*
%TO.P,R17,2*%
%TO.N,SCL1*%
X71750000Y-61425000D03*
%TD*%
D22*
%TO.P,C9,1*%
%TO.N,+5V*%
X57900000Y-95850000D03*
%TO.P,C9,2*%
%TO.N,GND*%
X57900000Y-97400000D03*
%TD*%
D21*
%TO.P,R9,1*%
%TO.N,RLY5*%
X43000000Y-101075000D03*
%TO.P,R9,2*%
%TO.N,GND*%
X43000000Y-99425000D03*
%TD*%
D20*
%TO.P,C5,1*%
%TO.N,Net-(C5-Pad1)*%
X61400000Y-86375000D03*
%TO.P,C5,2*%
%TO.N,Net-(C5-Pad2)*%
X61400000Y-84825000D03*
%TD*%
D23*
%TO.P,R10,1*%
%TO.N,Net-(C5-Pad1)*%
X63075000Y-86350000D03*
%TO.P,R10,2*%
%TO.N,Net-(LC0-Pad3)*%
X64725000Y-86350000D03*
%TD*%
D24*
%TO.P,D2,1,K*%
%TO.N,GND*%
X55837500Y-33900000D03*
%TO.P,D2,2,A*%
%TO.N,Net-(D2-Pad2)*%
X53962500Y-33900000D03*
%TD*%
D25*
%TO.P,FB1,2*%
%TO.N,Net-(C2-Pad1)*%
X53621320Y-48187500D03*
%TO.P,FB1,1*%
%TO.N,+5V*%
X53621320Y-50312500D03*
%TD*%
D26*
%TO.P,U6,1,~{DRDY}*%
%TO.N,unconnected-(U6-Pad1)*%
X42250000Y-63075000D03*
%TO.P,U6,2,DVDD*%
%TO.N,+3.3V*%
X42250000Y-63725000D03*
%TO.P,U6,3,VDD*%
X42250000Y-64375000D03*
%TO.P,U6,4,BIAS*%
%TO.N,Net-(R15-Pad1)*%
X42250000Y-65025000D03*
%TO.P,U6,5,REFIN+*%
X42250000Y-65675000D03*
%TO.P,U6,6,REFIN-*%
%TO.N,Net-(R15-Pad2)*%
X42250000Y-66325000D03*
%TO.P,U6,7,ISENSOR*%
X42250000Y-66975000D03*
%TO.P,U6,8,FORCE+*%
%TO.N,Net-(RTD0-Pad1)*%
X42250000Y-67625000D03*
%TO.P,U6,9,FORCE2*%
X42250000Y-68275000D03*
%TO.P,U6,10,RTDIN+*%
%TO.N,Net-(C16-Pad1)*%
X42250000Y-68925000D03*
%TO.P,U6,11,RTDIN-*%
%TO.N,Net-(C16-Pad2)*%
X49250000Y-68925000D03*
%TO.P,U6,12,FORCE-*%
X49250000Y-68275000D03*
%TO.P,U6,13,GND*%
%TO.N,GND*%
X49250000Y-67625000D03*
%TO.P,U6,14,SDI*%
%TO.N,MOSI*%
X49250000Y-66975000D03*
%TO.P,U6,15,SCLK*%
%TO.N,SCLK*%
X49250000Y-66325000D03*
%TO.P,U6,16,~{CS}*%
%TO.N,CS0*%
X49250000Y-65675000D03*
%TO.P,U6,17,SDO*%
%TO.N,MISO*%
X49250000Y-65025000D03*
%TO.P,U6,18,DGND*%
%TO.N,GND*%
X49250000Y-64375000D03*
%TO.P,U6,19,GND*%
X49250000Y-63725000D03*
%TO.P,U6,20,NC*%
%TO.N,unconnected-(U6-Pad20)*%
X49250000Y-63075000D03*
%TD*%
D13*
%TO.P,R16,2*%
%TO.N,Net-(R16-Pad2)*%
X39750000Y-82325000D03*
%TO.P,R16,1*%
%TO.N,Net-(R16-Pad1)*%
X39750000Y-80675000D03*
%TD*%
D27*
%TO.P,Q1,B*%
%TO.N,Net-(IC1-Pad2)*%
X61300000Y-93650000D03*
%TO.P,Q1,C*%
%TO.N,Net-(IC1-Pad3)*%
X63500000Y-94600000D03*
%TO.P,Q1,E*%
%TO.N,+5V*%
X61300000Y-95550000D03*
%TD*%
D17*
%TO.P,PT2,1,Pin_1*%
%TO.N,+3.3V*%
X83500000Y-80025000D03*
D18*
%TO.P,PT2,2,Pin_2*%
%TO.N,GND*%
X81000000Y-80025000D03*
%TO.P,PT2,3,Pin_3*%
%TO.N,SCL4*%
X78500000Y-80025000D03*
%TO.P,PT2,4,Pin_4*%
%TO.N,SDA4*%
X76000000Y-80025000D03*
%TD*%
D22*
%TO.P,C13,1*%
%TO.N,+3.3V*%
X39750000Y-64725000D03*
%TO.P,C13,2*%
%TO.N,GND*%
X39750000Y-66275000D03*
%TD*%
D13*
%TO.P,R24,1*%
%TO.N,+3.3V*%
X71750000Y-88925000D03*
%TO.P,R24,2*%
%TO.N,SDA5*%
X71750000Y-90575000D03*
%TD*%
D23*
%TO.P,R13,1*%
%TO.N,Net-(IC1-Pad4)*%
X61075000Y-90100000D03*
%TO.P,R13,2*%
%TO.N,GND*%
X62725000Y-90100000D03*
%TD*%
D14*
%TO.P,JP1,1,A*%
%TO.N,Net-(JP1-Pad1)*%
X40500000Y-86200000D03*
D15*
%TO.P,JP1,2,C*%
%TO.N,Net-(JP1-Pad2)*%
X40500000Y-87500000D03*
D16*
%TO.P,JP1,3,B*%
%TO.N,Net-(JP1-Pad3)*%
X40500000Y-88800000D03*
%TD*%
D13*
%TO.P,R18,1*%
%TO.N,+3.3V*%
X71750000Y-64925000D03*
%TO.P,R18,2*%
%TO.N,SDA1*%
X71750000Y-66575000D03*
%TD*%
D21*
%TO.P,R23,1*%
%TO.N,+3.3V*%
X71750000Y-87075000D03*
%TO.P,R23,2*%
%TO.N,SCL5*%
X71750000Y-85425000D03*
%TD*%
D10*
%TO.P,C6,1*%
%TO.N,Net-(C6-Pad1)*%
X61125000Y-88600000D03*
%TO.P,C6,2*%
%TO.N,GND*%
X62675000Y-88600000D03*
%TD*%
D20*
%TO.P,C14,1*%
%TO.N,+3.3V*%
X39750000Y-76275000D03*
%TO.P,C14,2*%
%TO.N,GND*%
X39750000Y-74725000D03*
%TD*%
D17*
%TO.P,LC0,1,Pin_1*%
%TO.N,Net-(C3-Pad1)*%
X76750000Y-104025000D03*
D18*
%TO.P,LC0,2,Pin_2*%
%TO.N,GND*%
X74250000Y-104025000D03*
%TO.P,LC0,3,Pin_3*%
%TO.N,Net-(LC0-Pad3)*%
X71750000Y-104025000D03*
%TO.P,LC0,4,Pin_4*%
%TO.N,Net-(LC0-Pad4)*%
X69250000Y-104025000D03*
%TD*%
D28*
%TO.P,D1,1,K*%
%TO.N,Net-(D1-Pad1)*%
X65075000Y-28425000D03*
%TO.P,D1,2,A*%
%TO.N,GND*%
X58275000Y-28425000D03*
%TD*%
D10*
%TO.P,C3,1*%
%TO.N,Net-(C3-Pad1)*%
X63175000Y-100100000D03*
%TO.P,C3,2*%
%TO.N,GND*%
X64725000Y-100100000D03*
%TD*%
D13*
%TO.P,R26,1*%
%TO.N,+3.3V*%
X71750000Y-96925000D03*
%TO.P,R26,2*%
%TO.N,SDA6*%
X71750000Y-98575000D03*
%TD*%
D21*
%TO.P,R5,1*%
%TO.N,RLY1*%
X51000000Y-101075000D03*
%TO.P,R5,2*%
%TO.N,GND*%
X51000000Y-99425000D03*
%TD*%
D22*
%TO.P,C8,1*%
%TO.N,+5V*%
X59400000Y-95850000D03*
%TO.P,C8,2*%
%TO.N,GND*%
X59400000Y-97400000D03*
%TD*%
D29*
%TO.P,L7,2*%
%TO.N,Net-(C2-Pad1)*%
X38621320Y-47662320D03*
%TO.P,L7,1*%
%TO.N,Net-(D1-Pad1)*%
X38621320Y-26580320D03*
%TD*%
D20*
%TO.P,C12,1*%
%TO.N,+3.3V*%
X39750000Y-63275000D03*
%TO.P,C12,2*%
%TO.N,GND*%
X39750000Y-61725000D03*
%TD*%
D30*
%TO.P,IC1,1,VSUP*%
%TO.N,+5V*%
X59112000Y-94045000D03*
%TO.P,IC1,2,BASE*%
%TO.N,Net-(IC1-Pad2)*%
X59112000Y-92775000D03*
%TO.P,IC1,3,AVDD*%
%TO.N,Net-(IC1-Pad3)*%
X59112000Y-91505000D03*
%TO.P,IC1,4,VFB*%
%TO.N,Net-(IC1-Pad4)*%
X59112000Y-90235000D03*
%TO.P,IC1,5,AGND*%
%TO.N,GND*%
X59112000Y-88965000D03*
%TO.P,IC1,6,VBG*%
%TO.N,Net-(C6-Pad1)*%
X59112000Y-87695000D03*
%TO.P,IC1,7,INNA*%
%TO.N,Net-(C5-Pad1)*%
X59112000Y-86425000D03*
%TO.P,IC1,8,INPA*%
%TO.N,Net-(C5-Pad2)*%
X59112000Y-85155000D03*
%TO.P,IC1,9,INNB*%
%TO.N,unconnected-(IC1-Pad9)*%
X53688000Y-85155000D03*
%TO.P,IC1,10,INPB*%
%TO.N,unconnected-(IC1-Pad10)*%
X53688000Y-86425000D03*
%TO.P,IC1,11,PD_SCK*%
%TO.N,LC_CLK*%
X53688000Y-87695000D03*
%TO.P,IC1,12,DOUT*%
%TO.N,LC_DAT*%
X53688000Y-88965000D03*
%TO.P,IC1,13,XO*%
%TO.N,unconnected-(IC1-Pad13)*%
X53688000Y-90235000D03*
%TO.P,IC1,14,XI*%
%TO.N,GND*%
X53688000Y-91505000D03*
%TO.P,IC1,15,RATE*%
%TO.N,Net-(IC1-Pad15)*%
X53688000Y-92775000D03*
%TO.P,IC1,16,DVDD*%
%TO.N,+3.3V*%
X53688000Y-94045000D03*
%TD*%
D10*
%TO.P,C7,1*%
%TO.N,+3.3V*%
X53625000Y-95850000D03*
%TO.P,C7,2*%
%TO.N,GND*%
X55175000Y-95850000D03*
%TD*%
D23*
%TO.P,R11,1*%
%TO.N,Net-(C5-Pad2)*%
X63075000Y-84850000D03*
%TO.P,R11,2*%
%TO.N,Net-(LC0-Pad4)*%
X64725000Y-84850000D03*
%TD*%
%TO.P,R12,2*%
%TO.N,Net-(IC1-Pad4)*%
X62725000Y-91600000D03*
%TO.P,R12,1*%
%TO.N,Net-(IC1-Pad3)*%
X61075000Y-91600000D03*
%TD*%
D31*
%TO.P,24V1,1,Pin_1*%
%TO.N,+24V*%
X79871320Y-28096320D03*
D32*
%TO.P,24V1,2,Pin_2*%
%TO.N,GND*%
X82371320Y-28096320D03*
%TD*%
D33*
%TO.P,FB3,1*%
%TO.N,GND*%
X46537500Y-87600000D03*
%TO.P,FB3,2*%
%TO.N,Net-(C10-Pad2)*%
X48662500Y-87600000D03*
%TD*%
D21*
%TO.P,R21,1*%
%TO.N,+3.3V*%
X71750000Y-79075000D03*
%TO.P,R21,2*%
%TO.N,SCL4*%
X71750000Y-77425000D03*
%TD*%
D17*
%TO.P,RTD0,1,Pin_1*%
%TO.N,Net-(RTD0-Pad1)*%
X35500000Y-72000000D03*
D18*
%TO.P,RTD0,2,Pin_2*%
%TO.N,Net-(C16-Pad1)*%
X33000000Y-72000000D03*
%TO.P,RTD0,3,Pin_3*%
%TO.N,Net-(C16-Pad2)*%
X30500000Y-72000000D03*
%TD*%
D34*
%TO.P,R1,2*%
%TO.N,Net-(D2-Pad2)*%
X54075000Y-35800000D03*
%TO.P,R1,1*%
%TO.N,Net-(C2-Pad1)*%
X55725000Y-35800000D03*
%TD*%
D22*
%TO.P,C15,1*%
%TO.N,+3.3V*%
X39750000Y-77725000D03*
%TO.P,C15,2*%
%TO.N,GND*%
X39750000Y-79275000D03*
%TD*%
D20*
%TO.P,C11,1*%
%TO.N,+5V*%
X48400000Y-90775000D03*
%TO.P,C11,2*%
%TO.N,GND*%
X48400000Y-89225000D03*
%TD*%
D21*
%TO.P,R19,1*%
%TO.N,+3.3V*%
X71750000Y-71075000D03*
%TO.P,R19,2*%
%TO.N,SCL3*%
X71750000Y-69425000D03*
%TD*%
%TO.P,R8,1*%
%TO.N,RLY4*%
X45000000Y-101075000D03*
%TO.P,R8,2*%
%TO.N,GND*%
X45000000Y-99425000D03*
%TD*%
%TO.P,R7,1*%
%TO.N,RLY3*%
X47000000Y-101075000D03*
%TO.P,R7,2*%
%TO.N,GND*%
X47000000Y-99425000D03*
%TD*%
D35*
%TO.P,U5,1,ADDR*%
%TO.N,Net-(C10-Pad2)*%
X45000000Y-87850000D03*
%TO.P,U5,2,ALERT/RDY*%
%TO.N,unconnected-(U5-Pad2)*%
X44500000Y-87850000D03*
%TO.P,U5,3,GND*%
%TO.N,Net-(C10-Pad2)*%
X44000000Y-87850000D03*
%TO.P,U5,4,AIN0*%
%TO.N,Net-(JP1-Pad1)*%
X43500000Y-87850000D03*
%TO.P,U5,5,AIN1*%
%TO.N,Net-(JP1-Pad3)*%
X43000000Y-87850000D03*
%TO.P,U5,6,AIN2*%
%TO.N,Net-(JP2-Pad1)*%
X43000000Y-92150000D03*
%TO.P,U5,7,AIN3*%
%TO.N,Net-(JP2-Pad3)*%
X43500000Y-92150000D03*
%TO.P,U5,8,VDD*%
%TO.N,Net-(C10-Pad1)*%
X44000000Y-92150000D03*
%TO.P,U5,9,SDA*%
%TO.N,SDA1*%
X44500000Y-92150000D03*
%TO.P,U5,10,SCL*%
%TO.N,SCL1*%
X45000000Y-92150000D03*
%TD*%
D17*
%TO.P,RTD1,1,Pin_1*%
%TO.N,Net-(RTD1-Pad1)*%
X35500000Y-80000000D03*
D18*
%TO.P,RTD1,2,Pin_2*%
%TO.N,Net-(C17-Pad1)*%
X33000000Y-80000000D03*
%TO.P,RTD1,3,Pin_3*%
%TO.N,Net-(C17-Pad2)*%
X30500000Y-80000000D03*
%TD*%
D10*
%TO.P,C17,1*%
%TO.N,Net-(C17-Pad1)*%
X42000000Y-83750000D03*
%TO.P,C17,2*%
%TO.N,Net-(C17-Pad2)*%
X43550000Y-83750000D03*
%TD*%
D17*
%TO.P,PT5,1,Pin_1*%
%TO.N,+5V*%
X35500000Y-87975000D03*
D18*
%TO.P,PT5,2,Pin_2*%
%TO.N,GND*%
X33000000Y-87975000D03*
%TO.P,PT5,3,Pin_3*%
%TO.N,Net-(JP1-Pad2)*%
X30500000Y-87975000D03*
%TD*%
D36*
%TO.P,RELAY1,1,Pin_1*%
%TO.N,GND*%
X56925000Y-104000000D03*
D37*
%TO.P,RELAY1,2,Pin_2*%
%TO.N,RLY0*%
X54385000Y-104000000D03*
%TO.P,RELAY1,3,Pin_3*%
%TO.N,RLY1*%
X51845000Y-104000000D03*
%TO.P,RELAY1,4,Pin_4*%
%TO.N,RLY2*%
X49305000Y-104000000D03*
%TO.P,RELAY1,5,Pin_5*%
%TO.N,RLY3*%
X46765000Y-104000000D03*
%TO.P,RELAY1,6,Pin_6*%
%TO.N,RLY4*%
X44225000Y-104000000D03*
%TO.P,RELAY1,7,Pin_7*%
%TO.N,RLY5*%
X41685000Y-104000000D03*
%TO.P,RELAY1,8,Pin_8*%
%TO.N,unconnected-(RELAY1-Pad8)*%
X39145000Y-104000000D03*
%TO.P,RELAY1,9,Pin_9*%
%TO.N,unconnected-(RELAY1-Pad9)*%
X36605000Y-104000000D03*
%TO.P,RELAY1,10,Pin_10*%
%TO.N,+5V*%
X34065000Y-104000000D03*
%TD*%
D21*
%TO.P,R25,1*%
%TO.N,+3.3V*%
X71750000Y-95075000D03*
%TO.P,R25,2*%
%TO.N,SCL6*%
X71750000Y-93425000D03*
%TD*%
D17*
%TO.P,PT3,1,Pin_1*%
%TO.N,+3.3V*%
X83500000Y-88025000D03*
D18*
%TO.P,PT3,2,Pin_2*%
%TO.N,GND*%
X81000000Y-88025000D03*
%TO.P,PT3,3,Pin_3*%
%TO.N,SCL5*%
X78500000Y-88025000D03*
%TO.P,PT3,4,Pin_4*%
%TO.N,SDA5*%
X76000000Y-88025000D03*
%TD*%
D21*
%TO.P,R4,1*%
%TO.N,RLY0*%
X53000000Y-101075000D03*
%TO.P,R4,2*%
%TO.N,GND*%
X53000000Y-99425000D03*
%TD*%
D13*
%TO.P,R15,2*%
%TO.N,Net-(R15-Pad2)*%
X39750000Y-69325000D03*
%TO.P,R15,1*%
%TO.N,Net-(R15-Pad1)*%
X39750000Y-67675000D03*
%TD*%
D21*
%TO.P,R14,1*%
%TO.N,+5V*%
X51800000Y-94225000D03*
%TO.P,R14,2*%
%TO.N,Net-(IC1-Pad15)*%
X51800000Y-92575000D03*
%TD*%
D17*
%TO.P,PT1,1,Pin_1*%
%TO.N,+3.3V*%
X83500000Y-72050000D03*
D18*
%TO.P,PT1,2,Pin_2*%
%TO.N,GND*%
X81000000Y-72050000D03*
%TO.P,PT1,3,Pin_3*%
%TO.N,SCL3*%
X78500000Y-72050000D03*
%TO.P,PT1,4,Pin_4*%
%TO.N,SDA3*%
X76000000Y-72050000D03*
%TD*%
D21*
%TO.P,R6,1*%
%TO.N,RLY2*%
X49000000Y-101075000D03*
%TO.P,R6,2*%
%TO.N,GND*%
X49000000Y-99425000D03*
%TD*%
D18*
%TO.P,PT4,4,Pin_4*%
%TO.N,SDA6*%
X76000000Y-96025000D03*
%TO.P,PT4,3,Pin_3*%
%TO.N,SCL6*%
X78500000Y-96025000D03*
%TO.P,PT4,2,Pin_2*%
%TO.N,GND*%
X81000000Y-96025000D03*
D17*
%TO.P,PT4,1,Pin_1*%
%TO.N,+3.3V*%
X83500000Y-96025000D03*
%TD*%
D26*
%TO.P,U7,1,~{DRDY}*%
%TO.N,unconnected-(U7-Pad1)*%
X42250000Y-76075000D03*
%TO.P,U7,2,DVDD*%
%TO.N,+3.3V*%
X42250000Y-76725000D03*
%TO.P,U7,3,VDD*%
X42250000Y-77375000D03*
%TO.P,U7,4,BIAS*%
%TO.N,Net-(R16-Pad1)*%
X42250000Y-78025000D03*
%TO.P,U7,5,REFIN+*%
X42250000Y-78675000D03*
%TO.P,U7,6,REFIN-*%
%TO.N,Net-(R16-Pad2)*%
X42250000Y-79325000D03*
%TO.P,U7,7,ISENSOR*%
X42250000Y-79975000D03*
%TO.P,U7,8,FORCE+*%
%TO.N,Net-(RTD1-Pad1)*%
X42250000Y-80625000D03*
%TO.P,U7,9,FORCE2*%
X42250000Y-81275000D03*
%TO.P,U7,10,RTDIN+*%
%TO.N,Net-(C17-Pad1)*%
X42250000Y-81925000D03*
%TO.P,U7,11,RTDIN-*%
%TO.N,Net-(C17-Pad2)*%
X49250000Y-81925000D03*
%TO.P,U7,12,FORCE-*%
X49250000Y-81275000D03*
%TO.P,U7,13,GND*%
%TO.N,GND*%
X49250000Y-80625000D03*
%TO.P,U7,14,SDI*%
%TO.N,MOSI*%
X49250000Y-79975000D03*
%TO.P,U7,15,SCLK*%
%TO.N,SCLK*%
X49250000Y-79325000D03*
%TO.P,U7,16,~{CS}*%
%TO.N,CS1*%
X49250000Y-78675000D03*
%TO.P,U7,17,SDO*%
%TO.N,MISO*%
X49250000Y-78025000D03*
%TO.P,U7,18,DGND*%
%TO.N,GND*%
X49250000Y-77375000D03*
%TO.P,U7,19,GND*%
X49250000Y-76725000D03*
%TO.P,U7,20,NC*%
%TO.N,unconnected-(U7-Pad20)*%
X49250000Y-76075000D03*
%TD*%
D38*
%TO.P,U4,5,~{ON}/OFF*%
%TO.N,GND*%
X64325000Y-35875000D03*
%TO.P,U4,4,FB*%
%TO.N,Net-(C2-Pad1)*%
X66025000Y-35875000D03*
D39*
%TO.P,U4,3,GND*%
%TO.N,GND*%
X67725000Y-45025000D03*
D38*
X67725000Y-35875000D03*
%TO.P,U4,2,OUT*%
%TO.N,Net-(D1-Pad1)*%
X69425000Y-35875000D03*
%TO.P,U4,1,VIN*%
%TO.N,+24V*%
X71125000Y-35875000D03*
%TD*%
D40*
%TO.P,L6,1*%
%TO.N,Net-(C3-Pad1)*%
X63162500Y-96900000D03*
%TO.P,L6,2*%
%TO.N,Net-(IC1-Pad3)*%
X64737500Y-96900000D03*
%TD*%
D41*
%TO.P,C2,2*%
%TO.N,GND*%
X56500000Y-41000000D03*
D42*
%TO.P,C2,1*%
%TO.N,Net-(C2-Pad1)*%
X56500000Y-44500000D03*
%TD*%
D36*
%TO.P,P1,1,Pin_1*%
%TO.N,+3.3V*%
X32900000Y-57290000D03*
D37*
%TO.P,P1,2,Pin_2*%
%TO.N,+5V*%
X32900000Y-54750000D03*
%TO.P,P1,3,Pin_3*%
%TO.N,SDA1*%
X35440000Y-57290000D03*
%TO.P,P1,4,Pin_4*%
%TO.N,+5V*%
X35440000Y-54750000D03*
%TO.P,P1,5,Pin_5*%
%TO.N,SCL1*%
X37980000Y-57290000D03*
%TO.P,P1,6,Pin_6*%
%TO.N,GND*%
X37980000Y-54750000D03*
%TO.P,P1,7,Pin_7*%
%TO.N,SDA3*%
X40520000Y-57290000D03*
%TO.P,P1,8,Pin_8*%
%TO.N,TX*%
X40520000Y-54750000D03*
%TO.P,P1,9,Pin_9*%
%TO.N,GND*%
X43060000Y-57290000D03*
%TO.P,P1,10,Pin_10*%
%TO.N,RX*%
X43060000Y-54750000D03*
%TO.P,P1,11,Pin_11*%
%TO.N,RLY5*%
X45600000Y-57290000D03*
%TO.P,P1,12,Pin_12*%
%TO.N,unconnected-(P1-Pad12)*%
X45600000Y-54750000D03*
%TO.P,P1,13,Pin_13*%
%TO.N,RLY4*%
X48140000Y-57290000D03*
%TO.P,P1,14,Pin_14*%
%TO.N,GND*%
X48140000Y-54750000D03*
%TO.P,P1,15,Pin_15*%
%TO.N,SDA6*%
X50680000Y-57290000D03*
%TO.P,P1,16,Pin_16*%
%TO.N,SCL6*%
X50680000Y-54750000D03*
%TO.P,P1,17,Pin_17*%
%TO.N,+3.3V*%
X53220000Y-57290000D03*
%TO.P,P1,18,Pin_18*%
%TO.N,CS1*%
X53220000Y-54750000D03*
%TO.P,P1,19,Pin_19*%
%TO.N,RLY3*%
X55760000Y-57290000D03*
%TO.P,P1,20,Pin_20*%
%TO.N,GND*%
X55760000Y-54750000D03*
%TO.P,P1,21,Pin_21*%
%TO.N,SCL4*%
X58300000Y-57290000D03*
%TO.P,P1,22,Pin_22*%
%TO.N,LC_CLK*%
X58300000Y-54750000D03*
%TO.P,P1,23,Pin_23*%
%TO.N,RLY2*%
X60840000Y-57290000D03*
%TO.P,P1,24,Pin_24*%
%TO.N,SDA4*%
X60840000Y-54750000D03*
%TO.P,P1,25,Pin_25*%
%TO.N,GND*%
X63380000Y-57290000D03*
%TO.P,P1,26,Pin_26*%
%TO.N,LC_DAT*%
X63380000Y-54750000D03*
%TO.P,P1,27,Pin_27*%
%TO.N,unconnected-(P1-Pad27)*%
X65920000Y-57290000D03*
%TO.P,P1,28,Pin_28*%
%TO.N,unconnected-(P1-Pad28)*%
X65920000Y-54750000D03*
%TO.P,P1,29,Pin_29*%
%TO.N,SCL3*%
X68460000Y-57290000D03*
%TO.P,P1,30,Pin_30*%
%TO.N,GND*%
X68460000Y-54750000D03*
%TO.P,P1,31,Pin_31*%
%TO.N,RLY1*%
X71000000Y-57290000D03*
%TO.P,P1,32,Pin_32*%
%TO.N,SDA5*%
X71000000Y-54750000D03*
%TO.P,P1,33,Pin_33*%
%TO.N,SCL5*%
X73540000Y-57290000D03*
%TO.P,P1,34,Pin_34*%
%TO.N,GND*%
X73540000Y-54750000D03*
%TO.P,P1,35,Pin_35*%
%TO.N,MISO*%
X76080000Y-57290000D03*
%TO.P,P1,36,Pin_36*%
%TO.N,CS0*%
X76080000Y-54750000D03*
%TO.P,P1,37,Pin_37*%
%TO.N,RLY0*%
X78620000Y-57290000D03*
%TO.P,P1,38,Pin_38*%
%TO.N,MOSI*%
X78620000Y-54750000D03*
%TO.P,P1,39,Pin_39*%
%TO.N,GND*%
X81160000Y-57290000D03*
%TO.P,P1,40,Pin_40*%
%TO.N,SCLK*%
X81160000Y-54750000D03*
%TD*%
D43*
%TO.N,GND*%
X65850000Y-98500000D03*
X72250000Y-41250000D03*
X55250000Y-91500000D03*
X58600000Y-98600000D03*
X72250000Y-44250000D03*
X69250000Y-44250000D03*
X67750000Y-45750000D03*
D44*
X55750000Y-100750000D03*
D43*
X66250000Y-44250000D03*
X63250000Y-42750000D03*
X72250000Y-42750000D03*
X70750000Y-47250000D03*
X70750000Y-48750000D03*
X50800000Y-80600000D03*
X64750000Y-41250000D03*
X66250000Y-41250000D03*
X38650000Y-79300000D03*
X57500000Y-89000000D03*
X67750000Y-44250000D03*
X66250000Y-45750000D03*
X70750000Y-45750000D03*
X56400000Y-95800000D03*
X69250000Y-41250000D03*
X63250000Y-48750000D03*
X38650000Y-66300000D03*
X66250000Y-42750000D03*
X72250000Y-47250000D03*
X70750000Y-42750000D03*
X49550000Y-89250000D03*
X70750000Y-44250000D03*
X66250000Y-48750000D03*
X69250000Y-42750000D03*
X69250000Y-47250000D03*
X57000000Y-33900000D03*
X64750000Y-48750000D03*
X47371000Y-64400000D03*
X69250000Y-45750000D03*
X47390500Y-86000000D03*
X64750000Y-44250000D03*
X50925000Y-76250000D03*
X72250000Y-48750000D03*
X67750000Y-42750000D03*
X63250000Y-45750000D03*
X63750000Y-89250000D03*
X67750000Y-41250000D03*
X67750000Y-48750000D03*
X69250000Y-48750000D03*
X67750000Y-47250000D03*
D44*
X55675000Y-27425000D03*
D43*
X63250000Y-44250000D03*
X70750000Y-41250000D03*
X39750000Y-73700000D03*
X64750000Y-45750000D03*
X63250000Y-41250000D03*
X51000000Y-67800000D03*
X64750000Y-42750000D03*
D44*
X55675000Y-29425000D03*
D43*
X64750000Y-47250000D03*
X72250000Y-45750000D03*
X66250000Y-47250000D03*
X63250000Y-47250000D03*
X39750000Y-60650000D03*
%TO.N,+3.3V*%
X72800000Y-64600000D03*
X72750000Y-72000000D03*
X37750000Y-75500000D03*
X72750000Y-80000000D03*
X72750000Y-96000000D03*
X37750000Y-63750000D03*
X60600000Y-100600000D03*
X72750000Y-88000000D03*
%TO.N,+5V*%
X38000000Y-51500000D03*
X42000000Y-51500000D03*
X40000000Y-51500000D03*
X49550000Y-90750000D03*
X57300000Y-94750000D03*
X50600000Y-94200000D03*
%TO.N,LC_CLK*%
X57100000Y-83450000D03*
%TO.N,LC_DAT*%
X55500000Y-88900000D03*
%TO.N,SCL1*%
X44375000Y-94975000D03*
X44750000Y-71575000D03*
%TO.N,SDA1*%
X44249500Y-93800000D03*
X43750000Y-72550000D03*
%TO.N,SCL3*%
X68500000Y-68700000D03*
%TO.N,SDA3*%
X45680000Y-74560000D03*
%TO.N,SCL4*%
X58300000Y-75600000D03*
%TO.N,SDA4*%
X59700000Y-75600000D03*
%TO.N,SCL5*%
X73500000Y-60300000D03*
%TO.N,SCL6*%
X68820000Y-71900000D03*
X50673000Y-71882000D03*
%TO.N,SDA6*%
X50673000Y-73533000D03*
X69850000Y-73000000D03*
%TO.N,CS1*%
X52500000Y-77900000D03*
%TO.N,MISO*%
X51800000Y-61100000D03*
X51700000Y-76900000D03*
%TO.N,MOSI*%
X47300000Y-67945000D03*
X47300000Y-80000000D03*
X64700000Y-67325000D03*
%TO.N,SCLK*%
X51700000Y-79800000D03*
X47371000Y-66294000D03*
%TD*%
D45*
%TO.N,Net-(C3-Pad1)*%
X63175000Y-98500000D02*
X63175000Y-100100000D01*
D46*
%TO.N,Net-(D1-Pad1)*%
X69475000Y-32825000D02*
X69475000Y-35825000D01*
%TO.N,Net-(C2-Pad1)*%
X66025000Y-33025000D02*
X66025000Y-35875000D01*
D45*
%TO.N,Net-(C3-Pad1)*%
X63162500Y-96900000D02*
X63162500Y-98487500D01*
%TO.N,GND*%
X64725000Y-98500000D02*
X65850000Y-98500000D01*
X64725000Y-100100000D02*
X64725000Y-98500000D01*
D47*
%TO.N,Net-(C3-Pad1)*%
X63175000Y-102675000D02*
X63175000Y-100100000D01*
D46*
%TO.N,+24V*%
X78323959Y-37000000D02*
X72000000Y-37000000D01*
X79871320Y-28096320D02*
X79871320Y-35871320D01*
X79871320Y-35871320D02*
X79871320Y-38547361D01*
X78742640Y-37000000D02*
X79871320Y-35871320D01*
X78323959Y-37000000D02*
X78742640Y-37000000D01*
X81500000Y-40176041D02*
X78323959Y-37000000D01*
X79871320Y-38547361D02*
X81500000Y-40176041D01*
D48*
%TO.N,GND*%
X46537500Y-86853000D02*
X47390500Y-86000000D01*
D46*
X55675000Y-27425000D02*
X57275000Y-27425000D01*
D49*
X45000000Y-99425000D02*
X47000000Y-99425000D01*
D48*
X49250000Y-63725000D02*
X48065500Y-63725000D01*
D47*
X58650000Y-97400000D02*
X59400000Y-97400000D01*
D49*
X56925000Y-101925000D02*
X55750000Y-100750000D01*
D48*
X48065500Y-63725000D02*
X47390500Y-64400000D01*
D47*
X57900000Y-97400000D02*
X58650000Y-97400000D01*
D50*
X38675000Y-66275000D02*
X38650000Y-66300000D01*
D47*
X58600000Y-98600000D02*
X58600000Y-97450000D01*
D48*
X47415500Y-64375000D02*
X47390500Y-64400000D01*
X49250000Y-64375000D02*
X47415500Y-64375000D01*
X48400000Y-89225000D02*
X49525000Y-89225000D01*
X49250000Y-67625000D02*
X50825000Y-67625000D01*
D47*
X58600000Y-98600000D02*
X58600000Y-98100000D01*
D48*
X62725000Y-89275000D02*
X62725000Y-88650000D01*
D46*
X57275000Y-27425000D02*
X58275000Y-28425000D01*
D48*
X39750000Y-79275000D02*
X38675000Y-79275000D01*
D47*
X58600000Y-97450000D02*
X58650000Y-97400000D01*
D49*
X56925000Y-104000000D02*
X56925000Y-101925000D01*
D46*
X57275000Y-29425000D02*
X58275000Y-28425000D01*
D50*
X39750000Y-61725000D02*
X39750000Y-60650000D01*
D48*
X58600000Y-98600000D02*
X58650000Y-98550000D01*
X62725000Y-89275000D02*
X63725000Y-89275000D01*
D47*
X58600000Y-98200000D02*
X59400000Y-97400000D01*
D48*
X46537500Y-87600000D02*
X46537500Y-86853000D01*
X50775000Y-80625000D02*
X50800000Y-80600000D01*
D45*
X55837500Y-33900000D02*
X57000000Y-33900000D01*
D49*
X51000000Y-99425000D02*
X49000000Y-99425000D01*
D47*
X58600000Y-98100000D02*
X57900000Y-97400000D01*
D48*
X55245000Y-91505000D02*
X55250000Y-91500000D01*
D49*
X53000000Y-99425000D02*
X51000000Y-99425000D01*
X54425000Y-99425000D02*
X53000000Y-99425000D01*
X45000000Y-99425000D02*
X43000000Y-99425000D01*
D48*
X57535000Y-88965000D02*
X57500000Y-89000000D01*
X55175000Y-95850000D02*
X56350000Y-95850000D01*
D49*
X49000000Y-99425000D02*
X47000000Y-99425000D01*
D48*
X50825000Y-67625000D02*
X51000000Y-67800000D01*
D46*
X55675000Y-29425000D02*
X56675000Y-28425000D01*
D48*
X53688000Y-91505000D02*
X55245000Y-91505000D01*
D49*
X64375000Y-36925000D02*
X64375000Y-42675000D01*
D48*
X49250000Y-80625000D02*
X50775000Y-80625000D01*
X63725000Y-89275000D02*
X63750000Y-89250000D01*
X62725000Y-88650000D02*
X62675000Y-88600000D01*
X59112000Y-88965000D02*
X57535000Y-88965000D01*
D46*
X55675000Y-27425000D02*
X55675000Y-29425000D01*
D50*
X39750000Y-66275000D02*
X38675000Y-66275000D01*
D48*
X50450000Y-76725000D02*
X50925000Y-76250000D01*
D49*
X67775000Y-36925000D02*
X67775000Y-46075000D01*
D48*
X62725000Y-90100000D02*
X62725000Y-89275000D01*
X58600000Y-98600000D02*
X58600000Y-98200000D01*
X49250000Y-77375000D02*
X49250000Y-76725000D01*
D50*
X39750000Y-74725000D02*
X39750000Y-73700000D01*
D48*
X49525000Y-89225000D02*
X49550000Y-89250000D01*
D49*
X55750000Y-100750000D02*
X54425000Y-99425000D01*
D48*
X38675000Y-79275000D02*
X38650000Y-79300000D01*
X56350000Y-95850000D02*
X56400000Y-95800000D01*
D46*
X55675000Y-29425000D02*
X57275000Y-29425000D01*
D48*
X49250000Y-76725000D02*
X50450000Y-76725000D01*
D47*
%TO.N,Net-(C3-Pad1)*%
X67500000Y-107000000D02*
X73775000Y-107000000D01*
X63175000Y-102675000D02*
X67500000Y-107000000D01*
X73775000Y-107000000D02*
X76750000Y-104025000D01*
D48*
%TO.N,Net-(C5-Pad1)*%
X61350000Y-86425000D02*
X61400000Y-86375000D01*
X59112000Y-86425000D02*
X61350000Y-86425000D01*
X61400000Y-86375000D02*
X63050000Y-86375000D01*
X63050000Y-86375000D02*
X63075000Y-86350000D01*
%TO.N,Net-(C5-Pad2)*%
X61070000Y-85155000D02*
X61400000Y-84825000D01*
X59112000Y-85155000D02*
X61070000Y-85155000D01*
X63050000Y-84825000D02*
X63075000Y-84850000D01*
X61400000Y-84825000D02*
X63050000Y-84825000D01*
%TO.N,Net-(C6-Pad1)*%
X60220000Y-87695000D02*
X61125000Y-88600000D01*
X59112000Y-87695000D02*
X60220000Y-87695000D01*
%TO.N,+3.3V*%
X71750000Y-95075000D02*
X71750000Y-96000000D01*
X40200000Y-76725000D02*
X39750000Y-76275000D01*
D46*
X83500000Y-96025000D02*
X83500000Y-88025000D01*
D48*
X71750000Y-64000000D02*
X72200000Y-64000000D01*
X40200000Y-63725000D02*
X39750000Y-63275000D01*
X71750000Y-63075000D02*
X71750000Y-64000000D01*
X71750000Y-96000000D02*
X72750000Y-96000000D01*
X71750000Y-80000000D02*
X71750000Y-80925000D01*
X71750000Y-79075000D02*
X71750000Y-80000000D01*
D47*
X38525000Y-76275000D02*
X38525000Y-77275000D01*
X38525000Y-76275000D02*
X39750000Y-76275000D01*
D48*
X71750000Y-72000000D02*
X71750000Y-72925000D01*
X40100000Y-64375000D02*
X39750000Y-64725000D01*
D47*
X38525000Y-77275000D02*
X38975000Y-77725000D01*
X39275000Y-64250000D02*
X39750000Y-64725000D01*
D48*
X53688000Y-95787000D02*
X53625000Y-95850000D01*
X71750000Y-96000000D02*
X71750000Y-96925000D01*
X71750000Y-71075000D02*
X71750000Y-72000000D01*
X72200000Y-64000000D02*
X72800000Y-64600000D01*
D46*
X83500000Y-80025000D02*
X83500000Y-72050000D01*
D48*
X71750000Y-64000000D02*
X71750000Y-64925000D01*
D46*
X83500000Y-72050000D02*
X83500000Y-64025000D01*
D48*
X71750000Y-88000000D02*
X71750000Y-88925000D01*
D47*
X53625000Y-95850000D02*
X57425000Y-99650000D01*
X38975000Y-77725000D02*
X39750000Y-77725000D01*
D48*
X42250000Y-64375000D02*
X40100000Y-64375000D01*
D47*
X57425000Y-99650000D02*
X58375000Y-100600000D01*
D46*
X83500000Y-88025000D02*
X83500000Y-80025000D01*
D48*
X42250000Y-77375000D02*
X40100000Y-77375000D01*
X71750000Y-72000000D02*
X72750000Y-72000000D01*
X71750000Y-80000000D02*
X72750000Y-80000000D01*
D47*
X37750000Y-63750000D02*
X39275000Y-63750000D01*
X39275000Y-63750000D02*
X39275000Y-64250000D01*
D48*
X42250000Y-76725000D02*
X40200000Y-76725000D01*
D47*
X37750000Y-75500000D02*
X38525000Y-76275000D01*
D48*
X71750000Y-87075000D02*
X71750000Y-88000000D01*
X40100000Y-77375000D02*
X39750000Y-77725000D01*
D47*
X39275000Y-63750000D02*
X39750000Y-63275000D01*
D48*
X42250000Y-63725000D02*
X40200000Y-63725000D01*
D47*
X58375000Y-100600000D02*
X60600000Y-100600000D01*
D48*
X53688000Y-94045000D02*
X53688000Y-95787000D01*
X71750000Y-88000000D02*
X72750000Y-88000000D01*
D51*
%TO.N,+5V*%
X40000000Y-51500000D02*
X42000000Y-51500000D01*
D48*
X59112000Y-95562000D02*
X59400000Y-95850000D01*
X49525000Y-90775000D02*
X49550000Y-90750000D01*
D46*
X53621320Y-50378680D02*
X52500000Y-51500000D01*
X53621320Y-50312500D02*
X53621320Y-50378680D01*
D48*
X57900000Y-95850000D02*
X59400000Y-95850000D01*
X50625000Y-94225000D02*
X50600000Y-94200000D01*
X57900000Y-95350000D02*
X57300000Y-94750000D01*
D51*
X52500000Y-51500000D02*
X42000000Y-51500000D01*
D48*
X51800000Y-94225000D02*
X50625000Y-94225000D01*
X59400000Y-95850000D02*
X61000000Y-95850000D01*
X48662500Y-91037500D02*
X48400000Y-90775000D01*
X48662500Y-92400000D02*
X48662500Y-91037500D01*
X48400000Y-90775000D02*
X49525000Y-90775000D01*
D51*
X32900000Y-54750000D02*
X36150000Y-51500000D01*
X38000000Y-51500000D02*
X40000000Y-51500000D01*
X37000000Y-51500000D02*
X38000000Y-51500000D01*
D48*
X59112000Y-94045000D02*
X59112000Y-95562000D01*
D51*
X35440000Y-54750000D02*
X35440000Y-53060000D01*
D48*
X61000000Y-95850000D02*
X61300000Y-95550000D01*
D51*
X32900000Y-54750000D02*
X35440000Y-54750000D01*
X35440000Y-53060000D02*
X37000000Y-51500000D01*
X36150000Y-51500000D02*
X37000000Y-51500000D01*
D48*
X57900000Y-95850000D02*
X57900000Y-95350000D01*
%TO.N,Net-(C10-Pad1)*%
X46600000Y-90775000D02*
X46600000Y-92337500D01*
X44000000Y-91250000D02*
X44475000Y-90775000D01*
X44000000Y-92150000D02*
X44000000Y-91250000D01*
X46600000Y-92337500D02*
X46537500Y-92400000D01*
X44475000Y-90775000D02*
X46600000Y-90775000D01*
%TO.N,Net-(C10-Pad2)*%
X45237500Y-89087500D02*
X45262500Y-89062500D01*
X45262500Y-88762500D02*
X45412500Y-88912500D01*
X45725000Y-89225000D02*
X46600000Y-89225000D01*
X44000000Y-87850000D02*
X44000000Y-88700000D01*
X45237500Y-89087500D02*
X45125000Y-89200000D01*
X48225000Y-87600000D02*
X46600000Y-89225000D01*
X45000000Y-88500000D02*
X45262500Y-88762500D01*
X48662500Y-87600000D02*
X48225000Y-87600000D01*
X44525000Y-89225000D02*
X45125000Y-89225000D01*
X45125000Y-89200000D02*
X45125000Y-89225000D01*
X45262500Y-89062500D02*
X45262500Y-88762500D01*
X44000000Y-88700000D02*
X44525000Y-89225000D01*
X45125000Y-89225000D02*
X45725000Y-89225000D01*
X45412500Y-88912500D02*
X45237500Y-89087500D01*
X45412500Y-88912500D02*
X45725000Y-89225000D01*
X45000000Y-87850000D02*
X45000000Y-88500000D01*
%TO.N,Net-(C16-Pad1)*%
X40500000Y-70750000D02*
X41975000Y-70750000D01*
X37500000Y-73750000D02*
X40500000Y-70750000D01*
X42250000Y-68925000D02*
X42250000Y-70475000D01*
X42250000Y-70475000D02*
X41975000Y-70750000D01*
X33000000Y-72000000D02*
X34750000Y-73750000D01*
X34750000Y-73750000D02*
X37500000Y-73750000D01*
%TO.N,Net-(C17-Pad1)*%
X42250000Y-83500000D02*
X42250000Y-81925000D01*
X42000000Y-83750000D02*
X36750000Y-83750000D01*
X42000000Y-83750000D02*
X42250000Y-83500000D01*
X36750000Y-83750000D02*
X33000000Y-80000000D01*
D46*
%TO.N,Net-(D1-Pad1)*%
X65075000Y-27950000D02*
X61625000Y-24500000D01*
X65075000Y-28425000D02*
X65075000Y-27950000D01*
X61625000Y-24500000D02*
X54000000Y-24500000D01*
X69475000Y-32825000D02*
X65075000Y-28425000D01*
X51919680Y-26580320D02*
X38621320Y-26580320D01*
X54000000Y-24500000D02*
X51919680Y-26580320D01*
D48*
%TO.N,Net-(IC1-Pad2)*%
X60425000Y-92775000D02*
X61300000Y-93650000D01*
X59112000Y-92775000D02*
X60425000Y-92775000D01*
%TO.N,Net-(IC1-Pad3)*%
X63600000Y-94600000D02*
X64737500Y-95737500D01*
X59112000Y-91505000D02*
X60980000Y-91505000D01*
X61075000Y-91600000D02*
X61100000Y-91600000D01*
X63500000Y-94600000D02*
X63600000Y-94600000D01*
X61100000Y-91600000D02*
X63500000Y-94000000D01*
X63500000Y-94000000D02*
X63500000Y-94600000D01*
X64737500Y-95737500D02*
X64737500Y-96900000D01*
X60980000Y-91505000D02*
X61075000Y-91600000D01*
%TO.N,Net-(IC1-Pad4)*%
X62725000Y-91600000D02*
X62575000Y-91600000D01*
X60940000Y-90235000D02*
X61075000Y-90100000D01*
X62575000Y-91600000D02*
X61075000Y-90100000D01*
X59112000Y-90235000D02*
X60940000Y-90235000D01*
%TO.N,LC_CLK*%
X53688000Y-87695000D02*
X54100500Y-87695000D01*
X57100000Y-84700000D02*
X57100000Y-83450000D01*
X56950000Y-84845500D02*
X56954500Y-84845500D01*
X54100500Y-87695000D02*
X56950000Y-84845500D01*
X56954500Y-84845500D02*
X57100000Y-84700000D01*
%TO.N,LC_DAT*%
X55500000Y-88900000D02*
X53753000Y-88900000D01*
X53753000Y-88900000D02*
X53688000Y-88965000D01*
%TO.N,Net-(IC1-Pad15)*%
X53688000Y-92775000D02*
X52000000Y-92775000D01*
X52000000Y-92775000D02*
X51800000Y-92575000D01*
%TO.N,Net-(JP1-Pad2)*%
X38750000Y-87500000D02*
X40500000Y-87500000D01*
X30500000Y-87975000D02*
X32475000Y-86000000D01*
X32475000Y-86000000D02*
X37250000Y-86000000D01*
X37250000Y-86000000D02*
X38750000Y-87500000D01*
%TO.N,Net-(JP2-Pad2)*%
X30500000Y-96000000D02*
X32500000Y-98000000D01*
X32500000Y-98000000D02*
X36500000Y-98000000D01*
X39000000Y-95500000D02*
X40500000Y-95500000D01*
X36500000Y-98000000D02*
X39000000Y-95500000D01*
D49*
%TO.N,RLY0*%
X53075000Y-101075000D02*
X54385000Y-102385000D01*
X54385000Y-102385000D02*
X54385000Y-104000000D01*
X53000000Y-101075000D02*
X53075000Y-101075000D01*
%TO.N,RLY1*%
X51075000Y-101075000D02*
X51845000Y-101845000D01*
X51000000Y-101075000D02*
X51075000Y-101075000D01*
X51845000Y-101845000D02*
X51845000Y-104000000D01*
%TO.N,RLY2*%
X49000000Y-101075000D02*
X49075000Y-101075000D01*
X49305000Y-101305000D02*
X49305000Y-104000000D01*
X49075000Y-101075000D02*
X49305000Y-101305000D01*
%TO.N,RLY3*%
X47000000Y-101075000D02*
X46925000Y-101075000D01*
X46925000Y-101075000D02*
X46765000Y-101235000D01*
X46765000Y-101235000D02*
X46765000Y-104000000D01*
%TO.N,RLY4*%
X44225000Y-101775000D02*
X44225000Y-104000000D01*
X45000000Y-101075000D02*
X44925000Y-101075000D01*
X44925000Y-101075000D02*
X44225000Y-101775000D01*
%TO.N,RLY5*%
X43000000Y-101075000D02*
X42925000Y-101075000D01*
X41685000Y-102315000D02*
X41685000Y-104000000D01*
X42925000Y-101075000D02*
X41685000Y-102315000D01*
D48*
%TO.N,Net-(LC0-Pad3)*%
X69775000Y-106000000D02*
X68000000Y-106000000D01*
X67000000Y-88275000D02*
X65075000Y-86350000D01*
X68000000Y-106000000D02*
X67000000Y-105000000D01*
X67000000Y-105000000D02*
X67000000Y-88275000D01*
X65075000Y-86350000D02*
X64725000Y-86350000D01*
X71750000Y-104025000D02*
X69775000Y-106000000D01*
%TO.N,Net-(LC0-Pad4)*%
X68000000Y-87500000D02*
X68000000Y-102775000D01*
X64725000Y-84850000D02*
X65350000Y-84850000D01*
X68000000Y-102775000D02*
X69250000Y-104025000D01*
X65350000Y-84850000D02*
X68000000Y-87500000D01*
%TO.N,SCL1*%
X75900000Y-61425000D02*
X78500000Y-64025000D01*
X44375000Y-94975000D02*
X45000000Y-94350000D01*
X71750000Y-61425000D02*
X63412500Y-69762500D01*
X63412500Y-69762500D02*
X46562500Y-69762500D01*
X71750000Y-61425000D02*
X75900000Y-61425000D01*
X46562500Y-69762500D02*
X44750000Y-71575000D01*
X45000000Y-94350000D02*
X45000000Y-92775000D01*
%TO.N,SDA1*%
X43750000Y-72550000D02*
X45433000Y-72550000D01*
X44500000Y-92150000D02*
X44500000Y-93549500D01*
X65388000Y-70612000D02*
X65460000Y-70540000D01*
X65460000Y-70540000D02*
X69425000Y-66575000D01*
X76000000Y-64025000D02*
X73450000Y-66575000D01*
X73450000Y-66575000D02*
X71750000Y-66575000D01*
X69425000Y-66575000D02*
X71750000Y-66575000D01*
X45433000Y-72550000D02*
X47371000Y-70612000D01*
X47371000Y-70612000D02*
X65388000Y-70612000D01*
X44500000Y-93549500D02*
X44249500Y-93800000D01*
%TO.N,SCL3*%
X69225000Y-69425000D02*
X68500000Y-68700000D01*
X71750000Y-69425000D02*
X75875000Y-69425000D01*
X75875000Y-69425000D02*
X78500000Y-72050000D01*
X71750000Y-69425000D02*
X69225000Y-69425000D01*
%TO.N,SDA3*%
X76000000Y-72050000D02*
X73475000Y-74575000D01*
X73475000Y-74575000D02*
X71750000Y-74575000D01*
X45695000Y-74575000D02*
X45680000Y-74560000D01*
X71750000Y-74575000D02*
X45695000Y-74575000D01*
%TO.N,SCL4*%
X71750000Y-77425000D02*
X75900000Y-77425000D01*
X70072183Y-83500000D02*
X66900000Y-83500000D01*
X75900000Y-77425000D02*
X78500000Y-80025000D01*
X58300000Y-75700000D02*
X58300000Y-75600000D01*
X66100000Y-83500000D02*
X58300000Y-75700000D01*
X70072183Y-83500000D02*
X75025000Y-83500000D01*
X75025000Y-83500000D02*
X78500000Y-80025000D01*
X66900000Y-83500000D02*
X66100000Y-83500000D01*
%TO.N,SDA4*%
X71750000Y-82575000D02*
X66575000Y-82575000D01*
X71750000Y-82575000D02*
X73450000Y-82575000D01*
X73450000Y-82575000D02*
X76000000Y-80025000D01*
X60100000Y-76100000D02*
X59700000Y-75700000D01*
X59700000Y-75700000D02*
X59700000Y-75600000D01*
X66575000Y-82575000D02*
X60100000Y-76100000D01*
%TO.N,SCL5*%
X79700000Y-82000000D02*
X78500000Y-83200000D01*
X79700000Y-63302944D02*
X79700000Y-82000000D01*
X71750000Y-85425000D02*
X75900000Y-85425000D01*
X78500000Y-83200000D02*
X78500000Y-88025000D01*
X73500000Y-60300000D02*
X76697056Y-60300000D01*
X76697056Y-60300000D02*
X79700000Y-63302944D01*
X75900000Y-85425000D02*
X78500000Y-88025000D01*
%TO.N,SDA5*%
X81107057Y-53000000D02*
X82360000Y-54252943D01*
X71750000Y-90575000D02*
X73450000Y-90575000D01*
X78847056Y-89500000D02*
X77475000Y-89500000D01*
X73450000Y-90575000D02*
X76000000Y-88025000D01*
X82360000Y-54252943D02*
X82360000Y-62640000D01*
X77475000Y-89500000D02*
X76000000Y-88025000D01*
X72750000Y-53000000D02*
X81107057Y-53000000D01*
X82200000Y-81300000D02*
X79700000Y-83800000D01*
X79700000Y-83800000D02*
X79700000Y-88647056D01*
X79700000Y-88647056D02*
X78847056Y-89500000D01*
X82200000Y-62800000D02*
X82200000Y-81300000D01*
X71000000Y-54750000D02*
X72750000Y-53000000D01*
X82360000Y-62640000D02*
X82200000Y-62800000D01*
%TO.N,SCL6*%
X50673000Y-71882000D02*
X68802000Y-71882000D01*
X75900000Y-93425000D02*
X78500000Y-96025000D01*
X71750000Y-93425000D02*
X75900000Y-93425000D01*
X68802000Y-71882000D02*
X68820000Y-71900000D01*
%TO.N,SDA6*%
X50673000Y-73533000D02*
X69323000Y-73533000D01*
X73450000Y-98575000D02*
X76000000Y-96025000D01*
X69323000Y-73527000D02*
X69850000Y-73000000D01*
X71750000Y-98575000D02*
X73450000Y-98575000D01*
X69323000Y-73533000D02*
X69323000Y-73527000D01*
%TO.N,TX*%
X33000000Y-63975000D02*
X33125000Y-63975000D01*
X33125000Y-63975000D02*
X36675000Y-60425000D01*
X36675000Y-56897943D02*
X37622943Y-55950000D01*
X36675000Y-60425000D02*
X36675000Y-56897943D01*
X37622943Y-55950000D02*
X39320000Y-55950000D01*
X39320000Y-55950000D02*
X40520000Y-54750000D01*
%TO.N,RX*%
X39180000Y-56895000D02*
X40125000Y-55950000D01*
X35500000Y-62425000D02*
X39180000Y-58745000D01*
X35500000Y-63975000D02*
X35500000Y-62425000D01*
X39180000Y-58745000D02*
X39180000Y-56895000D01*
X40125000Y-55950000D02*
X41860000Y-55950000D01*
X41860000Y-55950000D02*
X43060000Y-54750000D01*
%TO.N,Net-(RTD0-Pad1)*%
X41278249Y-68275000D02*
X42250000Y-68275000D01*
X40575000Y-69752817D02*
X40575000Y-68978249D01*
X40575000Y-68978249D02*
X41278249Y-68275000D01*
X35500000Y-72000000D02*
X38327817Y-72000000D01*
X38327817Y-72000000D02*
X40575000Y-69752817D01*
X42250000Y-68275000D02*
X42250000Y-67625000D01*
%TO.N,Net-(RTD1-Pad1)*%
X42250000Y-81275000D02*
X42250000Y-80625000D01*
X42250000Y-81275000D02*
X41225000Y-81275000D01*
X40950000Y-81550000D02*
X40950000Y-82800000D01*
X40500000Y-83250000D02*
X38750000Y-83250000D01*
X38750000Y-83250000D02*
X35500000Y-80000000D01*
X41225000Y-81275000D02*
X40950000Y-81550000D01*
X40950000Y-82800000D02*
X40500000Y-83250000D01*
%TO.N,Net-(JP1-Pad1)*%
X42950000Y-86200000D02*
X43500000Y-86750000D01*
X43500000Y-86750000D02*
X43500000Y-87850000D01*
X40500000Y-86200000D02*
X42950000Y-86200000D01*
%TO.N,Net-(JP1-Pad3)*%
X42700000Y-88800000D02*
X43000000Y-88500000D01*
X40500000Y-88800000D02*
X42700000Y-88800000D01*
X43000000Y-88500000D02*
X43000000Y-87850000D01*
%TO.N,Net-(JP2-Pad1)*%
X43000000Y-93000000D02*
X43000000Y-92150000D01*
X41800000Y-94200000D02*
X43000000Y-93000000D01*
X40500000Y-94200000D02*
X41800000Y-94200000D01*
%TO.N,Net-(JP2-Pad3)*%
X40500000Y-96800000D02*
X41150000Y-96800000D01*
X41150000Y-96800000D02*
X43500000Y-94450000D01*
X43500000Y-94450000D02*
X43500000Y-92150000D01*
%TO.N,CS1*%
X51725000Y-78675000D02*
X52500000Y-77900000D01*
X49250000Y-78675000D02*
X51725000Y-78675000D01*
%TO.N,MISO*%
X51975000Y-65025000D02*
X49250000Y-65025000D01*
X67200000Y-56852943D02*
X68052943Y-56000000D01*
X68052943Y-56000000D02*
X74790000Y-56000000D01*
X50575000Y-78025000D02*
X51300000Y-77300000D01*
X74790000Y-56000000D02*
X76080000Y-57290000D01*
X51800000Y-64850000D02*
X51975000Y-65025000D01*
X51300000Y-77300000D02*
X51700000Y-76900000D01*
X49250000Y-78025000D02*
X50575000Y-78025000D01*
X51800000Y-61100000D02*
X51800000Y-64850000D01*
X67200000Y-60100000D02*
X67200000Y-56852943D01*
X51975000Y-65025000D02*
X62275000Y-65025000D01*
X62275000Y-65025000D02*
X67200000Y-60100000D01*
%TO.N,CS0*%
X69400000Y-58900000D02*
X62625000Y-65675000D01*
X77280000Y-55950000D02*
X77280000Y-57787057D01*
X77280000Y-57787057D02*
X76167057Y-58900000D01*
X76167057Y-58900000D02*
X69400000Y-58900000D01*
X62625000Y-65675000D02*
X49250000Y-65675000D01*
X76080000Y-54750000D02*
X77280000Y-55950000D01*
%TO.N,MOSI*%
X64175000Y-66975000D02*
X64350000Y-66975000D01*
X47325000Y-79975000D02*
X47300000Y-80000000D01*
X49250000Y-79975000D02*
X47325000Y-79975000D01*
X64350000Y-66975000D02*
X64700000Y-67325000D01*
X47300000Y-67945000D02*
X48270000Y-66975000D01*
X48270000Y-66975000D02*
X49250000Y-66975000D01*
X64175000Y-66975000D02*
X49250000Y-66975000D01*
%TO.N,SCLK*%
X78750000Y-59450000D02*
X79900000Y-58300000D01*
X49250000Y-66325000D02*
X62775000Y-66325000D01*
X62775000Y-66325000D02*
X69650000Y-59450000D01*
X47402000Y-66325000D02*
X47371000Y-66294000D01*
X49250000Y-79325000D02*
X51225000Y-79325000D01*
X79900000Y-58300000D02*
X79900000Y-56010000D01*
X79900000Y-56010000D02*
X81160000Y-54750000D01*
X49250000Y-66325000D02*
X47402000Y-66325000D01*
X51225000Y-79325000D02*
X51700000Y-79800000D01*
X69650000Y-59450000D02*
X78750000Y-59450000D01*
%TO.N,Net-(R15-Pad1)*%
X39750000Y-67675000D02*
X39825000Y-67675000D01*
X41278249Y-65675000D02*
X42250000Y-65675000D01*
X40950000Y-66550000D02*
X40950000Y-66003249D01*
X40950000Y-66003249D02*
X41278249Y-65675000D01*
X39825000Y-67675000D02*
X40950000Y-66550000D01*
X42250000Y-65025000D02*
X42250000Y-65675000D01*
%TO.N,Net-(R15-Pad2)*%
X42250000Y-66325000D02*
X42250000Y-66975000D01*
X39750000Y-69325000D02*
X39750000Y-69000000D01*
X40575000Y-67632106D02*
X41232106Y-66975000D01*
X39750000Y-69000000D02*
X40575000Y-68175000D01*
X40575000Y-68175000D02*
X40575000Y-67632106D01*
X41232106Y-66975000D02*
X42250000Y-66975000D01*
%TO.N,Net-(R16-Pad1)*%
X40950000Y-79003249D02*
X41278249Y-78675000D01*
X39750000Y-80675000D02*
X40950000Y-79475000D01*
X40950000Y-79475000D02*
X40950000Y-79003249D01*
X41278249Y-78675000D02*
X42250000Y-78675000D01*
X42250000Y-78675000D02*
X42250000Y-78025000D01*
%TO.N,Net-(R16-Pad2)*%
X39750000Y-82325000D02*
X39750000Y-82000000D01*
X42250000Y-79975000D02*
X42250000Y-79325000D01*
X39750000Y-82000000D02*
X40750000Y-81000000D01*
X40750000Y-80382106D02*
X41157106Y-79975000D01*
X40750000Y-81000000D02*
X40750000Y-80382106D01*
X41157106Y-79975000D02*
X42250000Y-79975000D01*
%TO.N,Net-(C16-Pad2)*%
X30500000Y-72000000D02*
X33000000Y-74500000D01*
X45350000Y-68925000D02*
X49250000Y-68925000D01*
X43525000Y-70750000D02*
X45350000Y-68925000D01*
X49250000Y-68925000D02*
X49250000Y-68275000D01*
X33000000Y-74500000D02*
X37750000Y-74500000D01*
X37750000Y-74500000D02*
X39750000Y-72500000D01*
X41775000Y-72500000D02*
X43525000Y-70750000D01*
X39750000Y-72500000D02*
X41775000Y-72500000D01*
%TO.N,Net-(C17-Pad2)*%
X35500000Y-85000000D02*
X30500000Y-80000000D01*
X49250000Y-81275000D02*
X49250000Y-81925000D01*
X45375000Y-81925000D02*
X49250000Y-81925000D01*
X43550000Y-83750000D02*
X45375000Y-81925000D01*
X42300000Y-85000000D02*
X43550000Y-83750000D01*
X42300000Y-85000000D02*
X35500000Y-85000000D01*
D45*
%TO.N,Net-(D2-Pad2)*%
X53962500Y-33900000D02*
X53962500Y-35687500D01*
X53962500Y-35687500D02*
X54075000Y-35800000D01*
D46*
%TO.N,Net-(C2-Pad1)*%
X38621320Y-47662320D02*
X53096140Y-47662320D01*
X62750000Y-31750000D02*
X59250000Y-35250000D01*
D45*
X55725000Y-35800000D02*
X58700000Y-35800000D01*
D46*
X64750000Y-31750000D02*
X62750000Y-31750000D01*
X66025000Y-33025000D02*
X64750000Y-31750000D01*
X59250000Y-42250000D02*
X57000000Y-44500000D01*
X53096140Y-47662320D02*
X53621320Y-48187500D01*
D45*
X58700000Y-35800000D02*
X59250000Y-35250000D01*
D46*
X57000000Y-44500000D02*
X56500000Y-44500000D01*
X53621320Y-47378680D02*
X56500000Y-44500000D01*
X53621320Y-48187500D02*
X53621320Y-47378680D01*
X59250000Y-35250000D02*
X59250000Y-42250000D01*
%TD*%
%TA.AperFunction,Conductor*%
%TO.N,+5V*%
G36*
X54709191Y-49518907D02*
G01*
X54745155Y-49568407D01*
X54750000Y-49599000D01*
X54750000Y-52651000D01*
X54731093Y-52709191D01*
X54681593Y-52745155D01*
X54651000Y-52750000D01*
X52349000Y-52750000D01*
X52290809Y-52731093D01*
X52254845Y-52681593D01*
X52250000Y-52651000D01*
X52250000Y-49599000D01*
X52268907Y-49540809D01*
X52318407Y-49504845D01*
X52349000Y-49500000D01*
X54651000Y-49500000D01*
X54709191Y-49518907D01*
G37*
%TD.AperFunction*%
%TD*%
%TA.AperFunction,Conductor*%
%TO.N,Net-(C2-Pad1)*%
G36*
X59942121Y-42420002D02*
G01*
X59988614Y-42473658D01*
X60000000Y-42526000D01*
X60000000Y-48874000D01*
X59979998Y-48942121D01*
X59926342Y-48988614D01*
X59874000Y-49000000D01*
X51500000Y-49000000D01*
X51489496Y-49008403D01*
X51284514Y-49172389D01*
X51218825Y-49199325D01*
X51205802Y-49200000D01*
X28726000Y-49200000D01*
X28657879Y-49179998D01*
X28611386Y-49126342D01*
X28600000Y-49074000D01*
X28600000Y-42526000D01*
X28620002Y-42457879D01*
X28673658Y-42411386D01*
X28726000Y-42400000D01*
X59874000Y-42400000D01*
X59942121Y-42420002D01*
G37*
%TD.AperFunction*%
%TD*%
%TA.AperFunction,Conductor*%
%TO.N,Net-(D1-Pad1)*%
G36*
X69942121Y-22941822D02*
G01*
X69988614Y-22995478D01*
X70000000Y-23047820D01*
X70000000Y-33124000D01*
X69979998Y-33192121D01*
X69926342Y-33238614D01*
X69874000Y-33250000D01*
X68552190Y-33250000D01*
X68484069Y-33229998D01*
X68463095Y-33213095D01*
X66000000Y-30750000D01*
X65091477Y-30750000D01*
X65053379Y-30744102D01*
X65008917Y-30729998D01*
X64969468Y-30717484D01*
X64963954Y-30716866D01*
X64958644Y-30715242D01*
X64862173Y-30705442D01*
X64861038Y-30705321D01*
X64830366Y-30701881D01*
X64812634Y-30699892D01*
X64812628Y-30699892D01*
X64809136Y-30699500D01*
X64805610Y-30699500D01*
X64804141Y-30699418D01*
X64798455Y-30698971D01*
X64773916Y-30696478D01*
X64759811Y-30695045D01*
X64759808Y-30695045D01*
X64753685Y-30694423D01*
X64709846Y-30698567D01*
X64705890Y-30698941D01*
X64694032Y-30699500D01*
X62814132Y-30699500D01*
X62800524Y-30698763D01*
X62767178Y-30695140D01*
X62767174Y-30695140D01*
X62761053Y-30694475D01*
X62743168Y-30696040D01*
X62709028Y-30699026D01*
X62704204Y-30699355D01*
X62701241Y-30699500D01*
X62698159Y-30699500D01*
X62691152Y-30700187D01*
X62653608Y-30703868D01*
X62652295Y-30703990D01*
X62605414Y-30708092D01*
X62555824Y-30712430D01*
X62550495Y-30713978D01*
X62544970Y-30714520D01*
X62528976Y-30719349D01*
X62452273Y-30742507D01*
X62451055Y-30742868D01*
X62443729Y-30744997D01*
X62408576Y-30750000D01*
X60026000Y-30750000D01*
X59957879Y-30729998D01*
X59911386Y-30676342D01*
X59900000Y-30624000D01*
X59900000Y-30451234D01*
X59920002Y-30383113D01*
X59925174Y-30375669D01*
X59963142Y-30325009D01*
X59963144Y-30325005D01*
X59968526Y-30317824D01*
X60018851Y-30183580D01*
X60025500Y-30122377D01*
X60025499Y-26727624D01*
X60025130Y-26724224D01*
X60019705Y-26674278D01*
X60019704Y-26674274D01*
X60018851Y-26666420D01*
X59968526Y-26532176D01*
X59963146Y-26524997D01*
X59963144Y-26524994D01*
X59887928Y-26424635D01*
X59882546Y-26417454D01*
X59875365Y-26412072D01*
X59775006Y-26336856D01*
X59775003Y-26336854D01*
X59767824Y-26331474D01*
X59678439Y-26297966D01*
X59640975Y-26283921D01*
X59640973Y-26283921D01*
X59633580Y-26281149D01*
X59625730Y-26280296D01*
X59625729Y-26280296D01*
X59575774Y-26274869D01*
X59575773Y-26274869D01*
X59572377Y-26274500D01*
X58275190Y-26274500D01*
X56977624Y-26274501D01*
X56974230Y-26274870D01*
X56974224Y-26274870D01*
X56924278Y-26280295D01*
X56924274Y-26280296D01*
X56916420Y-26281149D01*
X56782176Y-26331474D01*
X56774997Y-26336854D01*
X56774994Y-26336856D01*
X56758356Y-26349326D01*
X56691849Y-26374174D01*
X56682791Y-26374500D01*
X55737089Y-26374500D01*
X55723919Y-26373810D01*
X55688498Y-26370087D01*
X55688496Y-26370087D01*
X55682369Y-26369443D01*
X55630054Y-26374204D01*
X55625817Y-26374500D01*
X55623159Y-26374500D01*
X55576456Y-26379079D01*
X55575581Y-26379161D01*
X55483344Y-26387555D01*
X55483343Y-26387555D01*
X55477203Y-26388114D01*
X55473653Y-26389159D01*
X55469970Y-26389520D01*
X55464075Y-26391300D01*
X55464069Y-26391301D01*
X55375388Y-26418076D01*
X55374545Y-26418328D01*
X55285479Y-26444541D01*
X55285475Y-26444543D01*
X55279572Y-26446280D01*
X55276290Y-26447996D01*
X55272749Y-26449065D01*
X55185361Y-26495530D01*
X55184713Y-26495871D01*
X55102460Y-26538872D01*
X55102455Y-26538875D01*
X55097002Y-26541726D01*
X55094121Y-26544042D01*
X55090849Y-26545782D01*
X55086071Y-26549679D01*
X55014150Y-26608336D01*
X55013466Y-26608890D01*
X54941246Y-26666956D01*
X54941243Y-26666959D01*
X54936447Y-26670815D01*
X54934069Y-26673649D01*
X54931200Y-26675989D01*
X54927278Y-26680730D01*
X54868045Y-26752330D01*
X54867631Y-26752827D01*
X54804024Y-26828630D01*
X54802241Y-26831874D01*
X54799882Y-26834725D01*
X54796954Y-26840141D01*
X54752813Y-26921777D01*
X54752477Y-26922394D01*
X54704776Y-27009162D01*
X54703657Y-27012690D01*
X54701897Y-27015945D01*
X54700075Y-27021832D01*
X54672656Y-27110407D01*
X54672400Y-27111223D01*
X54642484Y-27205532D01*
X54642071Y-27209211D01*
X54640977Y-27212746D01*
X54640334Y-27218864D01*
X54640333Y-27218869D01*
X54630642Y-27311082D01*
X54630554Y-27311892D01*
X54619520Y-27410262D01*
X54619830Y-27413951D01*
X54619443Y-27417631D01*
X54620002Y-27423771D01*
X54619958Y-27429942D01*
X54617483Y-27429924D01*
X54605841Y-27488903D01*
X54592498Y-27509376D01*
X54411316Y-27735854D01*
X54411315Y-27735856D01*
X54400000Y-27750000D01*
X54400000Y-30874000D01*
X54379998Y-30942121D01*
X54326342Y-30988614D01*
X54274000Y-31000000D01*
X28776000Y-31000000D01*
X28707879Y-30979998D01*
X28661386Y-30926342D01*
X28650000Y-30874000D01*
X28650000Y-23047820D01*
X28670002Y-22979699D01*
X28723658Y-22933206D01*
X28776000Y-22921820D01*
X69874000Y-22921820D01*
X69942121Y-22941822D01*
G37*
%TD.AperFunction*%
%TD*%
%TA.AperFunction,Conductor*%
%TO.N,+24V*%
G36*
X86484563Y-22923734D02*
G01*
X86500000Y-22926456D01*
X86510855Y-22924542D01*
X86521294Y-22924542D01*
X86534509Y-22923758D01*
X86795186Y-22938397D01*
X86809218Y-22939978D01*
X86951470Y-22964148D01*
X87093717Y-22988317D01*
X87107492Y-22991461D01*
X87192906Y-23016068D01*
X87384795Y-23071351D01*
X87398115Y-23076012D01*
X87664732Y-23186449D01*
X87677455Y-23192576D01*
X87868742Y-23298297D01*
X87930025Y-23332167D01*
X87941978Y-23339677D01*
X88177345Y-23506680D01*
X88188376Y-23515478D01*
X88403555Y-23707776D01*
X88413546Y-23717767D01*
X88605828Y-23932932D01*
X88614638Y-23943979D01*
X88781628Y-24179332D01*
X88789145Y-24191296D01*
X88928728Y-24443854D01*
X88934859Y-24456585D01*
X89045290Y-24723194D01*
X89049957Y-24736530D01*
X89129844Y-25013826D01*
X89132986Y-25027594D01*
X89181323Y-25312094D01*
X89182905Y-25326135D01*
X89197547Y-25586891D01*
X89196778Y-25599856D01*
X89196778Y-25610463D01*
X89194864Y-25621318D01*
X89196778Y-25632172D01*
X89197586Y-25636755D01*
X89199500Y-25658634D01*
X89199500Y-42374000D01*
X89179498Y-42442121D01*
X89125842Y-42488614D01*
X89073500Y-42500000D01*
X77802190Y-42500000D01*
X77734069Y-42479998D01*
X77713095Y-42463095D01*
X74500000Y-39250000D01*
X70626000Y-39250000D01*
X70557879Y-39229998D01*
X70511386Y-39176342D01*
X70500000Y-39124000D01*
X70500000Y-36087667D01*
X70504830Y-36056464D01*
X70504372Y-36056367D01*
X70505653Y-36050340D01*
X70507516Y-36044468D01*
X70509136Y-36030030D01*
X70525107Y-35887636D01*
X70525500Y-35884136D01*
X70525500Y-32889135D01*
X70526237Y-32875528D01*
X70529860Y-32842180D01*
X70529860Y-32842175D01*
X70530525Y-32836054D01*
X70525971Y-32784003D01*
X70525644Y-32779192D01*
X70525500Y-32776243D01*
X70525500Y-32773159D01*
X70521128Y-32728572D01*
X70521015Y-32727349D01*
X70513108Y-32636966D01*
X70512571Y-32630824D01*
X70511021Y-32625490D01*
X70510480Y-32619970D01*
X70505378Y-32603071D01*
X70500000Y-32566654D01*
X70500000Y-28299961D01*
X81220820Y-28299961D01*
X81235239Y-28456880D01*
X81292634Y-28660389D01*
X81295187Y-28665567D01*
X81295189Y-28665571D01*
X81306489Y-28688484D01*
X81386155Y-28850030D01*
X81512669Y-29019453D01*
X81667939Y-29162983D01*
X81846766Y-29275815D01*
X82043160Y-29354168D01*
X82048817Y-29355293D01*
X82048823Y-29355295D01*
X82244878Y-29394292D01*
X82244880Y-29394292D01*
X82250545Y-29395419D01*
X82256320Y-29395495D01*
X82256324Y-29395495D01*
X82362344Y-29396883D01*
X82461974Y-29398187D01*
X82477641Y-29395495D01*
X82664670Y-29363358D01*
X82664671Y-29363358D01*
X82670367Y-29362379D01*
X82868745Y-29289193D01*
X82887636Y-29277954D01*
X83045499Y-29184036D01*
X83045500Y-29184035D01*
X83050464Y-29181082D01*
X83209439Y-29041665D01*
X83340344Y-28875612D01*
X83351369Y-28854658D01*
X83436105Y-28693600D01*
X83438797Y-28688484D01*
X83501500Y-28486547D01*
X83521820Y-28314865D01*
X83521820Y-27892679D01*
X83507401Y-27735760D01*
X83450006Y-27532251D01*
X83438873Y-27509674D01*
X83359039Y-27347789D01*
X83356485Y-27342610D01*
X83229971Y-27173187D01*
X83074701Y-27029657D01*
X82895874Y-26916825D01*
X82699480Y-26838472D01*
X82693823Y-26837347D01*
X82693817Y-26837345D01*
X82497762Y-26798348D01*
X82497760Y-26798348D01*
X82492095Y-26797221D01*
X82486320Y-26797145D01*
X82486316Y-26797145D01*
X82380296Y-26795757D01*
X82280666Y-26794453D01*
X82274969Y-26795432D01*
X82274968Y-26795432D01*
X82077970Y-26829282D01*
X82077969Y-26829282D01*
X82072273Y-26830261D01*
X81873895Y-26903447D01*
X81868934Y-26906399D01*
X81868933Y-26906399D01*
X81851409Y-26916825D01*
X81692176Y-27011558D01*
X81533201Y-27150975D01*
X81402296Y-27317028D01*
X81399607Y-27322139D01*
X81399605Y-27322142D01*
X81364529Y-27388811D01*
X81303843Y-27504156D01*
X81241140Y-27706093D01*
X81220820Y-27877775D01*
X81220820Y-28299961D01*
X70500000Y-28299961D01*
X70500000Y-23047820D01*
X70520002Y-22979699D01*
X70573658Y-22933206D01*
X70626000Y-22921820D01*
X86462683Y-22921820D01*
X86484563Y-22923734D01*
G37*
%TD.AperFunction*%
%TD*%
M02*
