%TF.GenerationSoftware,KiCad,Pcbnew,(6.0.9-0)*%
%TF.CreationDate,2023-01-29T21:41:41+00:00*%
%TF.ProjectId,FiringPi,46697269-6e67-4506-992e-6b696361645f,rev?*%
%TF.SameCoordinates,Original*%
%TF.FileFunction,Copper,L4,Bot*%
%TF.FilePolarity,Positive*%
%FSLAX46Y46*%
G04 Gerber Fmt 4.6, Leading zero omitted, Abs format (unit mm)*
G04 Created by KiCad (PCBNEW (6.0.9-0)) date 2023-01-29 21:41:41*
%MOMM*%
%LPD*%
G01*
G04 APERTURE LIST*
G04 Aperture macros list*
%AMRoundRect*
0 Rectangle with rounded corners*
0 $1 Rounding radius*
0 $2 $3 $4 $5 $6 $7 $8 $9 X,Y pos of 4 corners*
0 Add a 4 corners polygon primitive as box body*
4,1,4,$2,$3,$4,$5,$6,$7,$8,$9,$2,$3,0*
0 Add four circle primitives for the rounded corners*
1,1,$1+$1,$2,$3*
1,1,$1+$1,$4,$5*
1,1,$1+$1,$6,$7*
1,1,$1+$1,$8,$9*
0 Add four rect primitives between the rounded corners*
20,1,$1+$1,$2,$3,$4,$5,0*
20,1,$1+$1,$4,$5,$6,$7,0*
20,1,$1+$1,$6,$7,$8,$9,0*
20,1,$1+$1,$8,$9,$2,$3,0*%
G04 Aperture macros list end*
%TA.AperFunction,ComponentPad*%
%ADD10R,2.400000X2.400000*%
%TD*%
%TA.AperFunction,ComponentPad*%
%ADD11C,2.400000*%
%TD*%
%TA.AperFunction,ComponentPad*%
%ADD12RoundRect,0.250000X0.600000X0.725000X-0.600000X0.725000X-0.600000X-0.725000X0.600000X-0.725000X0*%
%TD*%
%TA.AperFunction,ComponentPad*%
%ADD13O,1.700000X1.950000*%
%TD*%
%TA.AperFunction,ComponentPad*%
%ADD14RoundRect,0.250000X-0.600000X-0.750000X0.600000X-0.750000X0.600000X0.750000X-0.600000X0.750000X0*%
%TD*%
%TA.AperFunction,ComponentPad*%
%ADD15O,1.700000X2.000000*%
%TD*%
%TA.AperFunction,ComponentPad*%
%ADD16R,1.700000X1.700000*%
%TD*%
%TA.AperFunction,ComponentPad*%
%ADD17O,1.700000X1.700000*%
%TD*%
%TA.AperFunction,ComponentPad*%
%ADD18C,1.600000*%
%TD*%
%TA.AperFunction,ComponentPad*%
%ADD19R,1.600000X1.600000*%
%TD*%
%TA.AperFunction,ViaPad*%
%ADD20C,0.700000*%
%TD*%
%TA.AperFunction,ViaPad*%
%ADD21C,1.500000*%
%TD*%
%TA.AperFunction,Conductor*%
%ADD22C,0.300000*%
%TD*%
%TA.AperFunction,Conductor*%
%ADD23C,0.500000*%
%TD*%
G04 APERTURE END LIST*
D10*
%TO.P,C1,1*%
%TO.N,+24V*%
X81500000Y-40176041D03*
D11*
%TO.P,C1,2*%
%TO.N,GND*%
X81500000Y-45176041D03*
%TD*%
D12*
%TO.P,J12,1,Pin_1*%
%TO.N,RX*%
X35500000Y-63975000D03*
D13*
%TO.P,J12,2,Pin_2*%
%TO.N,TX*%
X33000000Y-63975000D03*
%TO.P,J12,3,Pin_3*%
%TO.N,GND*%
X30500000Y-63975000D03*
%TD*%
D12*
%TO.P,PT0,1,Pin_1*%
%TO.N,+3.3V*%
X83500000Y-64025000D03*
D13*
%TO.P,PT0,2,Pin_2*%
%TO.N,GND*%
X81000000Y-64025000D03*
%TO.P,PT0,3,Pin_3*%
%TO.N,SCL1*%
X78500000Y-64025000D03*
%TO.P,PT0,4,Pin_4*%
%TO.N,SDA1*%
X76000000Y-64025000D03*
%TD*%
D12*
%TO.P,PT6,1,Pin_1*%
%TO.N,+5V*%
X35500000Y-96000000D03*
D13*
%TO.P,PT6,2,Pin_2*%
%TO.N,GND*%
X33000000Y-96000000D03*
%TO.P,PT6,3,Pin_3*%
%TO.N,Net-(JP2-Pad2)*%
X30500000Y-96000000D03*
%TD*%
D12*
%TO.P,PT2,1,Pin_1*%
%TO.N,+3.3V*%
X83500000Y-80025000D03*
D13*
%TO.P,PT2,2,Pin_2*%
%TO.N,GND*%
X81000000Y-80025000D03*
%TO.P,PT2,3,Pin_3*%
%TO.N,SCL4*%
X78500000Y-80025000D03*
%TO.P,PT2,4,Pin_4*%
%TO.N,SDA4*%
X76000000Y-80025000D03*
%TD*%
D12*
%TO.P,LC0,1,Pin_1*%
%TO.N,Net-(C3-Pad1)*%
X76750000Y-104025000D03*
D13*
%TO.P,LC0,2,Pin_2*%
%TO.N,GND*%
X74250000Y-104025000D03*
%TO.P,LC0,3,Pin_3*%
%TO.N,Net-(LC0-Pad3)*%
X71750000Y-104025000D03*
%TO.P,LC0,4,Pin_4*%
%TO.N,Net-(LC0-Pad4)*%
X69250000Y-104025000D03*
%TD*%
D14*
%TO.P,24V1,1,Pin_1*%
%TO.N,+24V*%
X79871320Y-28096320D03*
D15*
%TO.P,24V1,2,Pin_2*%
%TO.N,GND*%
X82371320Y-28096320D03*
%TD*%
D12*
%TO.P,RTD0,1,Pin_1*%
%TO.N,Net-(RTD0-Pad1)*%
X35500000Y-72000000D03*
D13*
%TO.P,RTD0,2,Pin_2*%
%TO.N,Net-(C16-Pad1)*%
X33000000Y-72000000D03*
%TO.P,RTD0,3,Pin_3*%
%TO.N,Net-(C16-Pad2)*%
X30500000Y-72000000D03*
%TD*%
D12*
%TO.P,RTD1,1,Pin_1*%
%TO.N,Net-(RTD1-Pad1)*%
X35500000Y-80000000D03*
D13*
%TO.P,RTD1,2,Pin_2*%
%TO.N,Net-(C17-Pad1)*%
X33000000Y-80000000D03*
%TO.P,RTD1,3,Pin_3*%
%TO.N,Net-(C17-Pad2)*%
X30500000Y-80000000D03*
%TD*%
D12*
%TO.P,PT5,1,Pin_1*%
%TO.N,+5V*%
X35500000Y-87975000D03*
D13*
%TO.P,PT5,2,Pin_2*%
%TO.N,GND*%
X33000000Y-87975000D03*
%TO.P,PT5,3,Pin_3*%
%TO.N,Net-(JP1-Pad2)*%
X30500000Y-87975000D03*
%TD*%
D16*
%TO.P,RELAY1,1,Pin_1*%
%TO.N,GND*%
X56925000Y-104000000D03*
D17*
%TO.P,RELAY1,2,Pin_2*%
%TO.N,RLY0*%
X54385000Y-104000000D03*
%TO.P,RELAY1,3,Pin_3*%
%TO.N,RLY1*%
X51845000Y-104000000D03*
%TO.P,RELAY1,4,Pin_4*%
%TO.N,RLY2*%
X49305000Y-104000000D03*
%TO.P,RELAY1,5,Pin_5*%
%TO.N,RLY3*%
X46765000Y-104000000D03*
%TO.P,RELAY1,6,Pin_6*%
%TO.N,RLY4*%
X44225000Y-104000000D03*
%TO.P,RELAY1,7,Pin_7*%
%TO.N,RLY5*%
X41685000Y-104000000D03*
%TO.P,RELAY1,8,Pin_8*%
%TO.N,unconnected-(RELAY1-Pad8)*%
X39145000Y-104000000D03*
%TO.P,RELAY1,9,Pin_9*%
%TO.N,unconnected-(RELAY1-Pad9)*%
X36605000Y-104000000D03*
%TO.P,RELAY1,10,Pin_10*%
%TO.N,+5V*%
X34065000Y-104000000D03*
%TD*%
D12*
%TO.P,PT3,1,Pin_1*%
%TO.N,+3.3V*%
X83500000Y-88025000D03*
D13*
%TO.P,PT3,2,Pin_2*%
%TO.N,GND*%
X81000000Y-88025000D03*
%TO.P,PT3,3,Pin_3*%
%TO.N,SCL5*%
X78500000Y-88025000D03*
%TO.P,PT3,4,Pin_4*%
%TO.N,SDA5*%
X76000000Y-88025000D03*
%TD*%
D12*
%TO.P,PT1,1,Pin_1*%
%TO.N,+3.3V*%
X83500000Y-72050000D03*
D13*
%TO.P,PT1,2,Pin_2*%
%TO.N,GND*%
X81000000Y-72050000D03*
%TO.P,PT1,3,Pin_3*%
%TO.N,SCL3*%
X78500000Y-72050000D03*
%TO.P,PT1,4,Pin_4*%
%TO.N,SDA3*%
X76000000Y-72050000D03*
%TD*%
%TO.P,PT4,4,Pin_4*%
%TO.N,SDA6*%
X76000000Y-96025000D03*
%TO.P,PT4,3,Pin_3*%
%TO.N,SCL6*%
X78500000Y-96025000D03*
%TO.P,PT4,2,Pin_2*%
%TO.N,GND*%
X81000000Y-96025000D03*
D12*
%TO.P,PT4,1,Pin_1*%
%TO.N,+3.3V*%
X83500000Y-96025000D03*
%TD*%
D18*
%TO.P,C2,2*%
%TO.N,GND*%
X56500000Y-41000000D03*
D19*
%TO.P,C2,1*%
%TO.N,Net-(C2-Pad1)*%
X56500000Y-44500000D03*
%TD*%
D16*
%TO.P,P1,1,Pin_1*%
%TO.N,+3.3V*%
X32900000Y-57290000D03*
D17*
%TO.P,P1,2,Pin_2*%
%TO.N,+5V*%
X32900000Y-54750000D03*
%TO.P,P1,3,Pin_3*%
%TO.N,SDA1*%
X35440000Y-57290000D03*
%TO.P,P1,4,Pin_4*%
%TO.N,+5V*%
X35440000Y-54750000D03*
%TO.P,P1,5,Pin_5*%
%TO.N,SCL1*%
X37980000Y-57290000D03*
%TO.P,P1,6,Pin_6*%
%TO.N,GND*%
X37980000Y-54750000D03*
%TO.P,P1,7,Pin_7*%
%TO.N,SDA3*%
X40520000Y-57290000D03*
%TO.P,P1,8,Pin_8*%
%TO.N,TX*%
X40520000Y-54750000D03*
%TO.P,P1,9,Pin_9*%
%TO.N,GND*%
X43060000Y-57290000D03*
%TO.P,P1,10,Pin_10*%
%TO.N,RX*%
X43060000Y-54750000D03*
%TO.P,P1,11,Pin_11*%
%TO.N,RLY5*%
X45600000Y-57290000D03*
%TO.P,P1,12,Pin_12*%
%TO.N,unconnected-(P1-Pad12)*%
X45600000Y-54750000D03*
%TO.P,P1,13,Pin_13*%
%TO.N,RLY4*%
X48140000Y-57290000D03*
%TO.P,P1,14,Pin_14*%
%TO.N,GND*%
X48140000Y-54750000D03*
%TO.P,P1,15,Pin_15*%
%TO.N,SDA6*%
X50680000Y-57290000D03*
%TO.P,P1,16,Pin_16*%
%TO.N,SCL6*%
X50680000Y-54750000D03*
%TO.P,P1,17,Pin_17*%
%TO.N,+3.3V*%
X53220000Y-57290000D03*
%TO.P,P1,18,Pin_18*%
%TO.N,CS1*%
X53220000Y-54750000D03*
%TO.P,P1,19,Pin_19*%
%TO.N,RLY3*%
X55760000Y-57290000D03*
%TO.P,P1,20,Pin_20*%
%TO.N,GND*%
X55760000Y-54750000D03*
%TO.P,P1,21,Pin_21*%
%TO.N,SCL4*%
X58300000Y-57290000D03*
%TO.P,P1,22,Pin_22*%
%TO.N,LC_CLK*%
X58300000Y-54750000D03*
%TO.P,P1,23,Pin_23*%
%TO.N,RLY2*%
X60840000Y-57290000D03*
%TO.P,P1,24,Pin_24*%
%TO.N,SDA4*%
X60840000Y-54750000D03*
%TO.P,P1,25,Pin_25*%
%TO.N,GND*%
X63380000Y-57290000D03*
%TO.P,P1,26,Pin_26*%
%TO.N,LC_DAT*%
X63380000Y-54750000D03*
%TO.P,P1,27,Pin_27*%
%TO.N,unconnected-(P1-Pad27)*%
X65920000Y-57290000D03*
%TO.P,P1,28,Pin_28*%
%TO.N,unconnected-(P1-Pad28)*%
X65920000Y-54750000D03*
%TO.P,P1,29,Pin_29*%
%TO.N,SCL3*%
X68460000Y-57290000D03*
%TO.P,P1,30,Pin_30*%
%TO.N,GND*%
X68460000Y-54750000D03*
%TO.P,P1,31,Pin_31*%
%TO.N,RLY1*%
X71000000Y-57290000D03*
%TO.P,P1,32,Pin_32*%
%TO.N,SDA5*%
X71000000Y-54750000D03*
%TO.P,P1,33,Pin_33*%
%TO.N,SCL5*%
X73540000Y-57290000D03*
%TO.P,P1,34,Pin_34*%
%TO.N,GND*%
X73540000Y-54750000D03*
%TO.P,P1,35,Pin_35*%
%TO.N,MISO*%
X76080000Y-57290000D03*
%TO.P,P1,36,Pin_36*%
%TO.N,CS0*%
X76080000Y-54750000D03*
%TO.P,P1,37,Pin_37*%
%TO.N,RLY0*%
X78620000Y-57290000D03*
%TO.P,P1,38,Pin_38*%
%TO.N,MOSI*%
X78620000Y-54750000D03*
%TO.P,P1,39,Pin_39*%
%TO.N,GND*%
X81160000Y-57290000D03*
%TO.P,P1,40,Pin_40*%
%TO.N,SCLK*%
X81160000Y-54750000D03*
%TD*%
D20*
%TO.N,GND*%
X65850000Y-98500000D03*
X72250000Y-41250000D03*
X55250000Y-91500000D03*
X58600000Y-98600000D03*
X72250000Y-44250000D03*
X69250000Y-44250000D03*
X67750000Y-45750000D03*
D21*
X55750000Y-100750000D03*
D20*
X66250000Y-44250000D03*
X63250000Y-42750000D03*
X72250000Y-42750000D03*
X70750000Y-47250000D03*
X70750000Y-48750000D03*
X50800000Y-80600000D03*
X64750000Y-41250000D03*
X66250000Y-41250000D03*
X38650000Y-79300000D03*
X57500000Y-89000000D03*
X67750000Y-44250000D03*
X66250000Y-45750000D03*
X70750000Y-45750000D03*
X56400000Y-95800000D03*
X69250000Y-41250000D03*
X63250000Y-48750000D03*
X38650000Y-66300000D03*
X66250000Y-42750000D03*
X72250000Y-47250000D03*
X70750000Y-42750000D03*
X49550000Y-89250000D03*
X70750000Y-44250000D03*
X66250000Y-48750000D03*
X69250000Y-42750000D03*
X69250000Y-47250000D03*
X57000000Y-33900000D03*
X64750000Y-48750000D03*
X47371000Y-64400000D03*
X69250000Y-45750000D03*
X47390500Y-86000000D03*
X64750000Y-44250000D03*
X50925000Y-76250000D03*
X72250000Y-48750000D03*
X67750000Y-42750000D03*
X63250000Y-45750000D03*
X63750000Y-89250000D03*
X67750000Y-41250000D03*
X67750000Y-48750000D03*
X69250000Y-48750000D03*
X67750000Y-47250000D03*
D21*
X55675000Y-27425000D03*
D20*
X63250000Y-44250000D03*
X70750000Y-41250000D03*
X39750000Y-73700000D03*
X64750000Y-45750000D03*
X63250000Y-41250000D03*
X51000000Y-67800000D03*
X64750000Y-42750000D03*
D21*
X55675000Y-29425000D03*
D20*
X64750000Y-47250000D03*
X72250000Y-45750000D03*
X66250000Y-47250000D03*
X63250000Y-47250000D03*
X39750000Y-60650000D03*
%TO.N,+3.3V*%
X72800000Y-64600000D03*
X72750000Y-72000000D03*
X37750000Y-75500000D03*
X72750000Y-80000000D03*
X72750000Y-96000000D03*
X37750000Y-63750000D03*
X60600000Y-100600000D03*
X72750000Y-88000000D03*
%TO.N,+5V*%
X38000000Y-51500000D03*
X42000000Y-51500000D03*
X40000000Y-51500000D03*
X49550000Y-90750000D03*
X57300000Y-94750000D03*
X50600000Y-94200000D03*
%TO.N,LC_CLK*%
X57100000Y-83450000D03*
%TO.N,LC_DAT*%
X55500000Y-88900000D03*
%TO.N,SCL1*%
X44375000Y-94975000D03*
X44750000Y-71575000D03*
%TO.N,SDA1*%
X44249500Y-93800000D03*
X43750000Y-72550000D03*
%TO.N,SCL3*%
X68500000Y-68700000D03*
%TO.N,SDA3*%
X45680000Y-74560000D03*
%TO.N,SCL4*%
X58300000Y-75600000D03*
%TO.N,SDA4*%
X59700000Y-75600000D03*
%TO.N,SCL5*%
X73500000Y-60300000D03*
%TO.N,SCL6*%
X68820000Y-71900000D03*
X50673000Y-71882000D03*
%TO.N,SDA6*%
X50673000Y-73533000D03*
X69850000Y-73000000D03*
%TO.N,CS1*%
X52500000Y-77900000D03*
%TO.N,MISO*%
X51800000Y-61100000D03*
X51700000Y-76900000D03*
%TO.N,MOSI*%
X47300000Y-67945000D03*
X47300000Y-80000000D03*
X64700000Y-67325000D03*
%TO.N,SCLK*%
X51700000Y-79800000D03*
X47371000Y-66294000D03*
%TD*%
D22*
%TO.N,+3.3V*%
X72750000Y-72000000D02*
X72750000Y-64650000D01*
D23*
X78925000Y-100600000D02*
X83500000Y-96025000D01*
D22*
X75887500Y-61512500D02*
X80987500Y-61512500D01*
X80987500Y-61512500D02*
X83500000Y-64025000D01*
D23*
X60600000Y-100600000D02*
X78925000Y-100600000D01*
D22*
X72800000Y-64600000D02*
X75887500Y-61512500D01*
X72750000Y-88000000D02*
X72750000Y-96000000D01*
D23*
X37750000Y-62140000D02*
X37750000Y-63750000D01*
D22*
X72750000Y-80000000D02*
X72750000Y-88000000D01*
D23*
X37750000Y-75500000D02*
X37750000Y-63750000D01*
X32900000Y-57290000D02*
X37750000Y-62140000D01*
D22*
X72750000Y-72000000D02*
X72750000Y-80000000D01*
X72750000Y-64650000D02*
X72800000Y-64600000D01*
%TO.N,LC_CLK*%
X57100000Y-83300000D02*
X57100000Y-55950000D01*
X57100000Y-55950000D02*
X58300000Y-54750000D01*
%TO.N,LC_DAT*%
X63380000Y-54750000D02*
X62180000Y-55950000D01*
X62180000Y-82220000D02*
X55500000Y-88900000D01*
X62180000Y-55950000D02*
X62180000Y-82220000D01*
%TO.N,RLY0*%
X54385000Y-104000000D02*
X68070000Y-90315000D01*
X78000000Y-60800000D02*
X75750000Y-60800000D01*
X68070000Y-71380000D02*
X72100000Y-67350000D01*
X78620000Y-57290000D02*
X78620000Y-60180000D01*
X68070000Y-90315000D02*
X68070000Y-71380000D01*
X75610050Y-60800000D02*
X75750000Y-60800000D01*
X72100000Y-64310050D02*
X75610050Y-60800000D01*
X72100000Y-67350000D02*
X72100000Y-64310050D01*
X78620000Y-60180000D02*
X78000000Y-60800000D01*
%TO.N,RLY1*%
X67400000Y-83200000D02*
X51845000Y-98755000D01*
X71000000Y-57290000D02*
X71000000Y-67650000D01*
X67400000Y-83200000D02*
X67400000Y-71250000D01*
X67400000Y-71250000D02*
X67700000Y-70950000D01*
X51845000Y-98755000D02*
X51845000Y-104000000D01*
X71000000Y-67650000D02*
X67700000Y-70950000D01*
X67700000Y-70950000D02*
X67570000Y-71080000D01*
%TO.N,RLY2*%
X60840000Y-82260000D02*
X49305000Y-93795000D01*
X49305000Y-93795000D02*
X49305000Y-104000000D01*
X60840000Y-57290000D02*
X60840000Y-82260000D01*
%TO.N,RLY3*%
X55760000Y-86540000D02*
X46765000Y-95535000D01*
X55760000Y-57290000D02*
X55760000Y-86540000D01*
X46765000Y-95535000D02*
X46765000Y-104000000D01*
%TO.N,RLY4*%
X48140000Y-93260000D02*
X48140000Y-88660000D01*
X49300000Y-75900000D02*
X49300000Y-63400000D01*
X48140000Y-62240000D02*
X48140000Y-57290000D01*
X44225000Y-97175000D02*
X48140000Y-93260000D01*
X52600000Y-79200000D02*
X49300000Y-75900000D01*
X48140000Y-88660000D02*
X52600000Y-84200000D01*
X52600000Y-84200000D02*
X52600000Y-79200000D01*
X44225000Y-104000000D02*
X44225000Y-97175000D01*
X49300000Y-63400000D02*
X48140000Y-62240000D01*
%TO.N,RLY5*%
X41685000Y-98815000D02*
X41685000Y-104000000D01*
X46450000Y-58140000D02*
X46450000Y-94050000D01*
X46450000Y-94050000D02*
X41685000Y-98815000D01*
X45600000Y-57290000D02*
X46450000Y-58140000D01*
%TO.N,SCL1*%
X44750000Y-62475000D02*
X44750000Y-71575000D01*
X44450000Y-94975000D02*
X44375000Y-94975000D01*
X45025000Y-91725000D02*
X45025000Y-94400000D01*
X41300000Y-59025000D02*
X44750000Y-62475000D01*
X39715000Y-59025000D02*
X41300000Y-59025000D01*
X44750000Y-91450000D02*
X45025000Y-91725000D01*
X44750000Y-71575000D02*
X44750000Y-91450000D01*
X45025000Y-94400000D02*
X44450000Y-94975000D01*
X37980000Y-57290000D02*
X39715000Y-59025000D01*
%TO.N,SDA1*%
X44249500Y-93799500D02*
X43750000Y-93300000D01*
X37725000Y-59575000D02*
X35440000Y-57290000D01*
X43750000Y-62500000D02*
X40825000Y-59575000D01*
X43750000Y-93300000D02*
X43750000Y-72350000D01*
X43750000Y-72350000D02*
X43750000Y-62500000D01*
X44249500Y-93800000D02*
X44249500Y-93799500D01*
X40825000Y-59575000D02*
X37725000Y-59575000D01*
%TO.N,SCL3*%
X68460000Y-68660000D02*
X68500000Y-68700000D01*
X68460000Y-57290000D02*
X68460000Y-68660000D01*
%TO.N,SDA3*%
X45680000Y-62450000D02*
X43140000Y-59910000D01*
X45680000Y-74560000D02*
X45680000Y-62450000D01*
X40520000Y-57290000D02*
X43140000Y-59910000D01*
%TO.N,SCL4*%
X58300000Y-75600000D02*
X58300000Y-57290000D01*
%TO.N,SDA4*%
X60840000Y-54750000D02*
X59640000Y-55950000D01*
X59640000Y-75540000D02*
X59700000Y-75600000D01*
X59640000Y-55950000D02*
X59640000Y-75540000D01*
%TO.N,SCL5*%
X73540000Y-60260000D02*
X73500000Y-60300000D01*
X73540000Y-57290000D02*
X73540000Y-60260000D01*
%TO.N,SCL6*%
X51750000Y-70805000D02*
X50673000Y-71882000D01*
X71870000Y-98640000D02*
X68850000Y-95620000D01*
X68820000Y-95590000D02*
X68820000Y-71900000D01*
X49403000Y-61722000D02*
X51750000Y-64069000D01*
X49403000Y-56073000D02*
X49403000Y-61722000D01*
X49380000Y-56050000D02*
X49403000Y-56073000D01*
X78500000Y-96025000D02*
X75885000Y-98640000D01*
X51750000Y-64069000D02*
X51750000Y-70805000D01*
X75885000Y-98640000D02*
X71870000Y-98640000D01*
X50680000Y-54750000D02*
X49380000Y-56050000D01*
X68850000Y-95620000D02*
X68820000Y-95590000D01*
%TO.N,SDA6*%
X53000000Y-63500000D02*
X50680000Y-61180000D01*
X69850000Y-95000000D02*
X72300000Y-97450000D01*
X74575000Y-97450000D02*
X72300000Y-97450000D01*
X76000000Y-96025000D02*
X74575000Y-97450000D01*
X50680000Y-61180000D02*
X50680000Y-57290000D01*
X69850000Y-73000000D02*
X69850000Y-95000000D01*
X50673000Y-73533000D02*
X53000000Y-71206000D01*
X53000000Y-71206000D02*
X53000000Y-63500000D01*
%TO.N,CS1*%
X54560000Y-56090000D02*
X54560000Y-75840000D01*
X53220000Y-54750000D02*
X54560000Y-56090000D01*
X54560000Y-75840000D02*
X52500000Y-77900000D01*
%TO.N,MISO*%
X51700000Y-76900000D02*
X53600000Y-75000000D01*
X53600000Y-75000000D02*
X53600000Y-62900000D01*
X53600000Y-62900000D02*
X51800000Y-61100000D01*
%TO.N,MOSI*%
X47300000Y-67945000D02*
X47300000Y-80000000D01*
X77420000Y-55950000D02*
X65562943Y-55950000D01*
X64720000Y-67305000D02*
X64700000Y-67325000D01*
X64720000Y-56792943D02*
X64720000Y-67305000D01*
X64806472Y-56706472D02*
X64720000Y-56792943D01*
X65562943Y-55950000D02*
X64806472Y-56706472D01*
X78620000Y-54750000D02*
X77420000Y-55950000D01*
X64720000Y-56792943D02*
X65562943Y-55950000D01*
%TO.N,SCLK*%
X48300000Y-76400000D02*
X48300000Y-67223000D01*
X51700000Y-79800000D02*
X48300000Y-76400000D01*
X48300000Y-67223000D02*
X47371000Y-66294000D01*
%TD*%
M02*
