%TF.GenerationSoftware,KiCad,Pcbnew,(6.0.9-0)*%
%TF.CreationDate,2023-01-29T21:41:41+00:00*%
%TF.ProjectId,FiringPi,46697269-6e67-4506-992e-6b696361645f,rev?*%
%TF.SameCoordinates,Original*%
%TF.FileFunction,Paste,Top*%
%TF.FilePolarity,Positive*%
%FSLAX46Y46*%
G04 Gerber Fmt 4.6, Leading zero omitted, Abs format (unit mm)*
G04 Created by KiCad (PCBNEW (6.0.9-0)) date 2023-01-29 21:41:41*
%MOMM*%
%LPD*%
G01*
G04 APERTURE LIST*
G04 Aperture macros list*
%AMRoundRect*
0 Rectangle with rounded corners*
0 $1 Rounding radius*
0 $2 $3 $4 $5 $6 $7 $8 $9 X,Y pos of 4 corners*
0 Add a 4 corners polygon primitive as box body*
4,1,4,$2,$3,$4,$5,$6,$7,$8,$9,$2,$3,0*
0 Add four circle primitives for the rounded corners*
1,1,$1+$1,$2,$3*
1,1,$1+$1,$4,$5*
1,1,$1+$1,$6,$7*
1,1,$1+$1,$8,$9*
0 Add four rect primitives between the rounded corners*
20,1,$1+$1,$2,$3,$4,$5,0*
20,1,$1+$1,$4,$5,$6,$7,0*
20,1,$1+$1,$6,$7,$8,$9,0*
20,1,$1+$1,$8,$9,$2,$3,0*%
G04 Aperture macros list end*
%ADD10RoundRect,0.225000X-0.225000X-0.250000X0.225000X-0.250000X0.225000X0.250000X-0.225000X0.250000X0*%
%ADD11RoundRect,0.200000X-0.275000X0.200000X-0.275000X-0.200000X0.275000X-0.200000X0.275000X0.200000X0*%
%ADD12RoundRect,0.218750X0.218750X0.381250X-0.218750X0.381250X-0.218750X-0.381250X0.218750X-0.381250X0*%
%ADD13RoundRect,0.225000X0.250000X-0.225000X0.250000X0.225000X-0.250000X0.225000X-0.250000X-0.225000X0*%
%ADD14RoundRect,0.200000X0.275000X-0.200000X0.275000X0.200000X-0.275000X0.200000X-0.275000X-0.200000X0*%
%ADD15RoundRect,0.225000X-0.250000X0.225000X-0.250000X-0.225000X0.250000X-0.225000X0.250000X0.225000X0*%
%ADD16RoundRect,0.200000X-0.200000X-0.275000X0.200000X-0.275000X0.200000X0.275000X-0.200000X0.275000X0*%
%ADD17RoundRect,0.243750X0.243750X0.456250X-0.243750X0.456250X-0.243750X-0.456250X0.243750X-0.456250X0*%
%ADD18RoundRect,0.218750X0.381250X-0.218750X0.381250X0.218750X-0.381250X0.218750X-0.381250X-0.218750X0*%
%ADD19RoundRect,0.125000X-0.825000X-0.125000X0.825000X-0.125000X0.825000X0.125000X-0.825000X0.125000X0*%
%ADD20R,1.400000X1.000000*%
%ADD21R,2.500000X3.300000*%
%ADD22O,17.907000X2.159000*%
%ADD23R,1.525000X0.700000*%
%ADD24RoundRect,0.218750X-0.218750X-0.381250X0.218750X-0.381250X0.218750X0.381250X-0.218750X0.381250X0*%
%ADD25RoundRect,0.200000X0.200000X0.275000X-0.200000X0.275000X-0.200000X-0.275000X0.200000X-0.275000X0*%
%ADD26R,0.250000X1.100000*%
%ADD27R,1.100000X4.600000*%
%ADD28R,5.250000X4.550000*%
%ADD29RoundRect,0.218750X-0.218750X-0.256250X0.218750X-0.256250X0.218750X0.256250X-0.218750X0.256250X0*%
G04 APERTURE END LIST*
D10*
%TO.C,C4*%
X63175000Y-98500000D03*
X64725000Y-98500000D03*
%TD*%
D11*
%TO.C,R22*%
X71750000Y-80925000D03*
X71750000Y-82575000D03*
%TD*%
D10*
%TO.C,C16*%
X41975000Y-70750000D03*
X43525000Y-70750000D03*
%TD*%
D12*
%TO.C,FB2*%
X48662500Y-92400000D03*
X46537500Y-92400000D03*
%TD*%
D11*
%TO.C,R20*%
X71750000Y-72925000D03*
X71750000Y-74575000D03*
%TD*%
D13*
%TO.C,C10*%
X46600000Y-90775000D03*
X46600000Y-89225000D03*
%TD*%
D14*
%TO.C,R17*%
X71750000Y-63075000D03*
X71750000Y-61425000D03*
%TD*%
D15*
%TO.C,C9*%
X57900000Y-95850000D03*
X57900000Y-97400000D03*
%TD*%
D14*
%TO.C,R9*%
X43000000Y-101075000D03*
X43000000Y-99425000D03*
%TD*%
D13*
%TO.C,C5*%
X61400000Y-86375000D03*
X61400000Y-84825000D03*
%TD*%
D16*
%TO.C,R10*%
X63075000Y-86350000D03*
X64725000Y-86350000D03*
%TD*%
D17*
%TO.C,D2*%
X55837500Y-33900000D03*
X53962500Y-33900000D03*
%TD*%
D18*
%TO.C,FB1*%
X53621320Y-48187500D03*
X53621320Y-50312500D03*
%TD*%
D19*
%TO.C,U6*%
X42250000Y-63075000D03*
X42250000Y-63725000D03*
X42250000Y-64375000D03*
X42250000Y-65025000D03*
X42250000Y-65675000D03*
X42250000Y-66325000D03*
X42250000Y-66975000D03*
X42250000Y-67625000D03*
X42250000Y-68275000D03*
X42250000Y-68925000D03*
X49250000Y-68925000D03*
X49250000Y-68275000D03*
X49250000Y-67625000D03*
X49250000Y-66975000D03*
X49250000Y-66325000D03*
X49250000Y-65675000D03*
X49250000Y-65025000D03*
X49250000Y-64375000D03*
X49250000Y-63725000D03*
X49250000Y-63075000D03*
%TD*%
D11*
%TO.C,R16*%
X39750000Y-82325000D03*
X39750000Y-80675000D03*
%TD*%
D20*
%TO.C,Q1*%
X61300000Y-93650000D03*
X63500000Y-94600000D03*
X61300000Y-95550000D03*
%TD*%
D15*
%TO.C,C13*%
X39750000Y-64725000D03*
X39750000Y-66275000D03*
%TD*%
D11*
%TO.C,R24*%
X71750000Y-88925000D03*
X71750000Y-90575000D03*
%TD*%
D16*
%TO.C,R13*%
X61075000Y-90100000D03*
X62725000Y-90100000D03*
%TD*%
D11*
%TO.C,R18*%
X71750000Y-64925000D03*
X71750000Y-66575000D03*
%TD*%
D14*
%TO.C,R23*%
X71750000Y-87075000D03*
X71750000Y-85425000D03*
%TD*%
D10*
%TO.C,C6*%
X61125000Y-88600000D03*
X62675000Y-88600000D03*
%TD*%
D13*
%TO.C,C14*%
X39750000Y-76275000D03*
X39750000Y-74725000D03*
%TD*%
D21*
%TO.C,D1*%
X65075000Y-28425000D03*
X58275000Y-28425000D03*
%TD*%
D10*
%TO.C,C3*%
X63175000Y-100100000D03*
X64725000Y-100100000D03*
%TD*%
D11*
%TO.C,R26*%
X71750000Y-96925000D03*
X71750000Y-98575000D03*
%TD*%
D14*
%TO.C,R5*%
X51000000Y-101075000D03*
X51000000Y-99425000D03*
%TD*%
D15*
%TO.C,C8*%
X59400000Y-95850000D03*
X59400000Y-97400000D03*
%TD*%
D22*
%TO.C,L7*%
X38621320Y-47662320D03*
X38621320Y-26580320D03*
%TD*%
D13*
%TO.C,C12*%
X39750000Y-63275000D03*
X39750000Y-61725000D03*
%TD*%
D23*
%TO.C,IC1*%
X59112000Y-94045000D03*
X59112000Y-92775000D03*
X59112000Y-91505000D03*
X59112000Y-90235000D03*
X59112000Y-88965000D03*
X59112000Y-87695000D03*
X59112000Y-86425000D03*
X59112000Y-85155000D03*
X53688000Y-85155000D03*
X53688000Y-86425000D03*
X53688000Y-87695000D03*
X53688000Y-88965000D03*
X53688000Y-90235000D03*
X53688000Y-91505000D03*
X53688000Y-92775000D03*
X53688000Y-94045000D03*
%TD*%
D10*
%TO.C,C7*%
X53625000Y-95850000D03*
X55175000Y-95850000D03*
%TD*%
D16*
%TO.C,R11*%
X63075000Y-84850000D03*
X64725000Y-84850000D03*
%TD*%
%TO.C,R12*%
X62725000Y-91600000D03*
X61075000Y-91600000D03*
%TD*%
D24*
%TO.C,FB3*%
X46537500Y-87600000D03*
X48662500Y-87600000D03*
%TD*%
D14*
%TO.C,R21*%
X71750000Y-79075000D03*
X71750000Y-77425000D03*
%TD*%
D25*
%TO.C,R1*%
X54075000Y-35800000D03*
X55725000Y-35800000D03*
%TD*%
D15*
%TO.C,C15*%
X39750000Y-77725000D03*
X39750000Y-79275000D03*
%TD*%
D13*
%TO.C,C11*%
X48400000Y-90775000D03*
X48400000Y-89225000D03*
%TD*%
D14*
%TO.C,R19*%
X71750000Y-71075000D03*
X71750000Y-69425000D03*
%TD*%
%TO.C,R8*%
X45000000Y-101075000D03*
X45000000Y-99425000D03*
%TD*%
%TO.C,R7*%
X47000000Y-101075000D03*
X47000000Y-99425000D03*
%TD*%
D26*
%TO.C,U5*%
X45000000Y-87850000D03*
X44500000Y-87850000D03*
X44000000Y-87850000D03*
X43500000Y-87850000D03*
X43000000Y-87850000D03*
X43000000Y-92150000D03*
X43500000Y-92150000D03*
X44000000Y-92150000D03*
X44500000Y-92150000D03*
X45000000Y-92150000D03*
%TD*%
D10*
%TO.C,C17*%
X42000000Y-83750000D03*
X43550000Y-83750000D03*
%TD*%
D14*
%TO.C,R25*%
X71750000Y-95075000D03*
X71750000Y-93425000D03*
%TD*%
%TO.C,R4*%
X53000000Y-101075000D03*
X53000000Y-99425000D03*
%TD*%
D11*
%TO.C,R15*%
X39750000Y-69325000D03*
X39750000Y-67675000D03*
%TD*%
D14*
%TO.C,R14*%
X51800000Y-94225000D03*
X51800000Y-92575000D03*
%TD*%
%TO.C,R6*%
X49000000Y-101075000D03*
X49000000Y-99425000D03*
%TD*%
D19*
%TO.C,U7*%
X42250000Y-76075000D03*
X42250000Y-76725000D03*
X42250000Y-77375000D03*
X42250000Y-78025000D03*
X42250000Y-78675000D03*
X42250000Y-79325000D03*
X42250000Y-79975000D03*
X42250000Y-80625000D03*
X42250000Y-81275000D03*
X42250000Y-81925000D03*
X49250000Y-81925000D03*
X49250000Y-81275000D03*
X49250000Y-80625000D03*
X49250000Y-79975000D03*
X49250000Y-79325000D03*
X49250000Y-78675000D03*
X49250000Y-78025000D03*
X49250000Y-77375000D03*
X49250000Y-76725000D03*
X49250000Y-76075000D03*
%TD*%
D27*
%TO.C,U4*%
X64325000Y-35875000D03*
X66025000Y-35875000D03*
X67725000Y-35875000D03*
X69425000Y-35875000D03*
X71125000Y-35875000D03*
D28*
X64950000Y-47450000D03*
X70500000Y-42600000D03*
X70500000Y-47450000D03*
X64950000Y-42600000D03*
%TD*%
D29*
%TO.C,L6*%
X63162500Y-96900000D03*
X64737500Y-96900000D03*
%TD*%
M02*
